SplineFontDB: 3.2
FontName: BMLucidaTypewriter17
FullName: BM Lucida Typewriter 17
FamilyName: BM Lucida Typewriter 17
Weight: Book
Copyright: Copyright Bigelow & Holmes 1986, 1985.
UComments: "2021-12-18: Created with FontForge (http://fontforge.org)"
Version: 001.000
ItalicAngle: 0
UnderlinePosition: -100
UnderlineWidth: 50
Ascent: 842
Descent: 211
InvalidEm: 0
LayerCount: 2
Layer: 0 0 "Back" 1
Layer: 1 0 "Fore" 0
XUID: [1021 808 -1287970300 12297013]
StyleMap: 0x0040
FSType: 0
OS2Version: 0
OS2_WeightWidthSlopeOnly: 0
OS2_UseTypoMetrics: 1
CreationTime: 1639845857
ModificationTime: 1639845858
PfmFamily: 48
TTFWeight: 400
TTFWidth: 5
LineGap: 0
VLineGap: 95
Panose: 2 0 6 9 0 0 0 0 0 0
OS2TypoAscent: 842
OS2TypoAOffset: 0
OS2TypoDescent: -211
OS2TypoDOffset: 0
OS2TypoLinegap: 0
OS2WinAscent: 842
OS2WinAOffset: 0
OS2WinDescent: 211
OS2WinDOffset: 0
HheadAscent: 842
HheadAOffset: 0
HheadDescent: -211
HheadDOffset: 0
OS2SubXSize: 684
OS2SubYSize: 737
OS2SubXOff: 0
OS2SubYOff: 147
OS2SupXSize: 684
OS2SupYSize: 737
OS2SupXOff: 0
OS2SupYOff: 505
OS2StrikeYSize: 52
OS2StrikeYPos: 272
OS2Vendor: 'PfEd'
DEI: 91125
Encoding: UnicodeBmp
UnicodeInterp: none
NameList: AGL For New Fonts
DisplaySize: 17
AntiAlias: 1
FitToEm: 0
BeginChars: 65536 881

StartChar: char0
Encoding: 0 0 0
Width: 554
Flags: HW
LayerCount: 2
Back
Fore
SplineSet
55 554 m 1
 55 610 l 1
 111 610 l 1
 111 554 l 1
 55 554 l 1
166 554 m 1
 166 610 l 1
 222 610 l 1
 222 554 l 1
 166 554 l 1
277 554 m 1
 277 610 l 1
 333 610 l 1
 333 554 l 1
 277 554 l 1
388 554 m 1
 388 610 l 1
 443 610 l 1
 443 554 l 1
 388 554 l 1
55 443 m 1
 55 499 l 1
 111 499 l 1
 111 443 l 1
 55 443 l 1
388 443 m 1
 388 499 l 1
 443 499 l 1
 443 443 l 1
 388 443 l 1
55 333 m 1
 55 388 l 1
 111 388 l 1
 111 333 l 1
 55 333 l 1
388 333 m 1
 388 388 l 1
 443 388 l 1
 443 333 l 1
 388 333 l 1
55 222 m 1
 55 277 l 1
 111 277 l 1
 111 222 l 1
 55 222 l 1
388 222 m 1
 388 277 l 1
 443 277 l 1
 443 222 l 1
 388 222 l 1
55 111 m 1
 55 166 l 1
 111 166 l 1
 111 111 l 1
 55 111 l 1
388 111 m 1
 388 166 l 1
 443 166 l 1
 443 111 l 1
 388 111 l 1
55 0 m 1
 55 55 l 1
 111 55 l 1
 111 0 l 1
 55 0 l 1
166 0 m 1
 166 55 l 1
 222 55 l 1
 222 0 l 1
 166 0 l 1
277 0 m 1
 277 55 l 1
 333 55 l 1
 333 0 l 1
 277 0 l 1
388 0 m 1
 388 55 l 1
 443 55 l 1
 443 0 l 1
 388 0 l 1
EndSplineSet
EndChar

StartChar: exclam
Encoding: 33 33 2
Width: 554
Flags: HW
LayerCount: 2
Back
Fore
SplineSet
277 610 m 1
 277 665 l 1
 333 665 l 1
 333 610 l 1
 277 610 l 1
277 554 m 1
 277 610 l 1
 333 610 l 1
 333 554 l 1
 277 554 l 1
277 499 m 1
 277 554 l 1
 333 554 l 1
 333 499 l 1
 277 499 l 1
277 443 m 1
 277 499 l 1
 333 499 l 1
 333 443 l 1
 277 443 l 1
277 388 m 1
 277 443 l 1
 333 443 l 1
 333 388 l 1
 277 388 l 1
277 333 m 1
 277 388 l 1
 333 388 l 1
 333 333 l 1
 277 333 l 1
277 277 m 1
 277 333 l 1
 333 333 l 1
 333 277 l 1
 277 277 l 1
277 222 m 1
 277 277 l 1
 333 277 l 1
 333 222 l 1
 277 222 l 1
277 166 m 1
 277 222 l 1
 333 222 l 1
 333 166 l 1
 277 166 l 1
277 0 m 1
 277 55 l 1
 333 55 l 1
 333 0 l 1
 277 0 l 1
EndSplineSet
EndChar

StartChar: quotedbl
Encoding: 34 34 3
Width: 554
Flags: HW
LayerCount: 2
Back
Fore
SplineSet
166 610 m 1
 166 665 l 1
 222 665 l 1
 222 610 l 1
 166 610 l 1
388 610 m 1
 388 665 l 1
 443 665 l 1
 443 610 l 1
 388 610 l 1
166 554 m 1
 166 610 l 1
 222 610 l 1
 222 554 l 1
 166 554 l 1
388 554 m 1
 388 610 l 1
 443 610 l 1
 443 554 l 1
 388 554 l 1
166 499 m 1
 166 554 l 1
 222 554 l 1
 222 499 l 1
 166 499 l 1
388 499 m 1
 388 554 l 1
 443 554 l 1
 443 499 l 1
 388 499 l 1
166 443 m 1
 166 499 l 1
 222 499 l 1
 222 443 l 1
 166 443 l 1
388 443 m 1
 388 499 l 1
 443 499 l 1
 443 443 l 1
 388 443 l 1
EndSplineSet
EndChar

StartChar: numbersign
Encoding: 35 35 4
Width: 554
Flags: HW
LayerCount: 2
Back
Fore
SplineSet
277 610 m 1
 277 665 l 1
 333 665 l 1
 333 610 l 1
 277 610 l 1
443 610 m 1
 443 665 l 1
 499 665 l 1
 499 610 l 1
 443 610 l 1
222 554 m 1
 222 610 l 1
 333 610 l 1
 333 554 l 1
 222 554 l 1
388 554 m 1
 388 610 l 1
 499 610 l 1
 499 554 l 1
 388 554 l 1
222 499 m 1
 222 554 l 1
 277 554 l 1
 277 499 l 1
 222 499 l 1
388 499 m 1
 388 554 l 1
 443 554 l 1
 443 499 l 1
 388 499 l 1
111 443 m 1
 111 499 l 1
 554 499 l 1
 554 443 l 1
 111 443 l 1
222 388 m 1
 222 443 l 1
 277 443 l 1
 277 388 l 1
 222 388 l 1
388 388 m 1
 388 443 l 1
 443 443 l 1
 443 388 l 1
 388 388 l 1
166 333 m 1
 166 388 l 1
 222 388 l 1
 222 333 l 1
 166 333 l 1
333 333 m 1
 333 388 l 1
 388 388 l 1
 388 333 l 1
 333 333 l 1
55 277 m 1
 55 333 l 1
 499 333 l 1
 499 277 l 1
 55 277 l 1
166 222 m 1
 166 277 l 1
 222 277 l 1
 222 222 l 1
 166 222 l 1
333 222 m 1
 333 277 l 1
 388 277 l 1
 388 222 l 1
 333 222 l 1
166 166 m 1
 166 222 l 1
 222 222 l 1
 222 166 l 1
 166 166 l 1
333 166 m 1
 333 222 l 1
 388 222 l 1
 388 166 l 1
 333 166 l 1
111 111 m 1
 111 166 l 1
 166 166 l 1
 166 111 l 1
 111 111 l 1
277 111 m 1
 277 166 l 1
 388 166 l 1
 388 111 l 1
 277 111 l 1
111 55 m 1
 111 111 l 1
 166 111 l 1
 166 55 l 1
 111 55 l 1
277 55 m 1
 277 111 l 1
 333 111 l 1
 333 55 l 1
 277 55 l 1
111 0 m 1
 111 55 l 1
 166 55 l 1
 166 0 l 1
 111 0 l 1
277 0 m 1
 277 55 l 1
 333 55 l 1
 333 0 l 1
 277 0 l 1
EndSplineSet
EndChar

StartChar: dollar
Encoding: 36 36 5
Width: 554
Flags: HW
LayerCount: 2
Back
Fore
SplineSet
277 665 m 1
 277 720 l 1
 333 720 l 1
 333 665 l 1
 277 665 l 1
166 610 m 1
 166 665 l 1
 499 665 l 1
 499 610 l 1
 166 610 l 1
111 554 m 1
 111 610 l 1
 222 610 l 1
 222 554 l 1
 111 554 l 1
277 554 m 1
 277 610 l 1
 333 610 l 1
 333 554 l 1
 277 554 l 1
443 554 m 1
 443 610 l 1
 499 610 l 1
 499 554 l 1
 443 554 l 1
111 499 m 1
 111 554 l 1
 166 554 l 1
 166 499 l 1
 111 499 l 1
277 499 m 1
 277 554 l 1
 333 554 l 1
 333 499 l 1
 277 499 l 1
111 443 m 1
 111 499 l 1
 166 499 l 1
 166 443 l 1
 111 443 l 1
277 443 m 1
 277 499 l 1
 333 499 l 1
 333 443 l 1
 277 443 l 1
111 388 m 1
 111 443 l 1
 333 443 l 1
 333 388 l 1
 111 388 l 1
222 333 m 1
 222 388 l 1
 333 388 l 1
 333 333 l 1
 222 333 l 1
277 277 m 1
 277 333 l 1
 443 333 l 1
 443 277 l 1
 277 277 l 1
277 222 m 1
 277 277 l 1
 333 277 l 1
 333 222 l 1
 277 222 l 1
388 222 m 1
 388 277 l 1
 499 277 l 1
 499 222 l 1
 388 222 l 1
277 166 m 1
 277 222 l 1
 333 222 l 1
 333 166 l 1
 277 166 l 1
443 166 m 1
 443 222 l 1
 499 222 l 1
 499 166 l 1
 443 166 l 1
277 111 m 1
 277 166 l 1
 333 166 l 1
 333 111 l 1
 277 111 l 1
443 111 m 1
 443 166 l 1
 499 166 l 1
 499 111 l 1
 443 111 l 1
111 55 m 1
 111 111 l 1
 166 111 l 1
 166 55 l 1
 111 55 l 1
277 55 m 1
 277 111 l 1
 333 111 l 1
 333 55 l 1
 277 55 l 1
388 55 m 1
 388 111 l 1
 499 111 l 1
 499 55 l 1
 388 55 l 1
111 0 m 1
 111 55 l 1
 443 55 l 1
 443 0 l 1
 111 0 l 1
277 -55 m 1
 277 0 l 1
 333 0 l 1
 333 -55 l 1
 277 -55 l 1
EndSplineSet
EndChar

StartChar: percent
Encoding: 37 37 6
Width: 554
Flags: HW
LayerCount: 2
Back
Fore
SplineSet
55 610 m 1
 55 665 l 1
 222 665 l 1
 222 610 l 1
 55 610 l 1
443 610 m 1
 443 665 l 1
 554 665 l 1
 554 610 l 1
 443 610 l 1
0 554 m 1
 0 610 l 1
 111 610 l 1
 111 554 l 1
 0 554 l 1
166 554 m 1
 166 610 l 1
 277 610 l 1
 277 554 l 1
 166 554 l 1
443 554 m 1
 443 610 l 1
 499 610 l 1
 499 554 l 1
 443 554 l 1
0 499 m 1
 0 554 l 1
 55 554 l 1
 55 499 l 1
 0 499 l 1
222 499 m 1
 222 554 l 1
 277 554 l 1
 277 499 l 1
 222 499 l 1
388 499 m 1
 388 554 l 1
 443 554 l 1
 443 499 l 1
 388 499 l 1
0 443 m 1
 0 499 l 1
 55 499 l 1
 55 443 l 1
 0 443 l 1
222 443 m 1
 222 499 l 1
 277 499 l 1
 277 443 l 1
 222 443 l 1
333 443 m 1
 333 499 l 1
 388 499 l 1
 388 443 l 1
 333 443 l 1
0 388 m 1
 0 443 l 1
 111 443 l 1
 111 388 l 1
 0 388 l 1
166 388 m 1
 166 443 l 1
 388 443 l 1
 388 388 l 1
 166 388 l 1
55 333 m 1
 55 388 l 1
 222 388 l 1
 222 333 l 1
 55 333 l 1
277 333 m 1
 277 388 l 1
 333 388 l 1
 333 333 l 1
 277 333 l 1
222 277 m 1
 222 333 l 1
 277 333 l 1
 277 277 l 1
 222 277 l 1
166 222 m 1
 166 277 l 1
 222 277 l 1
 222 222 l 1
 166 222 l 1
333 222 m 1
 333 277 l 1
 499 277 l 1
 499 222 l 1
 333 222 l 1
166 166 m 1
 166 222 l 1
 222 222 l 1
 222 166 l 1
 166 166 l 1
277 166 m 1
 277 222 l 1
 333 222 l 1
 333 166 l 1
 277 166 l 1
499 166 m 1
 499 222 l 1
 554 222 l 1
 554 166 l 1
 499 166 l 1
111 111 m 1
 111 166 l 1
 166 166 l 1
 166 111 l 1
 111 111 l 1
277 111 m 1
 277 166 l 1
 333 166 l 1
 333 111 l 1
 277 111 l 1
499 111 m 1
 499 166 l 1
 554 166 l 1
 554 111 l 1
 499 111 l 1
55 55 m 1
 55 111 l 1
 111 111 l 1
 111 55 l 1
 55 55 l 1
277 55 m 1
 277 111 l 1
 333 111 l 1
 333 55 l 1
 277 55 l 1
499 55 m 1
 499 111 l 1
 554 111 l 1
 554 55 l 1
 499 55 l 1
0 0 m 1
 0 55 l 1
 111 55 l 1
 111 0 l 1
 0 0 l 1
333 0 m 1
 333 55 l 1
 499 55 l 1
 499 0 l 1
 333 0 l 1
EndSplineSet
EndChar

StartChar: ampersand
Encoding: 38 38 7
Width: 554
Flags: HW
LayerCount: 2
Back
Fore
SplineSet
166 610 m 1
 166 665 l 1
 388 665 l 1
 388 610 l 1
 166 610 l 1
111 554 m 1
 111 610 l 1
 166 610 l 1
 166 554 l 1
 111 554 l 1
388 554 m 1
 388 610 l 1
 443 610 l 1
 443 554 l 1
 388 554 l 1
111 499 m 1
 111 554 l 1
 166 554 l 1
 166 499 l 1
 111 499 l 1
388 499 m 1
 388 554 l 1
 443 554 l 1
 443 499 l 1
 388 499 l 1
111 443 m 1
 111 499 l 1
 166 499 l 1
 166 443 l 1
 111 443 l 1
333 443 m 1
 333 499 l 1
 443 499 l 1
 443 443 l 1
 333 443 l 1
166 388 m 1
 166 443 l 1
 333 443 l 1
 333 388 l 1
 166 388 l 1
111 333 m 1
 111 388 l 1
 222 388 l 1
 222 333 l 1
 111 333 l 1
0 277 m 1
 0 333 l 1
 111 333 l 1
 111 277 l 1
 0 277 l 1
222 277 m 1
 222 333 l 1
 277 333 l 1
 277 277 l 1
 222 277 l 1
554 277 m 1
 554 333 l 1
 610 333 l 1
 610 277 l 1
 554 277 l 1
0 222 m 1
 0 277 l 1
 55 277 l 1
 55 222 l 1
 0 222 l 1
277 222 m 1
 277 277 l 1
 333 277 l 1
 333 222 l 1
 277 222 l 1
554 222 m 1
 554 277 l 1
 610 277 l 1
 610 222 l 1
 554 222 l 1
0 166 m 1
 0 222 l 1
 55 222 l 1
 55 166 l 1
 0 166 l 1
333 166 m 1
 333 222 l 1
 388 222 l 1
 388 166 l 1
 333 166 l 1
499 166 m 1
 499 222 l 1
 610 222 l 1
 610 166 l 1
 499 166 l 1
0 111 m 1
 0 166 l 1
 55 166 l 1
 55 111 l 1
 0 111 l 1
388 111 m 1
 388 166 l 1
 554 166 l 1
 554 111 l 1
 388 111 l 1
55 55 m 1
 55 111 l 1
 111 111 l 1
 111 55 l 1
 55 55 l 1
388 55 m 1
 388 111 l 1
 554 111 l 1
 554 55 l 1
 388 55 l 1
111 0 m 1
 111 55 l 1
 388 55 l 1
 388 0 l 1
 111 0 l 1
443 0 m 1
 443 55 l 1
 610 55 l 1
 610 0 l 1
 443 0 l 1
EndSplineSet
EndChar

StartChar: quotesingle
Encoding: 39 39 8
Width: 554
Flags: HW
LayerCount: 2
Back
Fore
SplineSet
222 610 m 1
 222 665 l 1
 388 665 l 1
 388 610 l 1
 222 610 l 1
222 554 m 1
 222 610 l 1
 388 610 l 1
 388 554 l 1
 222 554 l 1
277 499 m 1
 277 554 l 1
 333 554 l 1
 333 499 l 1
 277 499 l 1
277 443 m 1
 277 499 l 1
 333 499 l 1
 333 443 l 1
 277 443 l 1
EndSplineSet
EndChar

StartChar: parenleft
Encoding: 40 40 9
Width: 554
Flags: HW
LayerCount: 2
Back
Fore
SplineSet
333 610 m 1
 333 665 l 1
 443 665 l 1
 443 610 l 1
 333 610 l 1
277 554 m 1
 277 610 l 1
 388 610 l 1
 388 554 l 1
 277 554 l 1
222 499 m 1
 222 554 l 1
 333 554 l 1
 333 499 l 1
 222 499 l 1
222 443 m 1
 222 499 l 1
 277 499 l 1
 277 443 l 1
 222 443 l 1
166 388 m 1
 166 443 l 1
 222 443 l 1
 222 388 l 1
 166 388 l 1
166 333 m 1
 166 388 l 1
 222 388 l 1
 222 333 l 1
 166 333 l 1
166 277 m 1
 166 333 l 1
 222 333 l 1
 222 277 l 1
 166 277 l 1
166 222 m 1
 166 277 l 1
 222 277 l 1
 222 222 l 1
 166 222 l 1
166 166 m 1
 166 222 l 1
 222 222 l 1
 222 166 l 1
 166 166 l 1
166 111 m 1
 166 166 l 1
 222 166 l 1
 222 111 l 1
 166 111 l 1
222 55 m 1
 222 111 l 1
 277 111 l 1
 277 55 l 1
 222 55 l 1
222 0 m 1
 222 55 l 1
 277 55 l 1
 277 0 l 1
 222 0 l 1
277 -55 m 1
 277 0 l 1
 388 0 l 1
 388 -55 l 1
 277 -55 l 1
333 -111 m 1
 333 -55 l 1
 443 -55 l 1
 443 -111 l 1
 333 -111 l 1
EndSplineSet
EndChar

StartChar: parenright
Encoding: 41 41 10
Width: 554
Flags: HW
LayerCount: 2
Back
Fore
SplineSet
111 610 m 1
 111 665 l 1
 222 665 l 1
 222 610 l 1
 111 610 l 1
166 554 m 1
 166 610 l 1
 277 610 l 1
 277 554 l 1
 166 554 l 1
222 499 m 1
 222 554 l 1
 333 554 l 1
 333 499 l 1
 222 499 l 1
277 443 m 1
 277 499 l 1
 333 499 l 1
 333 443 l 1
 277 443 l 1
333 388 m 1
 333 443 l 1
 388 443 l 1
 388 388 l 1
 333 388 l 1
333 333 m 1
 333 388 l 1
 388 388 l 1
 388 333 l 1
 333 333 l 1
333 277 m 1
 333 333 l 1
 388 333 l 1
 388 277 l 1
 333 277 l 1
333 222 m 1
 333 277 l 1
 388 277 l 1
 388 222 l 1
 333 222 l 1
333 166 m 1
 333 222 l 1
 388 222 l 1
 388 166 l 1
 333 166 l 1
333 111 m 1
 333 166 l 1
 388 166 l 1
 388 111 l 1
 333 111 l 1
277 55 m 1
 277 111 l 1
 333 111 l 1
 333 55 l 1
 277 55 l 1
277 0 m 1
 277 55 l 1
 333 55 l 1
 333 0 l 1
 277 0 l 1
166 -55 m 1
 166 0 l 1
 277 0 l 1
 277 -55 l 1
 166 -55 l 1
111 -111 m 1
 111 -55 l 1
 222 -55 l 1
 222 -111 l 1
 111 -111 l 1
EndSplineSet
EndChar

StartChar: asterisk
Encoding: 42 42 11
Width: 554
Flags: HW
LayerCount: 2
Back
Fore
SplineSet
222 610 m 1
 222 665 l 1
 333 665 l 1
 333 610 l 1
 222 610 l 1
222 554 m 1
 222 610 l 1
 333 610 l 1
 333 554 l 1
 222 554 l 1
55 499 m 1
 55 554 l 1
 166 554 l 1
 166 499 l 1
 55 499 l 1
222 499 m 1
 222 554 l 1
 333 554 l 1
 333 499 l 1
 222 499 l 1
388 499 m 1
 388 554 l 1
 499 554 l 1
 499 499 l 1
 388 499 l 1
111 443 m 1
 111 499 l 1
 222 499 l 1
 222 443 l 1
 111 443 l 1
333 443 m 1
 333 499 l 1
 443 499 l 1
 443 443 l 1
 333 443 l 1
166 388 m 1
 166 443 l 1
 222 443 l 1
 222 388 l 1
 166 388 l 1
277 388 m 1
 277 443 l 1
 388 443 l 1
 388 388 l 1
 277 388 l 1
111 333 m 1
 111 388 l 1
 277 388 l 1
 277 333 l 1
 111 333 l 1
333 333 m 1
 333 388 l 1
 443 388 l 1
 443 333 l 1
 333 333 l 1
166 277 m 1
 166 333 l 1
 222 333 l 1
 222 277 l 1
 166 277 l 1
333 277 m 1
 333 333 l 1
 388 333 l 1
 388 277 l 1
 333 277 l 1
EndSplineSet
EndChar

StartChar: plus
Encoding: 43 43 12
Width: 554
Flags: HW
LayerCount: 2
Back
Fore
SplineSet
277 443 m 1
 277 499 l 1
 333 499 l 1
 333 443 l 1
 277 443 l 1
277 388 m 1
 277 443 l 1
 333 443 l 1
 333 388 l 1
 277 388 l 1
277 333 m 1
 277 388 l 1
 333 388 l 1
 333 333 l 1
 277 333 l 1
277 277 m 1
 277 333 l 1
 333 333 l 1
 333 277 l 1
 277 277 l 1
55 222 m 1
 55 277 l 1
 554 277 l 1
 554 222 l 1
 55 222 l 1
277 166 m 1
 277 222 l 1
 333 222 l 1
 333 166 l 1
 277 166 l 1
277 111 m 1
 277 166 l 1
 333 166 l 1
 333 111 l 1
 277 111 l 1
277 55 m 1
 277 111 l 1
 333 111 l 1
 333 55 l 1
 277 55 l 1
277 0 m 1
 277 55 l 1
 333 55 l 1
 333 0 l 1
 277 0 l 1
EndSplineSet
EndChar

StartChar: comma
Encoding: 44 44 13
Width: 554
Flags: HW
LayerCount: 2
Back
Fore
SplineSet
222 111 m 1
 222 166 l 1
 333 166 l 1
 333 111 l 1
 222 111 l 1
222 55 m 1
 222 111 l 1
 333 111 l 1
 333 55 l 1
 222 55 l 1
222 0 m 1
 222 55 l 1
 333 55 l 1
 333 0 l 1
 222 0 l 1
277 -55 m 1
 277 0 l 1
 333 0 l 1
 333 -55 l 1
 277 -55 l 1
277 -111 m 1
 277 -55 l 1
 333 -55 l 1
 333 -111 l 1
 277 -111 l 1
222 -166 m 1
 222 -111 l 1
 277 -111 l 1
 277 -166 l 1
 222 -166 l 1
EndSplineSet
EndChar

StartChar: period
Encoding: 46 46 15
Width: 554
Flags: HW
LayerCount: 2
Back
Fore
SplineSet
222 55 m 1
 222 111 l 1
 333 111 l 1
 333 55 l 1
 222 55 l 1
222 0 m 1
 222 55 l 1
 333 55 l 1
 333 0 l 1
 222 0 l 1
EndSplineSet
EndChar

StartChar: slash
Encoding: 47 47 16
Width: 554
Flags: HW
LayerCount: 2
Back
Fore
SplineSet
443 610 m 1
 443 665 l 1
 554 665 l 1
 554 610 l 1
 443 610 l 1
443 554 m 1
 443 610 l 1
 499 610 l 1
 499 554 l 1
 443 554 l 1
388 499 m 1
 388 554 l 1
 499 554 l 1
 499 499 l 1
 388 499 l 1
388 443 m 1
 388 499 l 1
 443 499 l 1
 443 443 l 1
 388 443 l 1
333 388 m 1
 333 443 l 1
 388 443 l 1
 388 388 l 1
 333 388 l 1
333 333 m 1
 333 388 l 1
 388 388 l 1
 388 333 l 1
 333 333 l 1
277 277 m 1
 277 333 l 1
 333 333 l 1
 333 277 l 1
 277 277 l 1
277 222 m 1
 277 277 l 1
 333 277 l 1
 333 222 l 1
 277 222 l 1
222 166 m 1
 222 222 l 1
 277 222 l 1
 277 166 l 1
 222 166 l 1
222 111 m 1
 222 166 l 1
 277 166 l 1
 277 111 l 1
 222 111 l 1
166 55 m 1
 166 111 l 1
 222 111 l 1
 222 55 l 1
 166 55 l 1
111 0 m 1
 111 55 l 1
 222 55 l 1
 222 0 l 1
 111 0 l 1
111 -55 m 1
 111 0 l 1
 166 0 l 1
 166 -55 l 1
 111 -55 l 1
55 -111 m 1
 55 -55 l 1
 166 -55 l 1
 166 -111 l 1
 55 -111 l 1
EndSplineSet
EndChar

StartChar: zero
Encoding: 48 48 17
Width: 554
Flags: HW
LayerCount: 2
Back
Fore
SplineSet
166 610 m 1
 166 665 l 1
 388 665 l 1
 388 610 l 1
 166 610 l 1
111 554 m 1
 111 610 l 1
 166 610 l 1
 166 554 l 1
 111 554 l 1
333 554 m 1
 333 610 l 1
 443 610 l 1
 443 554 l 1
 333 554 l 1
55 499 m 1
 55 554 l 1
 111 554 l 1
 111 499 l 1
 55 499 l 1
388 499 m 1
 388 554 l 1
 443 554 l 1
 443 499 l 1
 388 499 l 1
55 443 m 1
 55 499 l 1
 111 499 l 1
 111 443 l 1
 55 443 l 1
443 443 m 1
 443 499 l 1
 499 499 l 1
 499 443 l 1
 443 443 l 1
55 388 m 1
 55 443 l 1
 111 443 l 1
 111 388 l 1
 55 388 l 1
443 388 m 1
 443 443 l 1
 499 443 l 1
 499 388 l 1
 443 388 l 1
55 333 m 1
 55 388 l 1
 111 388 l 1
 111 333 l 1
 55 333 l 1
443 333 m 1
 443 388 l 1
 499 388 l 1
 499 333 l 1
 443 333 l 1
55 277 m 1
 55 333 l 1
 111 333 l 1
 111 277 l 1
 55 277 l 1
443 277 m 1
 443 333 l 1
 499 333 l 1
 499 277 l 1
 443 277 l 1
55 222 m 1
 55 277 l 1
 111 277 l 1
 111 222 l 1
 55 222 l 1
443 222 m 1
 443 277 l 1
 499 277 l 1
 499 222 l 1
 443 222 l 1
55 166 m 1
 55 222 l 1
 111 222 l 1
 111 166 l 1
 55 166 l 1
443 166 m 1
 443 222 l 1
 499 222 l 1
 499 166 l 1
 443 166 l 1
55 111 m 1
 55 166 l 1
 111 166 l 1
 111 111 l 1
 55 111 l 1
443 111 m 1
 443 166 l 1
 499 166 l 1
 499 111 l 1
 443 111 l 1
111 55 m 1
 111 111 l 1
 166 111 l 1
 166 55 l 1
 111 55 l 1
388 55 m 1
 388 111 l 1
 443 111 l 1
 443 55 l 1
 388 55 l 1
166 0 m 1
 166 55 l 1
 388 55 l 1
 388 0 l 1
 166 0 l 1
EndSplineSet
EndChar

StartChar: one
Encoding: 49 49 18
Width: 554
Flags: HW
LayerCount: 2
Back
Fore
SplineSet
277 610 m 1
 277 665 l 1
 333 665 l 1
 333 610 l 1
 277 610 l 1
111 554 m 1
 111 610 l 1
 333 610 l 1
 333 554 l 1
 111 554 l 1
277 499 m 1
 277 554 l 1
 333 554 l 1
 333 499 l 1
 277 499 l 1
277 443 m 1
 277 499 l 1
 333 499 l 1
 333 443 l 1
 277 443 l 1
277 388 m 1
 277 443 l 1
 333 443 l 1
 333 388 l 1
 277 388 l 1
277 333 m 1
 277 388 l 1
 333 388 l 1
 333 333 l 1
 277 333 l 1
277 277 m 1
 277 333 l 1
 333 333 l 1
 333 277 l 1
 277 277 l 1
277 222 m 1
 277 277 l 1
 333 277 l 1
 333 222 l 1
 277 222 l 1
277 166 m 1
 277 222 l 1
 333 222 l 1
 333 166 l 1
 277 166 l 1
277 111 m 1
 277 166 l 1
 333 166 l 1
 333 111 l 1
 277 111 l 1
277 55 m 1
 277 111 l 1
 333 111 l 1
 333 55 l 1
 277 55 l 1
111 0 m 1
 111 55 l 1
 499 55 l 1
 499 0 l 1
 111 0 l 1
EndSplineSet
EndChar

StartChar: two
Encoding: 50 50 19
Width: 554
Flags: HW
LayerCount: 2
Back
Fore
SplineSet
166 610 m 1
 166 665 l 1
 388 665 l 1
 388 610 l 1
 166 610 l 1
111 554 m 1
 111 610 l 1
 166 610 l 1
 166 554 l 1
 111 554 l 1
333 554 m 1
 333 610 l 1
 443 610 l 1
 443 554 l 1
 333 554 l 1
388 499 m 1
 388 554 l 1
 443 554 l 1
 443 499 l 1
 388 499 l 1
388 443 m 1
 388 499 l 1
 443 499 l 1
 443 443 l 1
 388 443 l 1
388 388 m 1
 388 443 l 1
 443 443 l 1
 443 388 l 1
 388 388 l 1
333 333 m 1
 333 388 l 1
 388 388 l 1
 388 333 l 1
 333 333 l 1
277 277 m 1
 277 333 l 1
 388 333 l 1
 388 277 l 1
 277 277 l 1
222 222 m 1
 222 277 l 1
 333 277 l 1
 333 222 l 1
 222 222 l 1
166 166 m 1
 166 222 l 1
 277 222 l 1
 277 166 l 1
 166 166 l 1
166 111 m 1
 166 166 l 1
 222 166 l 1
 222 111 l 1
 166 111 l 1
111 55 m 1
 111 111 l 1
 222 111 l 1
 222 55 l 1
 111 55 l 1
111 0 m 1
 111 55 l 1
 443 55 l 1
 443 0 l 1
 111 0 l 1
EndSplineSet
EndChar

StartChar: three
Encoding: 51 51 20
Width: 554
Flags: HW
LayerCount: 2
Back
Fore
SplineSet
111 610 m 1
 111 665 l 1
 388 665 l 1
 388 610 l 1
 111 610 l 1
111 554 m 1
 111 610 l 1
 166 610 l 1
 166 554 l 1
 111 554 l 1
333 554 m 1
 333 610 l 1
 443 610 l 1
 443 554 l 1
 333 554 l 1
388 499 m 1
 388 554 l 1
 443 554 l 1
 443 499 l 1
 388 499 l 1
388 443 m 1
 388 499 l 1
 443 499 l 1
 443 443 l 1
 388 443 l 1
333 388 m 1
 333 443 l 1
 388 443 l 1
 388 388 l 1
 333 388 l 1
166 333 m 1
 166 388 l 1
 333 388 l 1
 333 333 l 1
 166 333 l 1
333 277 m 1
 333 333 l 1
 443 333 l 1
 443 277 l 1
 333 277 l 1
388 222 m 1
 388 277 l 1
 443 277 l 1
 443 222 l 1
 388 222 l 1
388 166 m 1
 388 222 l 1
 443 222 l 1
 443 166 l 1
 388 166 l 1
388 111 m 1
 388 166 l 1
 443 166 l 1
 443 111 l 1
 388 111 l 1
111 55 m 1
 111 111 l 1
 166 111 l 1
 166 55 l 1
 111 55 l 1
333 55 m 1
 333 111 l 1
 388 111 l 1
 388 55 l 1
 333 55 l 1
111 0 m 1
 111 55 l 1
 333 55 l 1
 333 0 l 1
 111 0 l 1
EndSplineSet
EndChar

StartChar: four
Encoding: 52 52 21
Width: 554
Flags: HW
LayerCount: 2
Back
Fore
SplineSet
333 610 m 1
 333 665 l 1
 388 665 l 1
 388 610 l 1
 333 610 l 1
277 554 m 1
 277 610 l 1
 388 610 l 1
 388 554 l 1
 277 554 l 1
222 499 m 1
 222 554 l 1
 388 554 l 1
 388 499 l 1
 222 499 l 1
222 443 m 1
 222 499 l 1
 277 499 l 1
 277 443 l 1
 222 443 l 1
333 443 m 1
 333 499 l 1
 388 499 l 1
 388 443 l 1
 333 443 l 1
166 388 m 1
 166 443 l 1
 222 443 l 1
 222 388 l 1
 166 388 l 1
333 388 m 1
 333 443 l 1
 388 443 l 1
 388 388 l 1
 333 388 l 1
166 333 m 1
 166 388 l 1
 222 388 l 1
 222 333 l 1
 166 333 l 1
333 333 m 1
 333 388 l 1
 388 388 l 1
 388 333 l 1
 333 333 l 1
111 277 m 1
 111 333 l 1
 166 333 l 1
 166 277 l 1
 111 277 l 1
333 277 m 1
 333 333 l 1
 388 333 l 1
 388 277 l 1
 333 277 l 1
55 222 m 1
 55 277 l 1
 111 277 l 1
 111 222 l 1
 55 222 l 1
333 222 m 1
 333 277 l 1
 388 277 l 1
 388 222 l 1
 333 222 l 1
55 166 m 1
 55 222 l 1
 499 222 l 1
 499 166 l 1
 55 166 l 1
333 111 m 1
 333 166 l 1
 388 166 l 1
 388 111 l 1
 333 111 l 1
333 55 m 1
 333 111 l 1
 388 111 l 1
 388 55 l 1
 333 55 l 1
333 0 m 1
 333 55 l 1
 388 55 l 1
 388 0 l 1
 333 0 l 1
EndSplineSet
EndChar

StartChar: five
Encoding: 53 53 22
Width: 554
Flags: HW
LayerCount: 2
Back
Fore
SplineSet
111 610 m 1
 111 665 l 1
 443 665 l 1
 443 610 l 1
 111 610 l 1
111 554 m 1
 111 610 l 1
 166 610 l 1
 166 554 l 1
 111 554 l 1
111 499 m 1
 111 554 l 1
 166 554 l 1
 166 499 l 1
 111 499 l 1
111 443 m 1
 111 499 l 1
 166 499 l 1
 166 443 l 1
 111 443 l 1
111 388 m 1
 111 443 l 1
 333 443 l 1
 333 388 l 1
 111 388 l 1
277 333 m 1
 277 388 l 1
 388 388 l 1
 388 333 l 1
 277 333 l 1
388 277 m 1
 388 333 l 1
 443 333 l 1
 443 277 l 1
 388 277 l 1
388 222 m 1
 388 277 l 1
 443 277 l 1
 443 222 l 1
 388 222 l 1
388 166 m 1
 388 222 l 1
 443 222 l 1
 443 166 l 1
 388 166 l 1
388 111 m 1
 388 166 l 1
 443 166 l 1
 443 111 l 1
 388 111 l 1
111 55 m 1
 111 111 l 1
 166 111 l 1
 166 55 l 1
 111 55 l 1
333 55 m 1
 333 111 l 1
 388 111 l 1
 388 55 l 1
 333 55 l 1
111 0 m 1
 111 55 l 1
 333 55 l 1
 333 0 l 1
 111 0 l 1
EndSplineSet
EndChar

StartChar: six
Encoding: 54 54 23
Width: 554
Flags: HW
LayerCount: 2
Back
Fore
SplineSet
222 610 m 1
 222 665 l 1
 443 665 l 1
 443 610 l 1
 222 610 l 1
166 554 m 1
 166 610 l 1
 222 610 l 1
 222 554 l 1
 166 554 l 1
388 554 m 1
 388 610 l 1
 443 610 l 1
 443 554 l 1
 388 554 l 1
111 499 m 1
 111 554 l 1
 166 554 l 1
 166 499 l 1
 111 499 l 1
55 443 m 1
 55 499 l 1
 111 499 l 1
 111 443 l 1
 55 443 l 1
55 388 m 1
 55 443 l 1
 111 443 l 1
 111 388 l 1
 55 388 l 1
166 388 m 1
 166 443 l 1
 388 443 l 1
 388 388 l 1
 166 388 l 1
55 333 m 1
 55 388 l 1
 166 388 l 1
 166 333 l 1
 55 333 l 1
388 333 m 1
 388 388 l 1
 443 388 l 1
 443 333 l 1
 388 333 l 1
55 277 m 1
 55 333 l 1
 111 333 l 1
 111 277 l 1
 55 277 l 1
443 277 m 1
 443 333 l 1
 499 333 l 1
 499 277 l 1
 443 277 l 1
55 222 m 1
 55 277 l 1
 111 277 l 1
 111 222 l 1
 55 222 l 1
443 222 m 1
 443 277 l 1
 499 277 l 1
 499 222 l 1
 443 222 l 1
55 166 m 1
 55 222 l 1
 111 222 l 1
 111 166 l 1
 55 166 l 1
443 166 m 1
 443 222 l 1
 499 222 l 1
 499 166 l 1
 443 166 l 1
55 111 m 1
 55 166 l 1
 111 166 l 1
 111 111 l 1
 55 111 l 1
443 111 m 1
 443 166 l 1
 499 166 l 1
 499 111 l 1
 443 111 l 1
111 55 m 1
 111 111 l 1
 166 111 l 1
 166 55 l 1
 111 55 l 1
388 55 m 1
 388 111 l 1
 443 111 l 1
 443 55 l 1
 388 55 l 1
166 0 m 1
 166 55 l 1
 388 55 l 1
 388 0 l 1
 166 0 l 1
EndSplineSet
EndChar

StartChar: seven
Encoding: 55 55 24
Width: 554
Flags: HW
LayerCount: 2
Back
Fore
SplineSet
111 610 m 1
 111 665 l 1
 499 665 l 1
 499 610 l 1
 111 610 l 1
388 554 m 1
 388 610 l 1
 499 610 l 1
 499 554 l 1
 388 554 l 1
388 499 m 1
 388 554 l 1
 443 554 l 1
 443 499 l 1
 388 499 l 1
333 443 m 1
 333 499 l 1
 443 499 l 1
 443 443 l 1
 333 443 l 1
333 388 m 1
 333 443 l 1
 388 443 l 1
 388 388 l 1
 333 388 l 1
277 333 m 1
 277 388 l 1
 388 388 l 1
 388 333 l 1
 277 333 l 1
277 277 m 1
 277 333 l 1
 333 333 l 1
 333 277 l 1
 277 277 l 1
222 222 m 1
 222 277 l 1
 333 277 l 1
 333 222 l 1
 222 222 l 1
222 166 m 1
 222 222 l 1
 277 222 l 1
 277 166 l 1
 222 166 l 1
222 111 m 1
 222 166 l 1
 277 166 l 1
 277 111 l 1
 222 111 l 1
166 55 m 1
 166 111 l 1
 222 111 l 1
 222 55 l 1
 166 55 l 1
166 0 m 1
 166 55 l 1
 222 55 l 1
 222 0 l 1
 166 0 l 1
EndSplineSet
EndChar

StartChar: eight
Encoding: 56 56 25
Width: 554
Flags: HW
LayerCount: 2
Back
Fore
SplineSet
166 610 m 1
 166 665 l 1
 443 665 l 1
 443 610 l 1
 166 610 l 1
111 554 m 1
 111 610 l 1
 222 610 l 1
 222 554 l 1
 111 554 l 1
388 554 m 1
 388 610 l 1
 499 610 l 1
 499 554 l 1
 388 554 l 1
111 499 m 1
 111 554 l 1
 166 554 l 1
 166 499 l 1
 111 499 l 1
443 499 m 1
 443 554 l 1
 499 554 l 1
 499 499 l 1
 443 499 l 1
111 443 m 1
 111 499 l 1
 166 499 l 1
 166 443 l 1
 111 443 l 1
443 443 m 1
 443 499 l 1
 499 499 l 1
 499 443 l 1
 443 443 l 1
111 388 m 1
 111 443 l 1
 277 443 l 1
 277 388 l 1
 111 388 l 1
388 388 m 1
 388 443 l 1
 443 443 l 1
 443 388 l 1
 388 388 l 1
166 333 m 1
 166 388 l 1
 388 388 l 1
 388 333 l 1
 166 333 l 1
111 277 m 1
 111 333 l 1
 166 333 l 1
 166 277 l 1
 111 277 l 1
333 277 m 1
 333 333 l 1
 443 333 l 1
 443 277 l 1
 333 277 l 1
55 222 m 1
 55 277 l 1
 111 277 l 1
 111 222 l 1
 55 222 l 1
388 222 m 1
 388 277 l 1
 499 277 l 1
 499 222 l 1
 388 222 l 1
55 166 m 1
 55 222 l 1
 111 222 l 1
 111 166 l 1
 55 166 l 1
443 166 m 1
 443 222 l 1
 499 222 l 1
 499 166 l 1
 443 166 l 1
55 111 m 1
 55 166 l 1
 111 166 l 1
 111 111 l 1
 55 111 l 1
443 111 m 1
 443 166 l 1
 499 166 l 1
 499 111 l 1
 443 111 l 1
111 55 m 1
 111 111 l 1
 166 111 l 1
 166 55 l 1
 111 55 l 1
388 55 m 1
 388 111 l 1
 443 111 l 1
 443 55 l 1
 388 55 l 1
166 0 m 1
 166 55 l 1
 388 55 l 1
 388 0 l 1
 166 0 l 1
EndSplineSet
EndChar

StartChar: nine
Encoding: 57 57 26
Width: 554
Flags: HW
LayerCount: 2
Back
Fore
SplineSet
166 610 m 1
 166 665 l 1
 388 665 l 1
 388 610 l 1
 166 610 l 1
111 554 m 1
 111 610 l 1
 166 610 l 1
 166 554 l 1
 111 554 l 1
388 554 m 1
 388 610 l 1
 443 610 l 1
 443 554 l 1
 388 554 l 1
55 499 m 1
 55 554 l 1
 111 554 l 1
 111 499 l 1
 55 499 l 1
443 499 m 1
 443 554 l 1
 499 554 l 1
 499 499 l 1
 443 499 l 1
55 443 m 1
 55 499 l 1
 111 499 l 1
 111 443 l 1
 55 443 l 1
443 443 m 1
 443 499 l 1
 499 499 l 1
 499 443 l 1
 443 443 l 1
55 388 m 1
 55 443 l 1
 111 443 l 1
 111 388 l 1
 55 388 l 1
443 388 m 1
 443 443 l 1
 499 443 l 1
 499 388 l 1
 443 388 l 1
55 333 m 1
 55 388 l 1
 111 388 l 1
 111 333 l 1
 55 333 l 1
443 333 m 1
 443 388 l 1
 499 388 l 1
 499 333 l 1
 443 333 l 1
111 277 m 1
 111 333 l 1
 166 333 l 1
 166 277 l 1
 111 277 l 1
388 277 m 1
 388 333 l 1
 499 333 l 1
 499 277 l 1
 388 277 l 1
166 222 m 1
 166 277 l 1
 388 277 l 1
 388 222 l 1
 166 222 l 1
443 222 m 1
 443 277 l 1
 499 277 l 1
 499 222 l 1
 443 222 l 1
443 166 m 1
 443 222 l 1
 499 222 l 1
 499 166 l 1
 443 166 l 1
388 111 m 1
 388 166 l 1
 443 166 l 1
 443 111 l 1
 388 111 l 1
111 55 m 1
 111 111 l 1
 166 111 l 1
 166 55 l 1
 111 55 l 1
333 55 m 1
 333 111 l 1
 388 111 l 1
 388 55 l 1
 333 55 l 1
111 0 m 1
 111 55 l 1
 333 55 l 1
 333 0 l 1
 111 0 l 1
EndSplineSet
EndChar

StartChar: colon
Encoding: 58 58 27
Width: 554
Flags: HW
LayerCount: 2
Back
Fore
SplineSet
222 443 m 1
 222 499 l 1
 333 499 l 1
 333 443 l 1
 222 443 l 1
222 388 m 1
 222 443 l 1
 333 443 l 1
 333 388 l 1
 222 388 l 1
222 55 m 1
 222 111 l 1
 333 111 l 1
 333 55 l 1
 222 55 l 1
222 0 m 1
 222 55 l 1
 333 55 l 1
 333 0 l 1
 222 0 l 1
EndSplineSet
EndChar

StartChar: semicolon
Encoding: 59 59 28
Width: 554
Flags: HW
LayerCount: 2
Back
Fore
SplineSet
222 443 m 1
 222 499 l 1
 333 499 l 1
 333 443 l 1
 222 443 l 1
222 388 m 1
 222 443 l 1
 333 443 l 1
 333 388 l 1
 222 388 l 1
222 55 m 1
 222 111 l 1
 333 111 l 1
 333 55 l 1
 222 55 l 1
222 0 m 1
 222 55 l 1
 333 55 l 1
 333 0 l 1
 222 0 l 1
277 -55 m 1
 277 0 l 1
 333 0 l 1
 333 -55 l 1
 277 -55 l 1
277 -111 m 1
 277 -55 l 1
 333 -55 l 1
 333 -111 l 1
 277 -111 l 1
222 -166 m 1
 222 -111 l 1
 277 -111 l 1
 277 -166 l 1
 222 -166 l 1
EndSplineSet
EndChar

StartChar: less
Encoding: 60 60 29
Width: 554
Flags: HW
LayerCount: 2
Back
Fore
SplineSet
499 443 m 1
 499 499 l 1
 554 499 l 1
 554 443 l 1
 499 443 l 1
388 388 m 1
 388 443 l 1
 554 443 l 1
 554 388 l 1
 388 388 l 1
277 333 m 1
 277 388 l 1
 443 388 l 1
 443 333 l 1
 277 333 l 1
166 277 m 1
 166 333 l 1
 333 333 l 1
 333 277 l 1
 166 277 l 1
55 222 m 1
 55 277 l 1
 222 277 l 1
 222 222 l 1
 55 222 l 1
166 166 m 1
 166 222 l 1
 333 222 l 1
 333 166 l 1
 166 166 l 1
277 111 m 1
 277 166 l 1
 443 166 l 1
 443 111 l 1
 277 111 l 1
388 55 m 1
 388 111 l 1
 554 111 l 1
 554 55 l 1
 388 55 l 1
499 0 m 1
 499 55 l 1
 554 55 l 1
 554 0 l 1
 499 0 l 1
EndSplineSet
EndChar

StartChar: equal
Encoding: 61 61 30
Width: 554
Flags: HW
LayerCount: 2
Back
Fore
SplineSet
55 333 m 1
 55 388 l 1
 554 388 l 1
 554 333 l 1
 55 333 l 1
55 111 m 1
 55 166 l 1
 554 166 l 1
 554 111 l 1
 55 111 l 1
EndSplineSet
EndChar

StartChar: greater
Encoding: 62 62 31
Width: 554
Flags: HW
LayerCount: 2
Back
Fore
SplineSet
55 443 m 1
 55 499 l 1
 111 499 l 1
 111 443 l 1
 55 443 l 1
55 388 m 1
 55 443 l 1
 222 443 l 1
 222 388 l 1
 55 388 l 1
166 333 m 1
 166 388 l 1
 333 388 l 1
 333 333 l 1
 166 333 l 1
277 277 m 1
 277 333 l 1
 443 333 l 1
 443 277 l 1
 277 277 l 1
388 222 m 1
 388 277 l 1
 554 277 l 1
 554 222 l 1
 388 222 l 1
277 166 m 1
 277 222 l 1
 443 222 l 1
 443 166 l 1
 277 166 l 1
166 111 m 1
 166 166 l 1
 333 166 l 1
 333 111 l 1
 166 111 l 1
55 55 m 1
 55 111 l 1
 222 111 l 1
 222 55 l 1
 55 55 l 1
55 0 m 1
 55 55 l 1
 111 55 l 1
 111 0 l 1
 55 0 l 1
EndSplineSet
EndChar

StartChar: question
Encoding: 63 63 32
Width: 554
Flags: HW
LayerCount: 2
Back
Fore
SplineSet
111 610 m 1
 111 665 l 1
 443 665 l 1
 443 610 l 1
 111 610 l 1
111 554 m 1
 111 610 l 1
 166 610 l 1
 166 554 l 1
 111 554 l 1
388 554 m 1
 388 610 l 1
 499 610 l 1
 499 554 l 1
 388 554 l 1
111 499 m 1
 111 554 l 1
 166 554 l 1
 166 499 l 1
 111 499 l 1
443 499 m 1
 443 554 l 1
 499 554 l 1
 499 499 l 1
 443 499 l 1
443 443 m 1
 443 499 l 1
 499 499 l 1
 499 443 l 1
 443 443 l 1
388 388 m 1
 388 443 l 1
 443 443 l 1
 443 388 l 1
 388 388 l 1
333 333 m 1
 333 388 l 1
 388 388 l 1
 388 333 l 1
 333 333 l 1
277 277 m 1
 277 333 l 1
 333 333 l 1
 333 277 l 1
 277 277 l 1
277 222 m 1
 277 277 l 1
 333 277 l 1
 333 222 l 1
 277 222 l 1
277 166 m 1
 277 222 l 1
 333 222 l 1
 333 166 l 1
 277 166 l 1
277 0 m 1
 277 55 l 1
 333 55 l 1
 333 0 l 1
 277 0 l 1
EndSplineSet
EndChar

StartChar: at
Encoding: 64 64 33
Width: 554
Flags: HW
LayerCount: 2
Back
Fore
SplineSet
222 610 m 1
 222 665 l 1
 443 665 l 1
 443 610 l 1
 222 610 l 1
166 554 m 1
 166 610 l 1
 222 610 l 1
 222 554 l 1
 166 554 l 1
443 554 m 1
 443 610 l 1
 499 610 l 1
 499 554 l 1
 443 554 l 1
111 499 m 1
 111 554 l 1
 166 554 l 1
 166 499 l 1
 111 499 l 1
333 499 m 1
 333 554 l 1
 499 554 l 1
 499 499 l 1
 333 499 l 1
55 443 m 1
 55 499 l 1
 111 499 l 1
 111 443 l 1
 55 443 l 1
277 443 m 1
 277 499 l 1
 333 499 l 1
 333 443 l 1
 277 443 l 1
443 443 m 1
 443 499 l 1
 499 499 l 1
 499 443 l 1
 443 443 l 1
55 388 m 1
 55 443 l 1
 111 443 l 1
 111 388 l 1
 55 388 l 1
222 388 m 1
 222 443 l 1
 277 443 l 1
 277 388 l 1
 222 388 l 1
443 388 m 1
 443 443 l 1
 499 443 l 1
 499 388 l 1
 443 388 l 1
55 333 m 1
 55 388 l 1
 111 388 l 1
 111 333 l 1
 55 333 l 1
222 333 m 1
 222 388 l 1
 277 388 l 1
 277 333 l 1
 222 333 l 1
443 333 m 1
 443 388 l 1
 499 388 l 1
 499 333 l 1
 443 333 l 1
55 277 m 1
 55 333 l 1
 111 333 l 1
 111 277 l 1
 55 277 l 1
222 277 m 1
 222 333 l 1
 277 333 l 1
 277 277 l 1
 222 277 l 1
388 277 m 1
 388 333 l 1
 499 333 l 1
 499 277 l 1
 388 277 l 1
55 222 m 1
 55 277 l 1
 111 277 l 1
 111 222 l 1
 55 222 l 1
222 222 m 1
 222 277 l 1
 277 277 l 1
 277 222 l 1
 222 222 l 1
388 222 m 1
 388 277 l 1
 499 277 l 1
 499 222 l 1
 388 222 l 1
55 166 m 1
 55 222 l 1
 111 222 l 1
 111 166 l 1
 55 166 l 1
222 166 m 1
 222 222 l 1
 277 222 l 1
 277 166 l 1
 222 166 l 1
333 166 m 1
 333 222 l 1
 499 222 l 1
 499 166 l 1
 333 166 l 1
111 111 m 1
 111 166 l 1
 166 166 l 1
 166 111 l 1
 111 111 l 1
277 111 m 1
 277 166 l 1
 388 166 l 1
 388 111 l 1
 277 111 l 1
443 111 m 1
 443 166 l 1
 554 166 l 1
 554 111 l 1
 443 111 l 1
111 55 m 1
 111 111 l 1
 222 111 l 1
 222 55 l 1
 111 55 l 1
388 55 m 1
 388 111 l 1
 443 111 l 1
 443 55 l 1
 388 55 l 1
222 0 m 1
 222 55 l 1
 443 55 l 1
 443 0 l 1
 222 0 l 1
EndSplineSet
EndChar

StartChar: A
Encoding: 65 65 34
Width: 554
Flags: HW
LayerCount: 2
Back
Fore
SplineSet
222 610 m 1
 222 665 l 1
 333 665 l 1
 333 610 l 1
 222 610 l 1
222 554 m 1
 222 610 l 1
 333 610 l 1
 333 554 l 1
 222 554 l 1
222 499 m 1
 222 554 l 1
 333 554 l 1
 333 499 l 1
 222 499 l 1
166 443 m 1
 166 499 l 1
 222 499 l 1
 222 443 l 1
 166 443 l 1
333 443 m 1
 333 499 l 1
 388 499 l 1
 388 443 l 1
 333 443 l 1
166 388 m 1
 166 443 l 1
 222 443 l 1
 222 388 l 1
 166 388 l 1
333 388 m 1
 333 443 l 1
 388 443 l 1
 388 388 l 1
 333 388 l 1
166 333 m 1
 166 388 l 1
 222 388 l 1
 222 333 l 1
 166 333 l 1
333 333 m 1
 333 388 l 1
 388 388 l 1
 388 333 l 1
 333 333 l 1
111 277 m 1
 111 333 l 1
 166 333 l 1
 166 277 l 1
 111 277 l 1
388 277 m 1
 388 333 l 1
 443 333 l 1
 443 277 l 1
 388 277 l 1
111 222 m 1
 111 277 l 1
 166 277 l 1
 166 222 l 1
 111 222 l 1
388 222 m 1
 388 277 l 1
 443 277 l 1
 443 222 l 1
 388 222 l 1
55 166 m 1
 55 222 l 1
 443 222 l 1
 443 166 l 1
 55 166 l 1
55 111 m 1
 55 166 l 1
 111 166 l 1
 111 111 l 1
 55 111 l 1
443 111 m 1
 443 166 l 1
 499 166 l 1
 499 111 l 1
 443 111 l 1
55 55 m 1
 55 111 l 1
 111 111 l 1
 111 55 l 1
 55 55 l 1
443 55 m 1
 443 111 l 1
 499 111 l 1
 499 55 l 1
 443 55 l 1
0 0 m 1
 0 55 l 1
 55 55 l 1
 55 0 l 1
 0 0 l 1
443 0 m 1
 443 55 l 1
 554 55 l 1
 554 0 l 1
 443 0 l 1
EndSplineSet
EndChar

StartChar: B
Encoding: 66 66 35
Width: 554
Flags: HW
LayerCount: 2
Back
Fore
SplineSet
55 610 m 1
 55 665 l 1
 443 665 l 1
 443 610 l 1
 55 610 l 1
55 554 m 1
 55 610 l 1
 111 610 l 1
 111 554 l 1
 55 554 l 1
388 554 m 1
 388 610 l 1
 499 610 l 1
 499 554 l 1
 388 554 l 1
55 499 m 1
 55 554 l 1
 111 554 l 1
 111 499 l 1
 55 499 l 1
443 499 m 1
 443 554 l 1
 499 554 l 1
 499 499 l 1
 443 499 l 1
55 443 m 1
 55 499 l 1
 111 499 l 1
 111 443 l 1
 55 443 l 1
443 443 m 1
 443 499 l 1
 499 499 l 1
 499 443 l 1
 443 443 l 1
55 388 m 1
 55 443 l 1
 111 443 l 1
 111 388 l 1
 55 388 l 1
333 388 m 1
 333 443 l 1
 499 443 l 1
 499 388 l 1
 333 388 l 1
55 333 m 1
 55 388 l 1
 388 388 l 1
 388 333 l 1
 55 333 l 1
55 277 m 1
 55 333 l 1
 111 333 l 1
 111 277 l 1
 55 277 l 1
333 277 m 1
 333 333 l 1
 443 333 l 1
 443 277 l 1
 333 277 l 1
55 222 m 1
 55 277 l 1
 111 277 l 1
 111 222 l 1
 55 222 l 1
388 222 m 1
 388 277 l 1
 499 277 l 1
 499 222 l 1
 388 222 l 1
55 166 m 1
 55 222 l 1
 111 222 l 1
 111 166 l 1
 55 166 l 1
443 166 m 1
 443 222 l 1
 499 222 l 1
 499 166 l 1
 443 166 l 1
55 111 m 1
 55 166 l 1
 111 166 l 1
 111 111 l 1
 55 111 l 1
443 111 m 1
 443 166 l 1
 499 166 l 1
 499 111 l 1
 443 111 l 1
55 55 m 1
 55 111 l 1
 111 111 l 1
 111 55 l 1
 55 55 l 1
388 55 m 1
 388 111 l 1
 499 111 l 1
 499 55 l 1
 388 55 l 1
55 0 m 1
 55 55 l 1
 443 55 l 1
 443 0 l 1
 55 0 l 1
EndSplineSet
EndChar

StartChar: C
Encoding: 67 67 36
Width: 554
Flags: HW
LayerCount: 2
Back
Fore
SplineSet
222 610 m 1
 222 665 l 1
 554 665 l 1
 554 610 l 1
 222 610 l 1
166 554 m 1
 166 610 l 1
 222 610 l 1
 222 554 l 1
 166 554 l 1
499 554 m 1
 499 610 l 1
 554 610 l 1
 554 554 l 1
 499 554 l 1
111 499 m 1
 111 554 l 1
 166 554 l 1
 166 499 l 1
 111 499 l 1
55 443 m 1
 55 499 l 1
 166 499 l 1
 166 443 l 1
 55 443 l 1
55 388 m 1
 55 443 l 1
 111 443 l 1
 111 388 l 1
 55 388 l 1
55 333 m 1
 55 388 l 1
 111 388 l 1
 111 333 l 1
 55 333 l 1
55 277 m 1
 55 333 l 1
 111 333 l 1
 111 277 l 1
 55 277 l 1
55 222 m 1
 55 277 l 1
 111 277 l 1
 111 222 l 1
 55 222 l 1
55 166 m 1
 55 222 l 1
 166 222 l 1
 166 166 l 1
 55 166 l 1
111 111 m 1
 111 166 l 1
 166 166 l 1
 166 111 l 1
 111 111 l 1
166 55 m 1
 166 111 l 1
 277 111 l 1
 277 55 l 1
 166 55 l 1
499 55 m 1
 499 111 l 1
 554 111 l 1
 554 55 l 1
 499 55 l 1
222 0 m 1
 222 55 l 1
 554 55 l 1
 554 0 l 1
 222 0 l 1
EndSplineSet
EndChar

StartChar: D
Encoding: 68 68 37
Width: 554
Flags: HW
LayerCount: 2
Back
Fore
SplineSet
55 610 m 1
 55 665 l 1
 443 665 l 1
 443 610 l 1
 55 610 l 1
55 554 m 1
 55 610 l 1
 111 610 l 1
 111 554 l 1
 55 554 l 1
388 554 m 1
 388 610 l 1
 499 610 l 1
 499 554 l 1
 388 554 l 1
55 499 m 1
 55 554 l 1
 111 554 l 1
 111 499 l 1
 55 499 l 1
443 499 m 1
 443 554 l 1
 554 554 l 1
 554 499 l 1
 443 499 l 1
55 443 m 1
 55 499 l 1
 111 499 l 1
 111 443 l 1
 55 443 l 1
499 443 m 1
 499 499 l 1
 554 499 l 1
 554 443 l 1
 499 443 l 1
55 388 m 1
 55 443 l 1
 111 443 l 1
 111 388 l 1
 55 388 l 1
499 388 m 1
 499 443 l 1
 554 443 l 1
 554 388 l 1
 499 388 l 1
55 333 m 1
 55 388 l 1
 111 388 l 1
 111 333 l 1
 55 333 l 1
499 333 m 1
 499 388 l 1
 554 388 l 1
 554 333 l 1
 499 333 l 1
55 277 m 1
 55 333 l 1
 111 333 l 1
 111 277 l 1
 55 277 l 1
499 277 m 1
 499 333 l 1
 554 333 l 1
 554 277 l 1
 499 277 l 1
55 222 m 1
 55 277 l 1
 111 277 l 1
 111 222 l 1
 55 222 l 1
499 222 m 1
 499 277 l 1
 554 277 l 1
 554 222 l 1
 499 222 l 1
55 166 m 1
 55 222 l 1
 111 222 l 1
 111 166 l 1
 55 166 l 1
499 166 m 1
 499 222 l 1
 554 222 l 1
 554 166 l 1
 499 166 l 1
55 111 m 1
 55 166 l 1
 111 166 l 1
 111 111 l 1
 55 111 l 1
443 111 m 1
 443 166 l 1
 499 166 l 1
 499 111 l 1
 443 111 l 1
55 55 m 1
 55 111 l 1
 111 111 l 1
 111 55 l 1
 55 55 l 1
388 55 m 1
 388 111 l 1
 499 111 l 1
 499 55 l 1
 388 55 l 1
55 0 m 1
 55 55 l 1
 388 55 l 1
 388 0 l 1
 55 0 l 1
EndSplineSet
EndChar

StartChar: E
Encoding: 69 69 38
Width: 554
Flags: HW
LayerCount: 2
Back
Fore
SplineSet
111 610 m 1
 111 665 l 1
 499 665 l 1
 499 610 l 1
 111 610 l 1
111 554 m 1
 111 610 l 1
 166 610 l 1
 166 554 l 1
 111 554 l 1
111 499 m 1
 111 554 l 1
 166 554 l 1
 166 499 l 1
 111 499 l 1
111 443 m 1
 111 499 l 1
 166 499 l 1
 166 443 l 1
 111 443 l 1
111 388 m 1
 111 443 l 1
 166 443 l 1
 166 388 l 1
 111 388 l 1
111 333 m 1
 111 388 l 1
 443 388 l 1
 443 333 l 1
 111 333 l 1
111 277 m 1
 111 333 l 1
 166 333 l 1
 166 277 l 1
 111 277 l 1
111 222 m 1
 111 277 l 1
 166 277 l 1
 166 222 l 1
 111 222 l 1
111 166 m 1
 111 222 l 1
 166 222 l 1
 166 166 l 1
 111 166 l 1
111 111 m 1
 111 166 l 1
 166 166 l 1
 166 111 l 1
 111 111 l 1
111 55 m 1
 111 111 l 1
 166 111 l 1
 166 55 l 1
 111 55 l 1
111 0 m 1
 111 55 l 1
 499 55 l 1
 499 0 l 1
 111 0 l 1
EndSplineSet
EndChar

StartChar: F
Encoding: 70 70 39
Width: 554
Flags: HW
LayerCount: 2
Back
Fore
SplineSet
111 610 m 1
 111 665 l 1
 499 665 l 1
 499 610 l 1
 111 610 l 1
111 554 m 1
 111 610 l 1
 166 610 l 1
 166 554 l 1
 111 554 l 1
111 499 m 1
 111 554 l 1
 166 554 l 1
 166 499 l 1
 111 499 l 1
111 443 m 1
 111 499 l 1
 166 499 l 1
 166 443 l 1
 111 443 l 1
111 388 m 1
 111 443 l 1
 166 443 l 1
 166 388 l 1
 111 388 l 1
111 333 m 1
 111 388 l 1
 166 388 l 1
 166 333 l 1
 111 333 l 1
111 277 m 1
 111 333 l 1
 443 333 l 1
 443 277 l 1
 111 277 l 1
111 222 m 1
 111 277 l 1
 166 277 l 1
 166 222 l 1
 111 222 l 1
111 166 m 1
 111 222 l 1
 166 222 l 1
 166 166 l 1
 111 166 l 1
111 111 m 1
 111 166 l 1
 166 166 l 1
 166 111 l 1
 111 111 l 1
111 55 m 1
 111 111 l 1
 166 111 l 1
 166 55 l 1
 111 55 l 1
111 0 m 1
 111 55 l 1
 166 55 l 1
 166 0 l 1
 111 0 l 1
EndSplineSet
EndChar

StartChar: G
Encoding: 71 71 40
Width: 554
Flags: HW
LayerCount: 2
Back
Fore
SplineSet
166 610 m 1
 166 665 l 1
 499 665 l 1
 499 610 l 1
 166 610 l 1
111 554 m 1
 111 610 l 1
 166 610 l 1
 166 554 l 1
 111 554 l 1
443 554 m 1
 443 610 l 1
 499 610 l 1
 499 554 l 1
 443 554 l 1
55 499 m 1
 55 554 l 1
 111 554 l 1
 111 499 l 1
 55 499 l 1
0 443 m 1
 0 499 l 1
 55 499 l 1
 55 443 l 1
 0 443 l 1
0 388 m 1
 0 443 l 1
 55 443 l 1
 55 388 l 1
 0 388 l 1
0 333 m 1
 0 388 l 1
 55 388 l 1
 55 333 l 1
 0 333 l 1
0 277 m 1
 0 333 l 1
 55 333 l 1
 55 277 l 1
 0 277 l 1
0 222 m 1
 0 277 l 1
 55 277 l 1
 55 222 l 1
 0 222 l 1
443 222 m 1
 443 277 l 1
 499 277 l 1
 499 222 l 1
 443 222 l 1
0 166 m 1
 0 222 l 1
 111 222 l 1
 111 166 l 1
 0 166 l 1
443 166 m 1
 443 222 l 1
 499 222 l 1
 499 166 l 1
 443 166 l 1
55 111 m 1
 55 166 l 1
 111 166 l 1
 111 111 l 1
 55 111 l 1
443 111 m 1
 443 166 l 1
 499 166 l 1
 499 111 l 1
 443 111 l 1
111 55 m 1
 111 111 l 1
 222 111 l 1
 222 55 l 1
 111 55 l 1
443 55 m 1
 443 111 l 1
 499 111 l 1
 499 55 l 1
 443 55 l 1
166 0 m 1
 166 55 l 1
 499 55 l 1
 499 0 l 1
 166 0 l 1
EndSplineSet
EndChar

StartChar: H
Encoding: 72 72 41
Width: 554
Flags: HW
LayerCount: 2
Back
Fore
SplineSet
55 610 m 1
 55 665 l 1
 111 665 l 1
 111 610 l 1
 55 610 l 1
443 610 m 1
 443 665 l 1
 499 665 l 1
 499 610 l 1
 443 610 l 1
55 554 m 1
 55 610 l 1
 111 610 l 1
 111 554 l 1
 55 554 l 1
443 554 m 1
 443 610 l 1
 499 610 l 1
 499 554 l 1
 443 554 l 1
55 499 m 1
 55 554 l 1
 111 554 l 1
 111 499 l 1
 55 499 l 1
443 499 m 1
 443 554 l 1
 499 554 l 1
 499 499 l 1
 443 499 l 1
55 443 m 1
 55 499 l 1
 111 499 l 1
 111 443 l 1
 55 443 l 1
443 443 m 1
 443 499 l 1
 499 499 l 1
 499 443 l 1
 443 443 l 1
55 388 m 1
 55 443 l 1
 111 443 l 1
 111 388 l 1
 55 388 l 1
443 388 m 1
 443 443 l 1
 499 443 l 1
 499 388 l 1
 443 388 l 1
55 333 m 1
 55 388 l 1
 499 388 l 1
 499 333 l 1
 55 333 l 1
55 277 m 1
 55 333 l 1
 111 333 l 1
 111 277 l 1
 55 277 l 1
443 277 m 1
 443 333 l 1
 499 333 l 1
 499 277 l 1
 443 277 l 1
55 222 m 1
 55 277 l 1
 111 277 l 1
 111 222 l 1
 55 222 l 1
443 222 m 1
 443 277 l 1
 499 277 l 1
 499 222 l 1
 443 222 l 1
55 166 m 1
 55 222 l 1
 111 222 l 1
 111 166 l 1
 55 166 l 1
443 166 m 1
 443 222 l 1
 499 222 l 1
 499 166 l 1
 443 166 l 1
55 111 m 1
 55 166 l 1
 111 166 l 1
 111 111 l 1
 55 111 l 1
443 111 m 1
 443 166 l 1
 499 166 l 1
 499 111 l 1
 443 111 l 1
55 55 m 1
 55 111 l 1
 111 111 l 1
 111 55 l 1
 55 55 l 1
443 55 m 1
 443 111 l 1
 499 111 l 1
 499 55 l 1
 443 55 l 1
55 0 m 1
 55 55 l 1
 111 55 l 1
 111 0 l 1
 55 0 l 1
443 0 m 1
 443 55 l 1
 499 55 l 1
 499 0 l 1
 443 0 l 1
EndSplineSet
EndChar

StartChar: I
Encoding: 73 73 42
Width: 554
Flags: HW
LayerCount: 2
Back
Fore
SplineSet
111 610 m 1
 111 665 l 1
 499 665 l 1
 499 610 l 1
 111 610 l 1
277 554 m 1
 277 610 l 1
 333 610 l 1
 333 554 l 1
 277 554 l 1
277 499 m 1
 277 554 l 1
 333 554 l 1
 333 499 l 1
 277 499 l 1
277 443 m 1
 277 499 l 1
 333 499 l 1
 333 443 l 1
 277 443 l 1
277 388 m 1
 277 443 l 1
 333 443 l 1
 333 388 l 1
 277 388 l 1
277 333 m 1
 277 388 l 1
 333 388 l 1
 333 333 l 1
 277 333 l 1
277 277 m 1
 277 333 l 1
 333 333 l 1
 333 277 l 1
 277 277 l 1
277 222 m 1
 277 277 l 1
 333 277 l 1
 333 222 l 1
 277 222 l 1
277 166 m 1
 277 222 l 1
 333 222 l 1
 333 166 l 1
 277 166 l 1
277 111 m 1
 277 166 l 1
 333 166 l 1
 333 111 l 1
 277 111 l 1
277 55 m 1
 277 111 l 1
 333 111 l 1
 333 55 l 1
 277 55 l 1
111 0 m 1
 111 55 l 1
 499 55 l 1
 499 0 l 1
 111 0 l 1
EndSplineSet
EndChar

StartChar: J
Encoding: 74 74 43
Width: 554
Flags: HW
LayerCount: 2
Back
Fore
SplineSet
166 610 m 1
 166 665 l 1
 388 665 l 1
 388 610 l 1
 166 610 l 1
333 554 m 1
 333 610 l 1
 388 610 l 1
 388 554 l 1
 333 554 l 1
333 499 m 1
 333 554 l 1
 388 554 l 1
 388 499 l 1
 333 499 l 1
333 443 m 1
 333 499 l 1
 388 499 l 1
 388 443 l 1
 333 443 l 1
333 388 m 1
 333 443 l 1
 388 443 l 1
 388 388 l 1
 333 388 l 1
333 333 m 1
 333 388 l 1
 388 388 l 1
 388 333 l 1
 333 333 l 1
333 277 m 1
 333 333 l 1
 388 333 l 1
 388 277 l 1
 333 277 l 1
333 222 m 1
 333 277 l 1
 388 277 l 1
 388 222 l 1
 333 222 l 1
333 166 m 1
 333 222 l 1
 388 222 l 1
 388 166 l 1
 333 166 l 1
333 111 m 1
 333 166 l 1
 388 166 l 1
 388 111 l 1
 333 111 l 1
111 55 m 1
 111 111 l 1
 166 111 l 1
 166 55 l 1
 111 55 l 1
333 55 m 1
 333 111 l 1
 388 111 l 1
 388 55 l 1
 333 55 l 1
111 0 m 1
 111 55 l 1
 333 55 l 1
 333 0 l 1
 111 0 l 1
EndSplineSet
EndChar

StartChar: K
Encoding: 75 75 44
Width: 554
Flags: HW
LayerCount: 2
Back
Fore
SplineSet
55 610 m 1
 55 665 l 1
 111 665 l 1
 111 610 l 1
 55 610 l 1
388 610 m 1
 388 665 l 1
 499 665 l 1
 499 610 l 1
 388 610 l 1
55 554 m 1
 55 610 l 1
 111 610 l 1
 111 554 l 1
 55 554 l 1
333 554 m 1
 333 610 l 1
 443 610 l 1
 443 554 l 1
 333 554 l 1
55 499 m 1
 55 554 l 1
 111 554 l 1
 111 499 l 1
 55 499 l 1
277 499 m 1
 277 554 l 1
 388 554 l 1
 388 499 l 1
 277 499 l 1
55 443 m 1
 55 499 l 1
 111 499 l 1
 111 443 l 1
 55 443 l 1
222 443 m 1
 222 499 l 1
 333 499 l 1
 333 443 l 1
 222 443 l 1
55 388 m 1
 55 443 l 1
 111 443 l 1
 111 388 l 1
 55 388 l 1
222 388 m 1
 222 443 l 1
 277 443 l 1
 277 388 l 1
 222 388 l 1
55 333 m 1
 55 388 l 1
 111 388 l 1
 111 333 l 1
 55 333 l 1
166 333 m 1
 166 388 l 1
 222 388 l 1
 222 333 l 1
 166 333 l 1
55 277 m 1
 55 333 l 1
 222 333 l 1
 222 277 l 1
 55 277 l 1
55 222 m 1
 55 277 l 1
 111 277 l 1
 111 222 l 1
 55 222 l 1
222 222 m 1
 222 277 l 1
 277 277 l 1
 277 222 l 1
 222 222 l 1
55 166 m 1
 55 222 l 1
 111 222 l 1
 111 166 l 1
 55 166 l 1
277 166 m 1
 277 222 l 1
 333 222 l 1
 333 166 l 1
 277 166 l 1
55 111 m 1
 55 166 l 1
 111 166 l 1
 111 111 l 1
 55 111 l 1
333 111 m 1
 333 166 l 1
 388 166 l 1
 388 111 l 1
 333 111 l 1
55 55 m 1
 55 111 l 1
 111 111 l 1
 111 55 l 1
 55 55 l 1
388 55 m 1
 388 111 l 1
 443 111 l 1
 443 55 l 1
 388 55 l 1
55 0 m 1
 55 55 l 1
 111 55 l 1
 111 0 l 1
 55 0 l 1
443 0 m 1
 443 55 l 1
 554 55 l 1
 554 0 l 1
 443 0 l 1
EndSplineSet
EndChar

StartChar: L
Encoding: 76 76 45
Width: 554
Flags: HW
LayerCount: 2
Back
Fore
SplineSet
111 610 m 1
 111 665 l 1
 166 665 l 1
 166 610 l 1
 111 610 l 1
111 554 m 1
 111 610 l 1
 166 610 l 1
 166 554 l 1
 111 554 l 1
111 499 m 1
 111 554 l 1
 166 554 l 1
 166 499 l 1
 111 499 l 1
111 443 m 1
 111 499 l 1
 166 499 l 1
 166 443 l 1
 111 443 l 1
111 388 m 1
 111 443 l 1
 166 443 l 1
 166 388 l 1
 111 388 l 1
111 333 m 1
 111 388 l 1
 166 388 l 1
 166 333 l 1
 111 333 l 1
111 277 m 1
 111 333 l 1
 166 333 l 1
 166 277 l 1
 111 277 l 1
111 222 m 1
 111 277 l 1
 166 277 l 1
 166 222 l 1
 111 222 l 1
111 166 m 1
 111 222 l 1
 166 222 l 1
 166 166 l 1
 111 166 l 1
111 111 m 1
 111 166 l 1
 166 166 l 1
 166 111 l 1
 111 111 l 1
111 55 m 1
 111 111 l 1
 166 111 l 1
 166 55 l 1
 111 55 l 1
111 0 m 1
 111 55 l 1
 499 55 l 1
 499 0 l 1
 111 0 l 1
EndSplineSet
EndChar

StartChar: M
Encoding: 77 77 46
Width: 554
Flags: HW
LayerCount: 2
Back
Fore
SplineSet
55 610 m 1
 55 665 l 1
 166 665 l 1
 166 610 l 1
 55 610 l 1
443 610 m 1
 443 665 l 1
 554 665 l 1
 554 610 l 1
 443 610 l 1
55 554 m 1
 55 610 l 1
 166 610 l 1
 166 554 l 1
 55 554 l 1
443 554 m 1
 443 610 l 1
 554 610 l 1
 554 554 l 1
 443 554 l 1
55 499 m 1
 55 554 l 1
 222 554 l 1
 222 499 l 1
 55 499 l 1
388 499 m 1
 388 554 l 1
 554 554 l 1
 554 499 l 1
 388 499 l 1
55 443 m 1
 55 499 l 1
 111 499 l 1
 111 443 l 1
 55 443 l 1
166 443 m 1
 166 499 l 1
 222 499 l 1
 222 443 l 1
 166 443 l 1
388 443 m 1
 388 499 l 1
 443 499 l 1
 443 443 l 1
 388 443 l 1
499 443 m 1
 499 499 l 1
 554 499 l 1
 554 443 l 1
 499 443 l 1
55 388 m 1
 55 443 l 1
 111 443 l 1
 111 388 l 1
 55 388 l 1
166 388 m 1
 166 443 l 1
 222 443 l 1
 222 388 l 1
 166 388 l 1
388 388 m 1
 388 443 l 1
 443 443 l 1
 443 388 l 1
 388 388 l 1
499 388 m 1
 499 443 l 1
 554 443 l 1
 554 388 l 1
 499 388 l 1
55 333 m 1
 55 388 l 1
 111 388 l 1
 111 333 l 1
 55 333 l 1
166 333 m 1
 166 388 l 1
 222 388 l 1
 222 333 l 1
 166 333 l 1
388 333 m 1
 388 388 l 1
 443 388 l 1
 443 333 l 1
 388 333 l 1
499 333 m 1
 499 388 l 1
 554 388 l 1
 554 333 l 1
 499 333 l 1
55 277 m 1
 55 333 l 1
 111 333 l 1
 111 277 l 1
 55 277 l 1
222 277 m 1
 222 333 l 1
 277 333 l 1
 277 277 l 1
 222 277 l 1
333 277 m 1
 333 333 l 1
 388 333 l 1
 388 277 l 1
 333 277 l 1
499 277 m 1
 499 333 l 1
 554 333 l 1
 554 277 l 1
 499 277 l 1
55 222 m 1
 55 277 l 1
 111 277 l 1
 111 222 l 1
 55 222 l 1
222 222 m 1
 222 277 l 1
 277 277 l 1
 277 222 l 1
 222 222 l 1
333 222 m 1
 333 277 l 1
 388 277 l 1
 388 222 l 1
 333 222 l 1
499 222 m 1
 499 277 l 1
 554 277 l 1
 554 222 l 1
 499 222 l 1
55 166 m 1
 55 222 l 1
 111 222 l 1
 111 166 l 1
 55 166 l 1
222 166 m 1
 222 222 l 1
 277 222 l 1
 277 166 l 1
 222 166 l 1
333 166 m 1
 333 222 l 1
 388 222 l 1
 388 166 l 1
 333 166 l 1
499 166 m 1
 499 222 l 1
 554 222 l 1
 554 166 l 1
 499 166 l 1
55 111 m 1
 55 166 l 1
 111 166 l 1
 111 111 l 1
 55 111 l 1
222 111 m 1
 222 166 l 1
 277 166 l 1
 277 111 l 1
 222 111 l 1
333 111 m 1
 333 166 l 1
 388 166 l 1
 388 111 l 1
 333 111 l 1
499 111 m 1
 499 166 l 1
 554 166 l 1
 554 111 l 1
 499 111 l 1
55 55 m 1
 55 111 l 1
 111 111 l 1
 111 55 l 1
 55 55 l 1
277 55 m 1
 277 111 l 1
 333 111 l 1
 333 55 l 1
 277 55 l 1
499 55 m 1
 499 111 l 1
 554 111 l 1
 554 55 l 1
 499 55 l 1
55 0 m 1
 55 55 l 1
 111 55 l 1
 111 0 l 1
 55 0 l 1
499 0 m 1
 499 55 l 1
 554 55 l 1
 554 0 l 1
 499 0 l 1
EndSplineSet
EndChar

StartChar: N
Encoding: 78 78 47
Width: 554
Flags: HW
LayerCount: 2
Back
Fore
SplineSet
55 610 m 1
 55 665 l 1
 111 665 l 1
 111 610 l 1
 55 610 l 1
443 610 m 1
 443 665 l 1
 499 665 l 1
 499 610 l 1
 443 610 l 1
55 554 m 1
 55 610 l 1
 166 610 l 1
 166 554 l 1
 55 554 l 1
443 554 m 1
 443 610 l 1
 499 610 l 1
 499 554 l 1
 443 554 l 1
55 499 m 1
 55 554 l 1
 222 554 l 1
 222 499 l 1
 55 499 l 1
443 499 m 1
 443 554 l 1
 499 554 l 1
 499 499 l 1
 443 499 l 1
55 443 m 1
 55 499 l 1
 111 499 l 1
 111 443 l 1
 55 443 l 1
166 443 m 1
 166 499 l 1
 222 499 l 1
 222 443 l 1
 166 443 l 1
443 443 m 1
 443 499 l 1
 499 499 l 1
 499 443 l 1
 443 443 l 1
55 388 m 1
 55 443 l 1
 111 443 l 1
 111 388 l 1
 55 388 l 1
222 388 m 1
 222 443 l 1
 277 443 l 1
 277 388 l 1
 222 388 l 1
443 388 m 1
 443 443 l 1
 499 443 l 1
 499 388 l 1
 443 388 l 1
55 333 m 1
 55 388 l 1
 111 388 l 1
 111 333 l 1
 55 333 l 1
222 333 m 1
 222 388 l 1
 277 388 l 1
 277 333 l 1
 222 333 l 1
443 333 m 1
 443 388 l 1
 499 388 l 1
 499 333 l 1
 443 333 l 1
55 277 m 1
 55 333 l 1
 111 333 l 1
 111 277 l 1
 55 277 l 1
277 277 m 1
 277 333 l 1
 333 333 l 1
 333 277 l 1
 277 277 l 1
443 277 m 1
 443 333 l 1
 499 333 l 1
 499 277 l 1
 443 277 l 1
55 222 m 1
 55 277 l 1
 111 277 l 1
 111 222 l 1
 55 222 l 1
277 222 m 1
 277 277 l 1
 333 277 l 1
 333 222 l 1
 277 222 l 1
443 222 m 1
 443 277 l 1
 499 277 l 1
 499 222 l 1
 443 222 l 1
55 166 m 1
 55 222 l 1
 111 222 l 1
 111 166 l 1
 55 166 l 1
333 166 m 1
 333 222 l 1
 388 222 l 1
 388 166 l 1
 333 166 l 1
443 166 m 1
 443 222 l 1
 499 222 l 1
 499 166 l 1
 443 166 l 1
55 111 m 1
 55 166 l 1
 111 166 l 1
 111 111 l 1
 55 111 l 1
388 111 m 1
 388 166 l 1
 499 166 l 1
 499 111 l 1
 388 111 l 1
55 55 m 1
 55 111 l 1
 111 111 l 1
 111 55 l 1
 55 55 l 1
388 55 m 1
 388 111 l 1
 499 111 l 1
 499 55 l 1
 388 55 l 1
55 0 m 1
 55 55 l 1
 111 55 l 1
 111 0 l 1
 55 0 l 1
443 0 m 1
 443 55 l 1
 499 55 l 1
 499 0 l 1
 443 0 l 1
EndSplineSet
EndChar

StartChar: O
Encoding: 79 79 48
Width: 554
Flags: HW
LayerCount: 2
Back
Fore
SplineSet
166 610 m 1
 166 665 l 1
 443 665 l 1
 443 610 l 1
 166 610 l 1
111 554 m 1
 111 610 l 1
 222 610 l 1
 222 554 l 1
 111 554 l 1
388 554 m 1
 388 610 l 1
 499 610 l 1
 499 554 l 1
 388 554 l 1
111 499 m 1
 111 554 l 1
 166 554 l 1
 166 499 l 1
 111 499 l 1
443 499 m 1
 443 554 l 1
 499 554 l 1
 499 499 l 1
 443 499 l 1
55 443 m 1
 55 499 l 1
 111 499 l 1
 111 443 l 1
 55 443 l 1
499 443 m 1
 499 499 l 1
 554 499 l 1
 554 443 l 1
 499 443 l 1
55 388 m 1
 55 443 l 1
 111 443 l 1
 111 388 l 1
 55 388 l 1
499 388 m 1
 499 443 l 1
 554 443 l 1
 554 388 l 1
 499 388 l 1
55 333 m 1
 55 388 l 1
 111 388 l 1
 111 333 l 1
 55 333 l 1
499 333 m 1
 499 388 l 1
 554 388 l 1
 554 333 l 1
 499 333 l 1
55 277 m 1
 55 333 l 1
 111 333 l 1
 111 277 l 1
 55 277 l 1
499 277 m 1
 499 333 l 1
 554 333 l 1
 554 277 l 1
 499 277 l 1
55 222 m 1
 55 277 l 1
 111 277 l 1
 111 222 l 1
 55 222 l 1
499 222 m 1
 499 277 l 1
 554 277 l 1
 554 222 l 1
 499 222 l 1
55 166 m 1
 55 222 l 1
 111 222 l 1
 111 166 l 1
 55 166 l 1
499 166 m 1
 499 222 l 1
 554 222 l 1
 554 166 l 1
 499 166 l 1
111 111 m 1
 111 166 l 1
 166 166 l 1
 166 111 l 1
 111 111 l 1
443 111 m 1
 443 166 l 1
 499 166 l 1
 499 111 l 1
 443 111 l 1
111 55 m 1
 111 111 l 1
 222 111 l 1
 222 55 l 1
 111 55 l 1
388 55 m 1
 388 111 l 1
 499 111 l 1
 499 55 l 1
 388 55 l 1
166 0 m 1
 166 55 l 1
 443 55 l 1
 443 0 l 1
 166 0 l 1
EndSplineSet
EndChar

StartChar: P
Encoding: 80 80 49
Width: 554
Flags: HW
LayerCount: 2
Back
Fore
SplineSet
111 610 m 1
 111 665 l 1
 499 665 l 1
 499 610 l 1
 111 610 l 1
111 554 m 1
 111 610 l 1
 166 610 l 1
 166 554 l 1
 111 554 l 1
443 554 m 1
 443 610 l 1
 554 610 l 1
 554 554 l 1
 443 554 l 1
111 499 m 1
 111 554 l 1
 166 554 l 1
 166 499 l 1
 111 499 l 1
499 499 m 1
 499 554 l 1
 554 554 l 1
 554 499 l 1
 499 499 l 1
111 443 m 1
 111 499 l 1
 166 499 l 1
 166 443 l 1
 111 443 l 1
499 443 m 1
 499 499 l 1
 554 499 l 1
 554 443 l 1
 499 443 l 1
111 388 m 1
 111 443 l 1
 166 443 l 1
 166 388 l 1
 111 388 l 1
499 388 m 1
 499 443 l 1
 554 443 l 1
 554 388 l 1
 499 388 l 1
111 333 m 1
 111 388 l 1
 166 388 l 1
 166 333 l 1
 111 333 l 1
443 333 m 1
 443 388 l 1
 499 388 l 1
 499 333 l 1
 443 333 l 1
111 277 m 1
 111 333 l 1
 443 333 l 1
 443 277 l 1
 111 277 l 1
111 222 m 1
 111 277 l 1
 166 277 l 1
 166 222 l 1
 111 222 l 1
111 166 m 1
 111 222 l 1
 166 222 l 1
 166 166 l 1
 111 166 l 1
111 111 m 1
 111 166 l 1
 166 166 l 1
 166 111 l 1
 111 111 l 1
111 55 m 1
 111 111 l 1
 166 111 l 1
 166 55 l 1
 111 55 l 1
111 0 m 1
 111 55 l 1
 166 55 l 1
 166 0 l 1
 111 0 l 1
EndSplineSet
EndChar

StartChar: Q
Encoding: 81 81 50
Width: 554
Flags: HW
LayerCount: 2
Back
Fore
SplineSet
111 610 m 1
 111 665 l 1
 333 665 l 1
 333 610 l 1
 111 610 l 1
55 554 m 1
 55 610 l 1
 166 610 l 1
 166 554 l 1
 55 554 l 1
333 554 m 1
 333 610 l 1
 443 610 l 1
 443 554 l 1
 333 554 l 1
55 499 m 1
 55 554 l 1
 111 554 l 1
 111 499 l 1
 55 499 l 1
388 499 m 1
 388 554 l 1
 443 554 l 1
 443 499 l 1
 388 499 l 1
0 443 m 1
 0 499 l 1
 55 499 l 1
 55 443 l 1
 0 443 l 1
443 443 m 1
 443 499 l 1
 499 499 l 1
 499 443 l 1
 443 443 l 1
0 388 m 1
 0 443 l 1
 55 443 l 1
 55 388 l 1
 0 388 l 1
443 388 m 1
 443 443 l 1
 499 443 l 1
 499 388 l 1
 443 388 l 1
0 333 m 1
 0 388 l 1
 55 388 l 1
 55 333 l 1
 0 333 l 1
443 333 m 1
 443 388 l 1
 499 388 l 1
 499 333 l 1
 443 333 l 1
0 277 m 1
 0 333 l 1
 55 333 l 1
 55 277 l 1
 0 277 l 1
443 277 m 1
 443 333 l 1
 499 333 l 1
 499 277 l 1
 443 277 l 1
0 222 m 1
 0 277 l 1
 55 277 l 1
 55 222 l 1
 0 222 l 1
443 222 m 1
 443 277 l 1
 499 277 l 1
 499 222 l 1
 443 222 l 1
0 166 m 1
 0 222 l 1
 55 222 l 1
 55 166 l 1
 0 166 l 1
443 166 m 1
 443 222 l 1
 499 222 l 1
 499 166 l 1
 443 166 l 1
55 111 m 1
 55 166 l 1
 111 166 l 1
 111 111 l 1
 55 111 l 1
388 111 m 1
 388 166 l 1
 499 166 l 1
 499 111 l 1
 388 111 l 1
55 55 m 1
 55 111 l 1
 166 111 l 1
 166 55 l 1
 55 55 l 1
333 55 m 1
 333 111 l 1
 443 111 l 1
 443 55 l 1
 333 55 l 1
166 0 m 1
 166 55 l 1
 443 55 l 1
 443 0 l 1
 166 0 l 1
333 -55 m 1
 333 0 l 1
 388 0 l 1
 388 -55 l 1
 333 -55 l 1
388 -111 m 1
 388 -55 l 1
 554 -55 l 1
 554 -111 l 1
 388 -111 l 1
443 -166 m 1
 443 -111 l 1
 499 -111 l 1
 499 -166 l 1
 443 -166 l 1
EndSplineSet
EndChar

StartChar: R
Encoding: 82 82 51
Width: 554
Flags: HW
LayerCount: 2
Back
Fore
SplineSet
111 610 m 1
 111 665 l 1
 443 665 l 1
 443 610 l 1
 111 610 l 1
111 554 m 1
 111 610 l 1
 166 610 l 1
 166 554 l 1
 111 554 l 1
388 554 m 1
 388 610 l 1
 499 610 l 1
 499 554 l 1
 388 554 l 1
111 499 m 1
 111 554 l 1
 166 554 l 1
 166 499 l 1
 111 499 l 1
443 499 m 1
 443 554 l 1
 499 554 l 1
 499 499 l 1
 443 499 l 1
111 443 m 1
 111 499 l 1
 166 499 l 1
 166 443 l 1
 111 443 l 1
443 443 m 1
 443 499 l 1
 499 499 l 1
 499 443 l 1
 443 443 l 1
111 388 m 1
 111 443 l 1
 166 443 l 1
 166 388 l 1
 111 388 l 1
443 388 m 1
 443 443 l 1
 499 443 l 1
 499 388 l 1
 443 388 l 1
111 333 m 1
 111 388 l 1
 166 388 l 1
 166 333 l 1
 111 333 l 1
333 333 m 1
 333 388 l 1
 443 388 l 1
 443 333 l 1
 333 333 l 1
111 277 m 1
 111 333 l 1
 388 333 l 1
 388 277 l 1
 111 277 l 1
111 222 m 1
 111 277 l 1
 166 277 l 1
 166 222 l 1
 111 222 l 1
333 222 m 1
 333 277 l 1
 388 277 l 1
 388 222 l 1
 333 222 l 1
111 166 m 1
 111 222 l 1
 166 222 l 1
 166 166 l 1
 111 166 l 1
333 166 m 1
 333 222 l 1
 443 222 l 1
 443 166 l 1
 333 166 l 1
111 111 m 1
 111 166 l 1
 166 166 l 1
 166 111 l 1
 111 111 l 1
388 111 m 1
 388 166 l 1
 443 166 l 1
 443 111 l 1
 388 111 l 1
111 55 m 1
 111 111 l 1
 166 111 l 1
 166 55 l 1
 111 55 l 1
443 55 m 1
 443 111 l 1
 499 111 l 1
 499 55 l 1
 443 55 l 1
111 0 m 1
 111 55 l 1
 166 55 l 1
 166 0 l 1
 111 0 l 1
443 0 m 1
 443 55 l 1
 499 55 l 1
 499 0 l 1
 443 0 l 1
EndSplineSet
EndChar

StartChar: S
Encoding: 83 83 52
Width: 554
Flags: HW
LayerCount: 2
Back
Fore
SplineSet
166 610 m 1
 166 665 l 1
 499 665 l 1
 499 610 l 1
 166 610 l 1
55 554 m 1
 55 610 l 1
 166 610 l 1
 166 554 l 1
 55 554 l 1
443 554 m 1
 443 610 l 1
 499 610 l 1
 499 554 l 1
 443 554 l 1
55 499 m 1
 55 554 l 1
 111 554 l 1
 111 499 l 1
 55 499 l 1
55 443 m 1
 55 499 l 1
 111 499 l 1
 111 443 l 1
 55 443 l 1
111 388 m 1
 111 443 l 1
 166 443 l 1
 166 388 l 1
 111 388 l 1
166 333 m 1
 166 388 l 1
 333 388 l 1
 333 333 l 1
 166 333 l 1
333 277 m 1
 333 333 l 1
 443 333 l 1
 443 277 l 1
 333 277 l 1
388 222 m 1
 388 277 l 1
 499 277 l 1
 499 222 l 1
 388 222 l 1
443 166 m 1
 443 222 l 1
 499 222 l 1
 499 166 l 1
 443 166 l 1
443 111 m 1
 443 166 l 1
 499 166 l 1
 499 111 l 1
 443 111 l 1
55 55 m 1
 55 111 l 1
 111 111 l 1
 111 55 l 1
 55 55 l 1
388 55 m 1
 388 111 l 1
 443 111 l 1
 443 55 l 1
 388 55 l 1
111 0 m 1
 111 55 l 1
 388 55 l 1
 388 0 l 1
 111 0 l 1
EndSplineSet
EndChar

StartChar: T
Encoding: 84 84 53
Width: 554
Flags: HW
LayerCount: 2
Back
Fore
SplineSet
55 610 m 1
 55 665 l 1
 554 665 l 1
 554 610 l 1
 55 610 l 1
277 554 m 1
 277 610 l 1
 333 610 l 1
 333 554 l 1
 277 554 l 1
277 499 m 1
 277 554 l 1
 333 554 l 1
 333 499 l 1
 277 499 l 1
277 443 m 1
 277 499 l 1
 333 499 l 1
 333 443 l 1
 277 443 l 1
277 388 m 1
 277 443 l 1
 333 443 l 1
 333 388 l 1
 277 388 l 1
277 333 m 1
 277 388 l 1
 333 388 l 1
 333 333 l 1
 277 333 l 1
277 277 m 1
 277 333 l 1
 333 333 l 1
 333 277 l 1
 277 277 l 1
277 222 m 1
 277 277 l 1
 333 277 l 1
 333 222 l 1
 277 222 l 1
277 166 m 1
 277 222 l 1
 333 222 l 1
 333 166 l 1
 277 166 l 1
277 111 m 1
 277 166 l 1
 333 166 l 1
 333 111 l 1
 277 111 l 1
277 55 m 1
 277 111 l 1
 333 111 l 1
 333 55 l 1
 277 55 l 1
277 0 m 1
 277 55 l 1
 333 55 l 1
 333 0 l 1
 277 0 l 1
EndSplineSet
EndChar

StartChar: U
Encoding: 85 85 54
Width: 554
Flags: HW
LayerCount: 2
Back
Fore
SplineSet
55 610 m 1
 55 665 l 1
 111 665 l 1
 111 610 l 1
 55 610 l 1
443 610 m 1
 443 665 l 1
 499 665 l 1
 499 610 l 1
 443 610 l 1
55 554 m 1
 55 610 l 1
 111 610 l 1
 111 554 l 1
 55 554 l 1
443 554 m 1
 443 610 l 1
 499 610 l 1
 499 554 l 1
 443 554 l 1
55 499 m 1
 55 554 l 1
 111 554 l 1
 111 499 l 1
 55 499 l 1
443 499 m 1
 443 554 l 1
 499 554 l 1
 499 499 l 1
 443 499 l 1
55 443 m 1
 55 499 l 1
 111 499 l 1
 111 443 l 1
 55 443 l 1
443 443 m 1
 443 499 l 1
 499 499 l 1
 499 443 l 1
 443 443 l 1
55 388 m 1
 55 443 l 1
 111 443 l 1
 111 388 l 1
 55 388 l 1
443 388 m 1
 443 443 l 1
 499 443 l 1
 499 388 l 1
 443 388 l 1
55 333 m 1
 55 388 l 1
 111 388 l 1
 111 333 l 1
 55 333 l 1
443 333 m 1
 443 388 l 1
 499 388 l 1
 499 333 l 1
 443 333 l 1
55 277 m 1
 55 333 l 1
 111 333 l 1
 111 277 l 1
 55 277 l 1
443 277 m 1
 443 333 l 1
 499 333 l 1
 499 277 l 1
 443 277 l 1
55 222 m 1
 55 277 l 1
 111 277 l 1
 111 222 l 1
 55 222 l 1
443 222 m 1
 443 277 l 1
 499 277 l 1
 499 222 l 1
 443 222 l 1
55 166 m 1
 55 222 l 1
 111 222 l 1
 111 166 l 1
 55 166 l 1
443 166 m 1
 443 222 l 1
 499 222 l 1
 499 166 l 1
 443 166 l 1
55 111 m 1
 55 166 l 1
 111 166 l 1
 111 111 l 1
 55 111 l 1
443 111 m 1
 443 166 l 1
 499 166 l 1
 499 111 l 1
 443 111 l 1
55 55 m 1
 55 111 l 1
 166 111 l 1
 166 55 l 1
 55 55 l 1
388 55 m 1
 388 111 l 1
 443 111 l 1
 443 55 l 1
 388 55 l 1
111 0 m 1
 111 55 l 1
 388 55 l 1
 388 0 l 1
 111 0 l 1
EndSplineSet
EndChar

StartChar: V
Encoding: 86 86 55
Width: 554
Flags: HW
LayerCount: 2
Back
Fore
SplineSet
0 610 m 1
 0 665 l 1
 111 665 l 1
 111 610 l 1
 0 610 l 1
499 610 m 1
 499 665 l 1
 554 665 l 1
 554 610 l 1
 499 610 l 1
55 554 m 1
 55 610 l 1
 111 610 l 1
 111 554 l 1
 55 554 l 1
443 554 m 1
 443 610 l 1
 499 610 l 1
 499 554 l 1
 443 554 l 1
55 499 m 1
 55 554 l 1
 111 554 l 1
 111 499 l 1
 55 499 l 1
443 499 m 1
 443 554 l 1
 499 554 l 1
 499 499 l 1
 443 499 l 1
111 443 m 1
 111 499 l 1
 166 499 l 1
 166 443 l 1
 111 443 l 1
443 443 m 1
 443 499 l 1
 499 499 l 1
 499 443 l 1
 443 443 l 1
111 388 m 1
 111 443 l 1
 166 443 l 1
 166 388 l 1
 111 388 l 1
388 388 m 1
 388 443 l 1
 443 443 l 1
 443 388 l 1
 388 388 l 1
111 333 m 1
 111 388 l 1
 166 388 l 1
 166 333 l 1
 111 333 l 1
388 333 m 1
 388 388 l 1
 443 388 l 1
 443 333 l 1
 388 333 l 1
166 277 m 1
 166 333 l 1
 222 333 l 1
 222 277 l 1
 166 277 l 1
333 277 m 1
 333 333 l 1
 443 333 l 1
 443 277 l 1
 333 277 l 1
166 222 m 1
 166 277 l 1
 222 277 l 1
 222 222 l 1
 166 222 l 1
333 222 m 1
 333 277 l 1
 388 277 l 1
 388 222 l 1
 333 222 l 1
166 166 m 1
 166 222 l 1
 222 222 l 1
 222 166 l 1
 166 166 l 1
333 166 m 1
 333 222 l 1
 388 222 l 1
 388 166 l 1
 333 166 l 1
222 111 m 1
 222 166 l 1
 333 166 l 1
 333 111 l 1
 222 111 l 1
222 55 m 1
 222 111 l 1
 333 111 l 1
 333 55 l 1
 222 55 l 1
222 0 m 1
 222 55 l 1
 333 55 l 1
 333 0 l 1
 222 0 l 1
EndSplineSet
EndChar

StartChar: W
Encoding: 87 87 56
Width: 554
Flags: HW
LayerCount: 2
Back
Fore
SplineSet
0 610 m 1
 0 665 l 1
 55 665 l 1
 55 610 l 1
 0 610 l 1
499 610 m 1
 499 665 l 1
 554 665 l 1
 554 610 l 1
 499 610 l 1
0 554 m 1
 0 610 l 1
 55 610 l 1
 55 554 l 1
 0 554 l 1
222 554 m 1
 222 610 l 1
 277 610 l 1
 277 554 l 1
 222 554 l 1
499 554 m 1
 499 610 l 1
 554 610 l 1
 554 554 l 1
 499 554 l 1
0 499 m 1
 0 554 l 1
 55 554 l 1
 55 499 l 1
 0 499 l 1
222 499 m 1
 222 554 l 1
 277 554 l 1
 277 499 l 1
 222 499 l 1
443 499 m 1
 443 554 l 1
 554 554 l 1
 554 499 l 1
 443 499 l 1
0 443 m 1
 0 499 l 1
 55 499 l 1
 55 443 l 1
 0 443 l 1
166 443 m 1
 166 499 l 1
 333 499 l 1
 333 443 l 1
 166 443 l 1
443 443 m 1
 443 499 l 1
 499 499 l 1
 499 443 l 1
 443 443 l 1
0 388 m 1
 0 443 l 1
 111 443 l 1
 111 388 l 1
 0 388 l 1
166 388 m 1
 166 443 l 1
 222 443 l 1
 222 388 l 1
 166 388 l 1
277 388 m 1
 277 443 l 1
 333 443 l 1
 333 388 l 1
 277 388 l 1
443 388 m 1
 443 443 l 1
 499 443 l 1
 499 388 l 1
 443 388 l 1
0 333 m 1
 0 388 l 1
 111 388 l 1
 111 333 l 1
 0 333 l 1
166 333 m 1
 166 388 l 1
 222 388 l 1
 222 333 l 1
 166 333 l 1
277 333 m 1
 277 388 l 1
 333 388 l 1
 333 333 l 1
 277 333 l 1
443 333 m 1
 443 388 l 1
 499 388 l 1
 499 333 l 1
 443 333 l 1
55 277 m 1
 55 333 l 1
 111 333 l 1
 111 277 l 1
 55 277 l 1
166 277 m 1
 166 333 l 1
 222 333 l 1
 222 277 l 1
 166 277 l 1
277 277 m 1
 277 333 l 1
 333 333 l 1
 333 277 l 1
 277 277 l 1
443 277 m 1
 443 333 l 1
 499 333 l 1
 499 277 l 1
 443 277 l 1
55 222 m 1
 55 277 l 1
 111 277 l 1
 111 222 l 1
 55 222 l 1
166 222 m 1
 166 277 l 1
 222 277 l 1
 222 222 l 1
 166 222 l 1
277 222 m 1
 277 277 l 1
 333 277 l 1
 333 222 l 1
 277 222 l 1
388 222 m 1
 388 277 l 1
 499 277 l 1
 499 222 l 1
 388 222 l 1
55 166 m 1
 55 222 l 1
 111 222 l 1
 111 166 l 1
 55 166 l 1
166 166 m 1
 166 222 l 1
 222 222 l 1
 222 166 l 1
 166 166 l 1
333 166 m 1
 333 222 l 1
 499 222 l 1
 499 166 l 1
 333 166 l 1
55 111 m 1
 55 166 l 1
 166 166 l 1
 166 111 l 1
 55 111 l 1
333 111 m 1
 333 166 l 1
 443 166 l 1
 443 111 l 1
 333 111 l 1
55 55 m 1
 55 111 l 1
 111 111 l 1
 111 55 l 1
 55 55 l 1
388 55 m 1
 388 111 l 1
 443 111 l 1
 443 55 l 1
 388 55 l 1
55 0 m 1
 55 55 l 1
 111 55 l 1
 111 0 l 1
 55 0 l 1
388 0 m 1
 388 55 l 1
 443 55 l 1
 443 0 l 1
 388 0 l 1
EndSplineSet
EndChar

StartChar: X
Encoding: 88 88 57
Width: 554
Flags: HW
LayerCount: 2
Back
Fore
SplineSet
55 610 m 1
 55 665 l 1
 111 665 l 1
 111 610 l 1
 55 610 l 1
443 610 m 1
 443 665 l 1
 554 665 l 1
 554 610 l 1
 443 610 l 1
111 554 m 1
 111 610 l 1
 166 610 l 1
 166 554 l 1
 111 554 l 1
388 554 m 1
 388 610 l 1
 499 610 l 1
 499 554 l 1
 388 554 l 1
111 499 m 1
 111 554 l 1
 166 554 l 1
 166 499 l 1
 111 499 l 1
388 499 m 1
 388 554 l 1
 443 554 l 1
 443 499 l 1
 388 499 l 1
166 443 m 1
 166 499 l 1
 222 499 l 1
 222 443 l 1
 166 443 l 1
333 443 m 1
 333 499 l 1
 388 499 l 1
 388 443 l 1
 333 443 l 1
222 388 m 1
 222 443 l 1
 388 443 l 1
 388 388 l 1
 222 388 l 1
222 333 m 1
 222 388 l 1
 333 388 l 1
 333 333 l 1
 222 333 l 1
222 277 m 1
 222 333 l 1
 333 333 l 1
 333 277 l 1
 222 277 l 1
166 222 m 1
 166 277 l 1
 222 277 l 1
 222 222 l 1
 166 222 l 1
333 222 m 1
 333 277 l 1
 388 277 l 1
 388 222 l 1
 333 222 l 1
166 166 m 1
 166 222 l 1
 222 222 l 1
 222 166 l 1
 166 166 l 1
333 166 m 1
 333 222 l 1
 388 222 l 1
 388 166 l 1
 333 166 l 1
111 111 m 1
 111 166 l 1
 166 166 l 1
 166 111 l 1
 111 111 l 1
388 111 m 1
 388 166 l 1
 443 166 l 1
 443 111 l 1
 388 111 l 1
55 55 m 1
 55 111 l 1
 111 111 l 1
 111 55 l 1
 55 55 l 1
388 55 m 1
 388 111 l 1
 499 111 l 1
 499 55 l 1
 388 55 l 1
0 0 m 1
 0 55 l 1
 111 55 l 1
 111 0 l 1
 0 0 l 1
443 0 m 1
 443 55 l 1
 554 55 l 1
 554 0 l 1
 443 0 l 1
EndSplineSet
EndChar

StartChar: Y
Encoding: 89 89 58
Width: 554
Flags: HW
LayerCount: 2
Back
Fore
SplineSet
55 610 m 1
 55 665 l 1
 166 665 l 1
 166 610 l 1
 55 610 l 1
443 610 m 1
 443 665 l 1
 554 665 l 1
 554 610 l 1
 443 610 l 1
111 554 m 1
 111 610 l 1
 166 610 l 1
 166 554 l 1
 111 554 l 1
443 554 m 1
 443 610 l 1
 499 610 l 1
 499 554 l 1
 443 554 l 1
166 499 m 1
 166 554 l 1
 222 554 l 1
 222 499 l 1
 166 499 l 1
388 499 m 1
 388 554 l 1
 443 554 l 1
 443 499 l 1
 388 499 l 1
166 443 m 1
 166 499 l 1
 222 499 l 1
 222 443 l 1
 166 443 l 1
388 443 m 1
 388 499 l 1
 443 499 l 1
 443 443 l 1
 388 443 l 1
222 388 m 1
 222 443 l 1
 277 443 l 1
 277 388 l 1
 222 388 l 1
333 388 m 1
 333 443 l 1
 388 443 l 1
 388 388 l 1
 333 388 l 1
222 333 m 1
 222 388 l 1
 277 388 l 1
 277 333 l 1
 222 333 l 1
333 333 m 1
 333 388 l 1
 388 388 l 1
 388 333 l 1
 333 333 l 1
277 277 m 1
 277 333 l 1
 333 333 l 1
 333 277 l 1
 277 277 l 1
277 222 m 1
 277 277 l 1
 333 277 l 1
 333 222 l 1
 277 222 l 1
277 166 m 1
 277 222 l 1
 333 222 l 1
 333 166 l 1
 277 166 l 1
277 111 m 1
 277 166 l 1
 333 166 l 1
 333 111 l 1
 277 111 l 1
277 55 m 1
 277 111 l 1
 333 111 l 1
 333 55 l 1
 277 55 l 1
277 0 m 1
 277 55 l 1
 333 55 l 1
 333 0 l 1
 277 0 l 1
EndSplineSet
EndChar

StartChar: Z
Encoding: 90 90 59
Width: 554
Flags: HW
LayerCount: 2
Back
Fore
SplineSet
55 610 m 1
 55 665 l 1
 554 665 l 1
 554 610 l 1
 55 610 l 1
443 554 m 1
 443 610 l 1
 499 610 l 1
 499 554 l 1
 443 554 l 1
388 499 m 1
 388 554 l 1
 499 554 l 1
 499 499 l 1
 388 499 l 1
388 443 m 1
 388 499 l 1
 443 499 l 1
 443 443 l 1
 388 443 l 1
333 388 m 1
 333 443 l 1
 388 443 l 1
 388 388 l 1
 333 388 l 1
277 333 m 1
 277 388 l 1
 333 388 l 1
 333 333 l 1
 277 333 l 1
277 277 m 1
 277 333 l 1
 333 333 l 1
 333 277 l 1
 277 277 l 1
222 222 m 1
 222 277 l 1
 277 277 l 1
 277 222 l 1
 222 222 l 1
166 166 m 1
 166 222 l 1
 222 222 l 1
 222 166 l 1
 166 166 l 1
111 111 m 1
 111 166 l 1
 222 166 l 1
 222 111 l 1
 111 111 l 1
111 55 m 1
 111 111 l 1
 166 111 l 1
 166 55 l 1
 111 55 l 1
55 0 m 1
 55 55 l 1
 554 55 l 1
 554 0 l 1
 55 0 l 1
EndSplineSet
EndChar

StartChar: bracketleft
Encoding: 91 91 60
Width: 554
Flags: HW
LayerCount: 2
Back
Fore
SplineSet
222 610 m 1
 222 665 l 1
 499 665 l 1
 499 610 l 1
 222 610 l 1
222 554 m 1
 222 610 l 1
 277 610 l 1
 277 554 l 1
 222 554 l 1
222 499 m 1
 222 554 l 1
 277 554 l 1
 277 499 l 1
 222 499 l 1
222 443 m 1
 222 499 l 1
 277 499 l 1
 277 443 l 1
 222 443 l 1
222 388 m 1
 222 443 l 1
 277 443 l 1
 277 388 l 1
 222 388 l 1
222 333 m 1
 222 388 l 1
 277 388 l 1
 277 333 l 1
 222 333 l 1
222 277 m 1
 222 333 l 1
 277 333 l 1
 277 277 l 1
 222 277 l 1
222 222 m 1
 222 277 l 1
 277 277 l 1
 277 222 l 1
 222 222 l 1
222 166 m 1
 222 222 l 1
 277 222 l 1
 277 166 l 1
 222 166 l 1
222 111 m 1
 222 166 l 1
 277 166 l 1
 277 111 l 1
 222 111 l 1
222 55 m 1
 222 111 l 1
 277 111 l 1
 277 55 l 1
 222 55 l 1
222 0 m 1
 222 55 l 1
 277 55 l 1
 277 0 l 1
 222 0 l 1
222 -55 m 1
 222 0 l 1
 277 0 l 1
 277 -55 l 1
 222 -55 l 1
222 -111 m 1
 222 -55 l 1
 499 -55 l 1
 499 -111 l 1
 222 -111 l 1
EndSplineSet
EndChar

StartChar: backslash
Encoding: 92 92 61
Width: 554
Flags: HW
LayerCount: 2
Back
Fore
SplineSet
55 610 m 1
 55 665 l 1
 166 665 l 1
 166 610 l 1
 55 610 l 1
111 554 m 1
 111 610 l 1
 166 610 l 1
 166 554 l 1
 111 554 l 1
111 499 m 1
 111 554 l 1
 222 554 l 1
 222 499 l 1
 111 499 l 1
166 443 m 1
 166 499 l 1
 222 499 l 1
 222 443 l 1
 166 443 l 1
222 388 m 1
 222 443 l 1
 277 443 l 1
 277 388 l 1
 222 388 l 1
222 333 m 1
 222 388 l 1
 277 388 l 1
 277 333 l 1
 222 333 l 1
277 277 m 1
 277 333 l 1
 333 333 l 1
 333 277 l 1
 277 277 l 1
277 222 m 1
 277 277 l 1
 333 277 l 1
 333 222 l 1
 277 222 l 1
333 166 m 1
 333 222 l 1
 388 222 l 1
 388 166 l 1
 333 166 l 1
333 111 m 1
 333 166 l 1
 388 166 l 1
 388 111 l 1
 333 111 l 1
388 55 m 1
 388 111 l 1
 443 111 l 1
 443 55 l 1
 388 55 l 1
388 0 m 1
 388 55 l 1
 499 55 l 1
 499 0 l 1
 388 0 l 1
443 -55 m 1
 443 0 l 1
 499 0 l 1
 499 -55 l 1
 443 -55 l 1
443 -111 m 1
 443 -55 l 1
 554 -55 l 1
 554 -111 l 1
 443 -111 l 1
EndSplineSet
EndChar

StartChar: bracketright
Encoding: 93 93 62
Width: 554
Flags: HW
LayerCount: 2
Back
Fore
SplineSet
55 610 m 1
 55 665 l 1
 333 665 l 1
 333 610 l 1
 55 610 l 1
277 554 m 1
 277 610 l 1
 333 610 l 1
 333 554 l 1
 277 554 l 1
277 499 m 1
 277 554 l 1
 333 554 l 1
 333 499 l 1
 277 499 l 1
277 443 m 1
 277 499 l 1
 333 499 l 1
 333 443 l 1
 277 443 l 1
277 388 m 1
 277 443 l 1
 333 443 l 1
 333 388 l 1
 277 388 l 1
277 333 m 1
 277 388 l 1
 333 388 l 1
 333 333 l 1
 277 333 l 1
277 277 m 1
 277 333 l 1
 333 333 l 1
 333 277 l 1
 277 277 l 1
277 222 m 1
 277 277 l 1
 333 277 l 1
 333 222 l 1
 277 222 l 1
277 166 m 1
 277 222 l 1
 333 222 l 1
 333 166 l 1
 277 166 l 1
277 111 m 1
 277 166 l 1
 333 166 l 1
 333 111 l 1
 277 111 l 1
277 55 m 1
 277 111 l 1
 333 111 l 1
 333 55 l 1
 277 55 l 1
277 0 m 1
 277 55 l 1
 333 55 l 1
 333 0 l 1
 277 0 l 1
277 -55 m 1
 277 0 l 1
 333 0 l 1
 333 -55 l 1
 277 -55 l 1
55 -111 m 1
 55 -55 l 1
 333 -55 l 1
 333 -111 l 1
 55 -111 l 1
EndSplineSet
EndChar

StartChar: asciicircum
Encoding: 94 94 63
Width: 554
Flags: HW
LayerCount: 2
Back
Fore
SplineSet
277 610 m 1
 277 665 l 1
 333 665 l 1
 333 610 l 1
 277 610 l 1
277 554 m 1
 277 610 l 1
 333 610 l 1
 333 554 l 1
 277 554 l 1
277 499 m 1
 277 554 l 1
 333 554 l 1
 333 499 l 1
 277 499 l 1
222 443 m 1
 222 499 l 1
 277 499 l 1
 277 443 l 1
 222 443 l 1
333 443 m 1
 333 499 l 1
 388 499 l 1
 388 443 l 1
 333 443 l 1
222 388 m 1
 222 443 l 1
 277 443 l 1
 277 388 l 1
 222 388 l 1
333 388 m 1
 333 443 l 1
 388 443 l 1
 388 388 l 1
 333 388 l 1
166 333 m 1
 166 388 l 1
 222 388 l 1
 222 333 l 1
 166 333 l 1
388 333 m 1
 388 388 l 1
 443 388 l 1
 443 333 l 1
 388 333 l 1
166 277 m 1
 166 333 l 1
 222 333 l 1
 222 277 l 1
 166 277 l 1
388 277 m 1
 388 333 l 1
 443 333 l 1
 443 277 l 1
 388 277 l 1
111 222 m 1
 111 277 l 1
 166 277 l 1
 166 222 l 1
 111 222 l 1
443 222 m 1
 443 277 l 1
 499 277 l 1
 499 222 l 1
 443 222 l 1
111 166 m 1
 111 222 l 1
 166 222 l 1
 166 166 l 1
 111 166 l 1
443 166 m 1
 443 222 l 1
 499 222 l 1
 499 166 l 1
 443 166 l 1
55 111 m 1
 55 166 l 1
 111 166 l 1
 111 111 l 1
 55 111 l 1
499 111 m 1
 499 166 l 1
 554 166 l 1
 554 111 l 1
 499 111 l 1
EndSplineSet
EndChar

StartChar: underscore
Encoding: 95 95 64
Width: 554
Flags: HW
LayerCount: 2
Back
Fore
SplineSet
0 -55 m 1
 0 0 l 1
 554 0 l 1
 554 -55 l 1
 0 -55 l 1
EndSplineSet
EndChar

StartChar: grave
Encoding: 96 96 65
Width: 554
Flags: HW
LayerCount: 2
Back
Fore
SplineSet
166 610 m 1
 166 665 l 1
 333 665 l 1
 333 610 l 1
 166 610 l 1
277 554 m 1
 277 610 l 1
 388 610 l 1
 388 554 l 1
 277 554 l 1
EndSplineSet
EndChar

StartChar: a
Encoding: 97 97 66
Width: 554
Flags: HW
LayerCount: 2
Back
Fore
SplineSet
111 443 m 1
 111 499 l 1
 388 499 l 1
 388 443 l 1
 111 443 l 1
111 388 m 1
 111 443 l 1
 166 443 l 1
 166 388 l 1
 111 388 l 1
388 388 m 1
 388 443 l 1
 443 443 l 1
 443 388 l 1
 388 388 l 1
388 333 m 1
 388 388 l 1
 443 388 l 1
 443 333 l 1
 388 333 l 1
388 277 m 1
 388 333 l 1
 443 333 l 1
 443 277 l 1
 388 277 l 1
166 222 m 1
 166 277 l 1
 443 277 l 1
 443 222 l 1
 166 222 l 1
55 166 m 1
 55 222 l 1
 166 222 l 1
 166 166 l 1
 55 166 l 1
388 166 m 1
 388 222 l 1
 443 222 l 1
 443 166 l 1
 388 166 l 1
55 111 m 1
 55 166 l 1
 111 166 l 1
 111 111 l 1
 55 111 l 1
388 111 m 1
 388 166 l 1
 443 166 l 1
 443 111 l 1
 388 111 l 1
55 55 m 1
 55 111 l 1
 111 111 l 1
 111 55 l 1
 55 55 l 1
333 55 m 1
 333 111 l 1
 443 111 l 1
 443 55 l 1
 333 55 l 1
111 0 m 1
 111 55 l 1
 333 55 l 1
 333 0 l 1
 111 0 l 1
388 0 m 1
 388 55 l 1
 499 55 l 1
 499 0 l 1
 388 0 l 1
EndSplineSet
EndChar

StartChar: b
Encoding: 98 98 67
Width: 554
Flags: HW
LayerCount: 2
Back
Fore
SplineSet
55 610 m 1
 55 665 l 1
 111 665 l 1
 111 610 l 1
 55 610 l 1
55 554 m 1
 55 610 l 1
 111 610 l 1
 111 554 l 1
 55 554 l 1
55 499 m 1
 55 554 l 1
 111 554 l 1
 111 499 l 1
 55 499 l 1
55 443 m 1
 55 499 l 1
 111 499 l 1
 111 443 l 1
 55 443 l 1
166 443 m 1
 166 499 l 1
 388 499 l 1
 388 443 l 1
 166 443 l 1
55 388 m 1
 55 443 l 1
 222 443 l 1
 222 388 l 1
 55 388 l 1
388 388 m 1
 388 443 l 1
 443 443 l 1
 443 388 l 1
 388 388 l 1
55 333 m 1
 55 388 l 1
 111 388 l 1
 111 333 l 1
 55 333 l 1
443 333 m 1
 443 388 l 1
 499 388 l 1
 499 333 l 1
 443 333 l 1
55 277 m 1
 55 333 l 1
 111 333 l 1
 111 277 l 1
 55 277 l 1
443 277 m 1
 443 333 l 1
 499 333 l 1
 499 277 l 1
 443 277 l 1
55 222 m 1
 55 277 l 1
 111 277 l 1
 111 222 l 1
 55 222 l 1
443 222 m 1
 443 277 l 1
 499 277 l 1
 499 222 l 1
 443 222 l 1
55 166 m 1
 55 222 l 1
 111 222 l 1
 111 166 l 1
 55 166 l 1
443 166 m 1
 443 222 l 1
 499 222 l 1
 499 166 l 1
 443 166 l 1
55 111 m 1
 55 166 l 1
 111 166 l 1
 111 111 l 1
 55 111 l 1
388 111 m 1
 388 166 l 1
 499 166 l 1
 499 111 l 1
 388 111 l 1
55 55 m 1
 55 111 l 1
 166 111 l 1
 166 55 l 1
 55 55 l 1
388 55 m 1
 388 111 l 1
 443 111 l 1
 443 55 l 1
 388 55 l 1
55 0 m 1
 55 55 l 1
 111 55 l 1
 111 0 l 1
 55 0 l 1
166 0 m 1
 166 55 l 1
 388 55 l 1
 388 0 l 1
 166 0 l 1
EndSplineSet
EndChar

StartChar: c
Encoding: 99 99 68
Width: 554
Flags: HW
LayerCount: 2
Back
Fore
SplineSet
222 443 m 1
 222 499 l 1
 499 499 l 1
 499 443 l 1
 222 443 l 1
166 388 m 1
 166 443 l 1
 222 443 l 1
 222 388 l 1
 166 388 l 1
443 388 m 1
 443 443 l 1
 499 443 l 1
 499 388 l 1
 443 388 l 1
111 333 m 1
 111 388 l 1
 166 388 l 1
 166 333 l 1
 111 333 l 1
111 277 m 1
 111 333 l 1
 166 333 l 1
 166 277 l 1
 111 277 l 1
111 222 m 1
 111 277 l 1
 166 277 l 1
 166 222 l 1
 111 222 l 1
111 166 m 1
 111 222 l 1
 166 222 l 1
 166 166 l 1
 111 166 l 1
111 111 m 1
 111 166 l 1
 222 166 l 1
 222 111 l 1
 111 111 l 1
166 55 m 1
 166 111 l 1
 222 111 l 1
 222 55 l 1
 166 55 l 1
443 55 m 1
 443 111 l 1
 499 111 l 1
 499 55 l 1
 443 55 l 1
222 0 m 1
 222 55 l 1
 499 55 l 1
 499 0 l 1
 222 0 l 1
EndSplineSet
EndChar

StartChar: d
Encoding: 100 100 69
Width: 554
Flags: HW
LayerCount: 2
Back
Fore
SplineSet
443 610 m 1
 443 665 l 1
 499 665 l 1
 499 610 l 1
 443 610 l 1
443 554 m 1
 443 610 l 1
 499 610 l 1
 499 554 l 1
 443 554 l 1
443 499 m 1
 443 554 l 1
 499 554 l 1
 499 499 l 1
 443 499 l 1
166 443 m 1
 166 499 l 1
 388 499 l 1
 388 443 l 1
 166 443 l 1
443 443 m 1
 443 499 l 1
 499 499 l 1
 499 443 l 1
 443 443 l 1
111 388 m 1
 111 443 l 1
 166 443 l 1
 166 388 l 1
 111 388 l 1
388 388 m 1
 388 443 l 1
 499 443 l 1
 499 388 l 1
 388 388 l 1
55 333 m 1
 55 388 l 1
 166 388 l 1
 166 333 l 1
 55 333 l 1
443 333 m 1
 443 388 l 1
 499 388 l 1
 499 333 l 1
 443 333 l 1
55 277 m 1
 55 333 l 1
 111 333 l 1
 111 277 l 1
 55 277 l 1
443 277 m 1
 443 333 l 1
 499 333 l 1
 499 277 l 1
 443 277 l 1
55 222 m 1
 55 277 l 1
 111 277 l 1
 111 222 l 1
 55 222 l 1
443 222 m 1
 443 277 l 1
 499 277 l 1
 499 222 l 1
 443 222 l 1
55 166 m 1
 55 222 l 1
 111 222 l 1
 111 166 l 1
 55 166 l 1
443 166 m 1
 443 222 l 1
 499 222 l 1
 499 166 l 1
 443 166 l 1
55 111 m 1
 55 166 l 1
 111 166 l 1
 111 111 l 1
 55 111 l 1
443 111 m 1
 443 166 l 1
 499 166 l 1
 499 111 l 1
 443 111 l 1
111 55 m 1
 111 111 l 1
 166 111 l 1
 166 55 l 1
 111 55 l 1
333 55 m 1
 333 111 l 1
 499 111 l 1
 499 55 l 1
 333 55 l 1
166 0 m 1
 166 55 l 1
 388 55 l 1
 388 0 l 1
 166 0 l 1
443 0 m 1
 443 55 l 1
 499 55 l 1
 499 0 l 1
 443 0 l 1
EndSplineSet
EndChar

StartChar: e
Encoding: 101 101 70
Width: 554
Flags: HW
LayerCount: 2
Back
Fore
SplineSet
166 443 m 1
 166 499 l 1
 443 499 l 1
 443 443 l 1
 166 443 l 1
111 388 m 1
 111 443 l 1
 166 443 l 1
 166 388 l 1
 111 388 l 1
388 388 m 1
 388 443 l 1
 443 443 l 1
 443 388 l 1
 388 388 l 1
55 333 m 1
 55 388 l 1
 111 388 l 1
 111 333 l 1
 55 333 l 1
443 333 m 1
 443 388 l 1
 499 388 l 1
 499 333 l 1
 443 333 l 1
55 277 m 1
 55 333 l 1
 111 333 l 1
 111 277 l 1
 55 277 l 1
443 277 m 1
 443 333 l 1
 499 333 l 1
 499 277 l 1
 443 277 l 1
55 222 m 1
 55 277 l 1
 499 277 l 1
 499 222 l 1
 55 222 l 1
55 166 m 1
 55 222 l 1
 111 222 l 1
 111 166 l 1
 55 166 l 1
55 111 m 1
 55 166 l 1
 111 166 l 1
 111 111 l 1
 55 111 l 1
111 55 m 1
 111 111 l 1
 166 111 l 1
 166 55 l 1
 111 55 l 1
443 55 m 1
 443 111 l 1
 499 111 l 1
 499 55 l 1
 443 55 l 1
166 0 m 1
 166 55 l 1
 499 55 l 1
 499 0 l 1
 166 0 l 1
EndSplineSet
EndChar

StartChar: f
Encoding: 102 102 71
Width: 554
Flags: HW
LayerCount: 2
Back
Fore
SplineSet
277 665 m 1
 277 720 l 1
 554 720 l 1
 554 665 l 1
 277 665 l 1
222 610 m 1
 222 665 l 1
 277 665 l 1
 277 610 l 1
 222 610 l 1
222 554 m 1
 222 610 l 1
 277 610 l 1
 277 554 l 1
 222 554 l 1
222 499 m 1
 222 554 l 1
 277 554 l 1
 277 499 l 1
 222 499 l 1
111 443 m 1
 111 499 l 1
 554 499 l 1
 554 443 l 1
 111 443 l 1
222 388 m 1
 222 443 l 1
 277 443 l 1
 277 388 l 1
 222 388 l 1
222 333 m 1
 222 388 l 1
 277 388 l 1
 277 333 l 1
 222 333 l 1
222 277 m 1
 222 333 l 1
 277 333 l 1
 277 277 l 1
 222 277 l 1
222 222 m 1
 222 277 l 1
 277 277 l 1
 277 222 l 1
 222 222 l 1
222 166 m 1
 222 222 l 1
 277 222 l 1
 277 166 l 1
 222 166 l 1
222 111 m 1
 222 166 l 1
 277 166 l 1
 277 111 l 1
 222 111 l 1
222 55 m 1
 222 111 l 1
 277 111 l 1
 277 55 l 1
 222 55 l 1
222 0 m 1
 222 55 l 1
 277 55 l 1
 277 0 l 1
 222 0 l 1
EndSplineSet
EndChar

StartChar: g
Encoding: 103 103 72
Width: 554
Flags: HW
LayerCount: 2
Back
Fore
SplineSet
166 443 m 1
 166 499 l 1
 388 499 l 1
 388 443 l 1
 166 443 l 1
443 443 m 1
 443 499 l 1
 499 499 l 1
 499 443 l 1
 443 443 l 1
111 388 m 1
 111 443 l 1
 166 443 l 1
 166 388 l 1
 111 388 l 1
388 388 m 1
 388 443 l 1
 499 443 l 1
 499 388 l 1
 388 388 l 1
55 333 m 1
 55 388 l 1
 111 388 l 1
 111 333 l 1
 55 333 l 1
443 333 m 1
 443 388 l 1
 499 388 l 1
 499 333 l 1
 443 333 l 1
55 277 m 1
 55 333 l 1
 111 333 l 1
 111 277 l 1
 55 277 l 1
443 277 m 1
 443 333 l 1
 499 333 l 1
 499 277 l 1
 443 277 l 1
55 222 m 1
 55 277 l 1
 111 277 l 1
 111 222 l 1
 55 222 l 1
443 222 m 1
 443 277 l 1
 499 277 l 1
 499 222 l 1
 443 222 l 1
55 166 m 1
 55 222 l 1
 111 222 l 1
 111 166 l 1
 55 166 l 1
443 166 m 1
 443 222 l 1
 499 222 l 1
 499 166 l 1
 443 166 l 1
55 111 m 1
 55 166 l 1
 111 166 l 1
 111 111 l 1
 55 111 l 1
443 111 m 1
 443 166 l 1
 499 166 l 1
 499 111 l 1
 443 111 l 1
111 55 m 1
 111 111 l 1
 166 111 l 1
 166 55 l 1
 111 55 l 1
333 55 m 1
 333 111 l 1
 499 111 l 1
 499 55 l 1
 333 55 l 1
166 0 m 1
 166 55 l 1
 388 55 l 1
 388 0 l 1
 166 0 l 1
443 0 m 1
 443 55 l 1
 499 55 l 1
 499 0 l 1
 443 0 l 1
443 -55 m 1
 443 0 l 1
 499 0 l 1
 499 -55 l 1
 443 -55 l 1
111 -111 m 1
 111 -55 l 1
 166 -55 l 1
 166 -111 l 1
 111 -111 l 1
443 -111 m 1
 443 -55 l 1
 499 -55 l 1
 499 -111 l 1
 443 -111 l 1
111 -166 m 1
 111 -111 l 1
 443 -111 l 1
 443 -166 l 1
 111 -166 l 1
EndSplineSet
EndChar

StartChar: h
Encoding: 104 104 73
Width: 554
Flags: HW
LayerCount: 2
Back
Fore
SplineSet
111 610 m 1
 111 665 l 1
 166 665 l 1
 166 610 l 1
 111 610 l 1
111 554 m 1
 111 610 l 1
 166 610 l 1
 166 554 l 1
 111 554 l 1
111 499 m 1
 111 554 l 1
 166 554 l 1
 166 499 l 1
 111 499 l 1
111 443 m 1
 111 499 l 1
 166 499 l 1
 166 443 l 1
 111 443 l 1
222 443 m 1
 222 499 l 1
 443 499 l 1
 443 443 l 1
 222 443 l 1
111 388 m 1
 111 443 l 1
 222 443 l 1
 222 388 l 1
 111 388 l 1
443 388 m 1
 443 443 l 1
 499 443 l 1
 499 388 l 1
 443 388 l 1
111 333 m 1
 111 388 l 1
 166 388 l 1
 166 333 l 1
 111 333 l 1
443 333 m 1
 443 388 l 1
 499 388 l 1
 499 333 l 1
 443 333 l 1
111 277 m 1
 111 333 l 1
 166 333 l 1
 166 277 l 1
 111 277 l 1
443 277 m 1
 443 333 l 1
 499 333 l 1
 499 277 l 1
 443 277 l 1
111 222 m 1
 111 277 l 1
 166 277 l 1
 166 222 l 1
 111 222 l 1
443 222 m 1
 443 277 l 1
 499 277 l 1
 499 222 l 1
 443 222 l 1
111 166 m 1
 111 222 l 1
 166 222 l 1
 166 166 l 1
 111 166 l 1
443 166 m 1
 443 222 l 1
 499 222 l 1
 499 166 l 1
 443 166 l 1
111 111 m 1
 111 166 l 1
 166 166 l 1
 166 111 l 1
 111 111 l 1
443 111 m 1
 443 166 l 1
 499 166 l 1
 499 111 l 1
 443 111 l 1
111 55 m 1
 111 111 l 1
 166 111 l 1
 166 55 l 1
 111 55 l 1
443 55 m 1
 443 111 l 1
 499 111 l 1
 499 55 l 1
 443 55 l 1
111 0 m 1
 111 55 l 1
 166 55 l 1
 166 0 l 1
 111 0 l 1
443 0 m 1
 443 55 l 1
 499 55 l 1
 499 0 l 1
 443 0 l 1
EndSplineSet
EndChar

StartChar: i
Encoding: 105 105 74
Width: 554
Flags: HW
LayerCount: 2
Back
Fore
SplineSet
277 610 m 1
 277 665 l 1
 333 665 l 1
 333 610 l 1
 277 610 l 1
111 443 m 1
 111 499 l 1
 333 499 l 1
 333 443 l 1
 111 443 l 1
277 388 m 1
 277 443 l 1
 333 443 l 1
 333 388 l 1
 277 388 l 1
277 333 m 1
 277 388 l 1
 333 388 l 1
 333 333 l 1
 277 333 l 1
277 277 m 1
 277 333 l 1
 333 333 l 1
 333 277 l 1
 277 277 l 1
277 222 m 1
 277 277 l 1
 333 277 l 1
 333 222 l 1
 277 222 l 1
277 166 m 1
 277 222 l 1
 333 222 l 1
 333 166 l 1
 277 166 l 1
277 111 m 1
 277 166 l 1
 333 166 l 1
 333 111 l 1
 277 111 l 1
277 55 m 1
 277 111 l 1
 333 111 l 1
 333 55 l 1
 277 55 l 1
277 0 m 1
 277 55 l 1
 333 55 l 1
 333 0 l 1
 277 0 l 1
EndSplineSet
EndChar

StartChar: j
Encoding: 106 106 75
Width: 554
Flags: HW
LayerCount: 2
Back
Fore
SplineSet
333 610 m 1
 333 665 l 1
 388 665 l 1
 388 610 l 1
 333 610 l 1
166 443 m 1
 166 499 l 1
 388 499 l 1
 388 443 l 1
 166 443 l 1
333 388 m 1
 333 443 l 1
 388 443 l 1
 388 388 l 1
 333 388 l 1
333 333 m 1
 333 388 l 1
 388 388 l 1
 388 333 l 1
 333 333 l 1
333 277 m 1
 333 333 l 1
 388 333 l 1
 388 277 l 1
 333 277 l 1
333 222 m 1
 333 277 l 1
 388 277 l 1
 388 222 l 1
 333 222 l 1
333 166 m 1
 333 222 l 1
 388 222 l 1
 388 166 l 1
 333 166 l 1
333 111 m 1
 333 166 l 1
 388 166 l 1
 388 111 l 1
 333 111 l 1
333 55 m 1
 333 111 l 1
 388 111 l 1
 388 55 l 1
 333 55 l 1
333 0 m 1
 333 55 l 1
 388 55 l 1
 388 0 l 1
 333 0 l 1
333 -55 m 1
 333 0 l 1
 388 0 l 1
 388 -55 l 1
 333 -55 l 1
111 -111 m 1
 111 -55 l 1
 166 -55 l 1
 166 -111 l 1
 111 -111 l 1
333 -111 m 1
 333 -55 l 1
 388 -55 l 1
 388 -111 l 1
 333 -111 l 1
111 -166 m 1
 111 -111 l 1
 333 -111 l 1
 333 -166 l 1
 111 -166 l 1
EndSplineSet
EndChar

StartChar: k
Encoding: 107 107 76
Width: 554
Flags: HW
LayerCount: 2
Back
Fore
SplineSet
111 610 m 1
 111 665 l 1
 166 665 l 1
 166 610 l 1
 111 610 l 1
111 554 m 1
 111 610 l 1
 166 610 l 1
 166 554 l 1
 111 554 l 1
111 499 m 1
 111 554 l 1
 166 554 l 1
 166 499 l 1
 111 499 l 1
111 443 m 1
 111 499 l 1
 166 499 l 1
 166 443 l 1
 111 443 l 1
333 443 m 1
 333 499 l 1
 443 499 l 1
 443 443 l 1
 333 443 l 1
111 388 m 1
 111 443 l 1
 166 443 l 1
 166 388 l 1
 111 388 l 1
277 388 m 1
 277 443 l 1
 388 443 l 1
 388 388 l 1
 277 388 l 1
111 333 m 1
 111 388 l 1
 166 388 l 1
 166 333 l 1
 111 333 l 1
277 333 m 1
 277 388 l 1
 333 388 l 1
 333 333 l 1
 277 333 l 1
111 277 m 1
 111 333 l 1
 166 333 l 1
 166 277 l 1
 111 277 l 1
222 277 m 1
 222 333 l 1
 277 333 l 1
 277 277 l 1
 222 277 l 1
111 222 m 1
 111 277 l 1
 277 277 l 1
 277 222 l 1
 111 222 l 1
111 166 m 1
 111 222 l 1
 166 222 l 1
 166 166 l 1
 111 166 l 1
222 166 m 1
 222 222 l 1
 333 222 l 1
 333 166 l 1
 222 166 l 1
111 111 m 1
 111 166 l 1
 166 166 l 1
 166 111 l 1
 111 111 l 1
277 111 m 1
 277 166 l 1
 388 166 l 1
 388 111 l 1
 277 111 l 1
111 55 m 1
 111 111 l 1
 166 111 l 1
 166 55 l 1
 111 55 l 1
333 55 m 1
 333 111 l 1
 388 111 l 1
 388 55 l 1
 333 55 l 1
111 0 m 1
 111 55 l 1
 166 55 l 1
 166 0 l 1
 111 0 l 1
388 0 m 1
 388 55 l 1
 499 55 l 1
 499 0 l 1
 388 0 l 1
EndSplineSet
EndChar

StartChar: l
Encoding: 108 108 77
Width: 554
Flags: HW
LayerCount: 2
Back
Fore
SplineSet
111 610 m 1
 111 665 l 1
 333 665 l 1
 333 610 l 1
 111 610 l 1
277 554 m 1
 277 610 l 1
 333 610 l 1
 333 554 l 1
 277 554 l 1
277 499 m 1
 277 554 l 1
 333 554 l 1
 333 499 l 1
 277 499 l 1
277 443 m 1
 277 499 l 1
 333 499 l 1
 333 443 l 1
 277 443 l 1
277 388 m 1
 277 443 l 1
 333 443 l 1
 333 388 l 1
 277 388 l 1
277 333 m 1
 277 388 l 1
 333 388 l 1
 333 333 l 1
 277 333 l 1
277 277 m 1
 277 333 l 1
 333 333 l 1
 333 277 l 1
 277 277 l 1
277 222 m 1
 277 277 l 1
 333 277 l 1
 333 222 l 1
 277 222 l 1
277 166 m 1
 277 222 l 1
 333 222 l 1
 333 166 l 1
 277 166 l 1
277 111 m 1
 277 166 l 1
 333 166 l 1
 333 111 l 1
 277 111 l 1
277 55 m 1
 277 111 l 1
 333 111 l 1
 333 55 l 1
 277 55 l 1
277 0 m 1
 277 55 l 1
 333 55 l 1
 333 0 l 1
 277 0 l 1
EndSplineSet
EndChar

StartChar: m
Encoding: 109 109 78
Width: 554
Flags: HW
LayerCount: 2
Back
Fore
SplineSet
55 443 m 1
 55 499 l 1
 111 499 l 1
 111 443 l 1
 55 443 l 1
166 443 m 1
 166 499 l 1
 277 499 l 1
 277 443 l 1
 166 443 l 1
388 443 m 1
 388 499 l 1
 554 499 l 1
 554 443 l 1
 388 443 l 1
55 388 m 1
 55 443 l 1
 166 443 l 1
 166 388 l 1
 55 388 l 1
277 388 m 1
 277 443 l 1
 388 443 l 1
 388 388 l 1
 277 388 l 1
499 388 m 1
 499 443 l 1
 554 443 l 1
 554 388 l 1
 499 388 l 1
55 333 m 1
 55 388 l 1
 111 388 l 1
 111 333 l 1
 55 333 l 1
277 333 m 1
 277 388 l 1
 333 388 l 1
 333 333 l 1
 277 333 l 1
499 333 m 1
 499 388 l 1
 554 388 l 1
 554 333 l 1
 499 333 l 1
55 277 m 1
 55 333 l 1
 111 333 l 1
 111 277 l 1
 55 277 l 1
277 277 m 1
 277 333 l 1
 333 333 l 1
 333 277 l 1
 277 277 l 1
499 277 m 1
 499 333 l 1
 554 333 l 1
 554 277 l 1
 499 277 l 1
55 222 m 1
 55 277 l 1
 111 277 l 1
 111 222 l 1
 55 222 l 1
277 222 m 1
 277 277 l 1
 333 277 l 1
 333 222 l 1
 277 222 l 1
499 222 m 1
 499 277 l 1
 554 277 l 1
 554 222 l 1
 499 222 l 1
55 166 m 1
 55 222 l 1
 111 222 l 1
 111 166 l 1
 55 166 l 1
277 166 m 1
 277 222 l 1
 333 222 l 1
 333 166 l 1
 277 166 l 1
499 166 m 1
 499 222 l 1
 554 222 l 1
 554 166 l 1
 499 166 l 1
55 111 m 1
 55 166 l 1
 111 166 l 1
 111 111 l 1
 55 111 l 1
277 111 m 1
 277 166 l 1
 333 166 l 1
 333 111 l 1
 277 111 l 1
499 111 m 1
 499 166 l 1
 554 166 l 1
 554 111 l 1
 499 111 l 1
55 55 m 1
 55 111 l 1
 111 111 l 1
 111 55 l 1
 55 55 l 1
277 55 m 1
 277 111 l 1
 333 111 l 1
 333 55 l 1
 277 55 l 1
499 55 m 1
 499 111 l 1
 554 111 l 1
 554 55 l 1
 499 55 l 1
55 0 m 1
 55 55 l 1
 111 55 l 1
 111 0 l 1
 55 0 l 1
277 0 m 1
 277 55 l 1
 333 55 l 1
 333 0 l 1
 277 0 l 1
499 0 m 1
 499 55 l 1
 554 55 l 1
 554 0 l 1
 499 0 l 1
EndSplineSet
EndChar

StartChar: n
Encoding: 110 110 79
Width: 554
Flags: HW
LayerCount: 2
Back
Fore
SplineSet
111 443 m 1
 111 499 l 1
 166 499 l 1
 166 443 l 1
 111 443 l 1
222 443 m 1
 222 499 l 1
 443 499 l 1
 443 443 l 1
 222 443 l 1
111 388 m 1
 111 443 l 1
 222 443 l 1
 222 388 l 1
 111 388 l 1
443 388 m 1
 443 443 l 1
 499 443 l 1
 499 388 l 1
 443 388 l 1
111 333 m 1
 111 388 l 1
 166 388 l 1
 166 333 l 1
 111 333 l 1
443 333 m 1
 443 388 l 1
 499 388 l 1
 499 333 l 1
 443 333 l 1
111 277 m 1
 111 333 l 1
 166 333 l 1
 166 277 l 1
 111 277 l 1
443 277 m 1
 443 333 l 1
 499 333 l 1
 499 277 l 1
 443 277 l 1
111 222 m 1
 111 277 l 1
 166 277 l 1
 166 222 l 1
 111 222 l 1
443 222 m 1
 443 277 l 1
 499 277 l 1
 499 222 l 1
 443 222 l 1
111 166 m 1
 111 222 l 1
 166 222 l 1
 166 166 l 1
 111 166 l 1
443 166 m 1
 443 222 l 1
 499 222 l 1
 499 166 l 1
 443 166 l 1
111 111 m 1
 111 166 l 1
 166 166 l 1
 166 111 l 1
 111 111 l 1
443 111 m 1
 443 166 l 1
 499 166 l 1
 499 111 l 1
 443 111 l 1
111 55 m 1
 111 111 l 1
 166 111 l 1
 166 55 l 1
 111 55 l 1
443 55 m 1
 443 111 l 1
 499 111 l 1
 499 55 l 1
 443 55 l 1
111 0 m 1
 111 55 l 1
 166 55 l 1
 166 0 l 1
 111 0 l 1
443 0 m 1
 443 55 l 1
 499 55 l 1
 499 0 l 1
 443 0 l 1
EndSplineSet
EndChar

StartChar: o
Encoding: 111 111 80
Width: 554
Flags: HW
LayerCount: 2
Back
Fore
SplineSet
166 443 m 1
 166 499 l 1
 443 499 l 1
 443 443 l 1
 166 443 l 1
111 388 m 1
 111 443 l 1
 222 443 l 1
 222 388 l 1
 111 388 l 1
388 388 m 1
 388 443 l 1
 499 443 l 1
 499 388 l 1
 388 388 l 1
55 333 m 1
 55 388 l 1
 166 388 l 1
 166 333 l 1
 55 333 l 1
443 333 m 1
 443 388 l 1
 554 388 l 1
 554 333 l 1
 443 333 l 1
55 277 m 1
 55 333 l 1
 111 333 l 1
 111 277 l 1
 55 277 l 1
499 277 m 1
 499 333 l 1
 554 333 l 1
 554 277 l 1
 499 277 l 1
55 222 m 1
 55 277 l 1
 111 277 l 1
 111 222 l 1
 55 222 l 1
499 222 m 1
 499 277 l 1
 554 277 l 1
 554 222 l 1
 499 222 l 1
55 166 m 1
 55 222 l 1
 111 222 l 1
 111 166 l 1
 55 166 l 1
499 166 m 1
 499 222 l 1
 554 222 l 1
 554 166 l 1
 499 166 l 1
55 111 m 1
 55 166 l 1
 166 166 l 1
 166 111 l 1
 55 111 l 1
443 111 m 1
 443 166 l 1
 554 166 l 1
 554 111 l 1
 443 111 l 1
111 55 m 1
 111 111 l 1
 222 111 l 1
 222 55 l 1
 111 55 l 1
388 55 m 1
 388 111 l 1
 499 111 l 1
 499 55 l 1
 388 55 l 1
166 0 m 1
 166 55 l 1
 443 55 l 1
 443 0 l 1
 166 0 l 1
EndSplineSet
EndChar

StartChar: p
Encoding: 112 112 81
Width: 554
Flags: HW
LayerCount: 2
Back
Fore
SplineSet
55 443 m 1
 55 499 l 1
 111 499 l 1
 111 443 l 1
 55 443 l 1
166 443 m 1
 166 499 l 1
 388 499 l 1
 388 443 l 1
 166 443 l 1
55 388 m 1
 55 443 l 1
 222 443 l 1
 222 388 l 1
 55 388 l 1
388 388 m 1
 388 443 l 1
 443 443 l 1
 443 388 l 1
 388 388 l 1
55 333 m 1
 55 388 l 1
 111 388 l 1
 111 333 l 1
 55 333 l 1
443 333 m 1
 443 388 l 1
 499 388 l 1
 499 333 l 1
 443 333 l 1
55 277 m 1
 55 333 l 1
 111 333 l 1
 111 277 l 1
 55 277 l 1
443 277 m 1
 443 333 l 1
 499 333 l 1
 499 277 l 1
 443 277 l 1
55 222 m 1
 55 277 l 1
 111 277 l 1
 111 222 l 1
 55 222 l 1
443 222 m 1
 443 277 l 1
 499 277 l 1
 499 222 l 1
 443 222 l 1
55 166 m 1
 55 222 l 1
 111 222 l 1
 111 166 l 1
 55 166 l 1
443 166 m 1
 443 222 l 1
 499 222 l 1
 499 166 l 1
 443 166 l 1
55 111 m 1
 55 166 l 1
 111 166 l 1
 111 111 l 1
 55 111 l 1
388 111 m 1
 388 166 l 1
 499 166 l 1
 499 111 l 1
 388 111 l 1
55 55 m 1
 55 111 l 1
 166 111 l 1
 166 55 l 1
 55 55 l 1
388 55 m 1
 388 111 l 1
 443 111 l 1
 443 55 l 1
 388 55 l 1
55 0 m 1
 55 55 l 1
 111 55 l 1
 111 0 l 1
 55 0 l 1
166 0 m 1
 166 55 l 1
 388 55 l 1
 388 0 l 1
 166 0 l 1
55 -55 m 1
 55 0 l 1
 111 0 l 1
 111 -55 l 1
 55 -55 l 1
55 -111 m 1
 55 -55 l 1
 111 -55 l 1
 111 -111 l 1
 55 -111 l 1
55 -166 m 1
 55 -111 l 1
 111 -111 l 1
 111 -166 l 1
 55 -166 l 1
EndSplineSet
EndChar

StartChar: q
Encoding: 113 113 82
Width: 554
Flags: HW
LayerCount: 2
Back
Fore
SplineSet
166 443 m 1
 166 499 l 1
 388 499 l 1
 388 443 l 1
 166 443 l 1
443 443 m 1
 443 499 l 1
 499 499 l 1
 499 443 l 1
 443 443 l 1
111 388 m 1
 111 443 l 1
 166 443 l 1
 166 388 l 1
 111 388 l 1
388 388 m 1
 388 443 l 1
 499 443 l 1
 499 388 l 1
 388 388 l 1
55 333 m 1
 55 388 l 1
 166 388 l 1
 166 333 l 1
 55 333 l 1
443 333 m 1
 443 388 l 1
 499 388 l 1
 499 333 l 1
 443 333 l 1
55 277 m 1
 55 333 l 1
 111 333 l 1
 111 277 l 1
 55 277 l 1
443 277 m 1
 443 333 l 1
 499 333 l 1
 499 277 l 1
 443 277 l 1
55 222 m 1
 55 277 l 1
 111 277 l 1
 111 222 l 1
 55 222 l 1
443 222 m 1
 443 277 l 1
 499 277 l 1
 499 222 l 1
 443 222 l 1
55 166 m 1
 55 222 l 1
 111 222 l 1
 111 166 l 1
 55 166 l 1
443 166 m 1
 443 222 l 1
 499 222 l 1
 499 166 l 1
 443 166 l 1
55 111 m 1
 55 166 l 1
 111 166 l 1
 111 111 l 1
 55 111 l 1
443 111 m 1
 443 166 l 1
 499 166 l 1
 499 111 l 1
 443 111 l 1
111 55 m 1
 111 111 l 1
 166 111 l 1
 166 55 l 1
 111 55 l 1
333 55 m 1
 333 111 l 1
 499 111 l 1
 499 55 l 1
 333 55 l 1
166 0 m 1
 166 55 l 1
 388 55 l 1
 388 0 l 1
 166 0 l 1
443 0 m 1
 443 55 l 1
 499 55 l 1
 499 0 l 1
 443 0 l 1
443 -55 m 1
 443 0 l 1
 499 0 l 1
 499 -55 l 1
 443 -55 l 1
443 -111 m 1
 443 -55 l 1
 499 -55 l 1
 499 -111 l 1
 443 -111 l 1
443 -166 m 1
 443 -111 l 1
 499 -111 l 1
 499 -166 l 1
 443 -166 l 1
EndSplineSet
EndChar

StartChar: r
Encoding: 114 114 83
Width: 554
Flags: HW
LayerCount: 2
Back
Fore
SplineSet
166 443 m 1
 166 499 l 1
 222 499 l 1
 222 443 l 1
 166 443 l 1
277 443 m 1
 277 499 l 1
 499 499 l 1
 499 443 l 1
 277 443 l 1
166 388 m 1
 166 443 l 1
 277 443 l 1
 277 388 l 1
 166 388 l 1
443 388 m 1
 443 443 l 1
 499 443 l 1
 499 388 l 1
 443 388 l 1
166 333 m 1
 166 388 l 1
 222 388 l 1
 222 333 l 1
 166 333 l 1
166 277 m 1
 166 333 l 1
 222 333 l 1
 222 277 l 1
 166 277 l 1
166 222 m 1
 166 277 l 1
 222 277 l 1
 222 222 l 1
 166 222 l 1
166 166 m 1
 166 222 l 1
 222 222 l 1
 222 166 l 1
 166 166 l 1
166 111 m 1
 166 166 l 1
 222 166 l 1
 222 111 l 1
 166 111 l 1
166 55 m 1
 166 111 l 1
 222 111 l 1
 222 55 l 1
 166 55 l 1
166 0 m 1
 166 55 l 1
 222 55 l 1
 222 0 l 1
 166 0 l 1
EndSplineSet
EndChar

StartChar: s
Encoding: 115 115 84
Width: 554
Flags: HW
LayerCount: 2
Back
Fore
SplineSet
166 443 m 1
 166 499 l 1
 499 499 l 1
 499 443 l 1
 166 443 l 1
111 388 m 1
 111 443 l 1
 166 443 l 1
 166 388 l 1
 111 388 l 1
111 333 m 1
 111 388 l 1
 166 388 l 1
 166 333 l 1
 111 333 l 1
111 277 m 1
 111 333 l 1
 277 333 l 1
 277 277 l 1
 111 277 l 1
222 222 m 1
 222 277 l 1
 388 277 l 1
 388 222 l 1
 222 222 l 1
388 166 m 1
 388 222 l 1
 499 222 l 1
 499 166 l 1
 388 166 l 1
443 111 m 1
 443 166 l 1
 499 166 l 1
 499 111 l 1
 443 111 l 1
111 55 m 1
 111 111 l 1
 166 111 l 1
 166 55 l 1
 111 55 l 1
388 55 m 1
 388 111 l 1
 499 111 l 1
 499 55 l 1
 388 55 l 1
111 0 m 1
 111 55 l 1
 443 55 l 1
 443 0 l 1
 111 0 l 1
EndSplineSet
EndChar

StartChar: t
Encoding: 116 116 85
Width: 554
Flags: HW
LayerCount: 2
Back
Fore
SplineSet
222 554 m 1
 222 610 l 1
 277 610 l 1
 277 554 l 1
 222 554 l 1
222 499 m 1
 222 554 l 1
 277 554 l 1
 277 499 l 1
 222 499 l 1
111 443 m 1
 111 499 l 1
 499 499 l 1
 499 443 l 1
 111 443 l 1
222 388 m 1
 222 443 l 1
 277 443 l 1
 277 388 l 1
 222 388 l 1
222 333 m 1
 222 388 l 1
 277 388 l 1
 277 333 l 1
 222 333 l 1
222 277 m 1
 222 333 l 1
 277 333 l 1
 277 277 l 1
 222 277 l 1
222 222 m 1
 222 277 l 1
 277 277 l 1
 277 222 l 1
 222 222 l 1
222 166 m 1
 222 222 l 1
 277 222 l 1
 277 166 l 1
 222 166 l 1
222 111 m 1
 222 166 l 1
 277 166 l 1
 277 111 l 1
 222 111 l 1
222 55 m 1
 222 111 l 1
 277 111 l 1
 277 55 l 1
 222 55 l 1
277 0 m 1
 277 55 l 1
 499 55 l 1
 499 0 l 1
 277 0 l 1
EndSplineSet
EndChar

StartChar: u
Encoding: 117 117 86
Width: 554
Flags: HW
LayerCount: 2
Back
Fore
SplineSet
111 443 m 1
 111 499 l 1
 166 499 l 1
 166 443 l 1
 111 443 l 1
443 443 m 1
 443 499 l 1
 499 499 l 1
 499 443 l 1
 443 443 l 1
111 388 m 1
 111 443 l 1
 166 443 l 1
 166 388 l 1
 111 388 l 1
443 388 m 1
 443 443 l 1
 499 443 l 1
 499 388 l 1
 443 388 l 1
111 333 m 1
 111 388 l 1
 166 388 l 1
 166 333 l 1
 111 333 l 1
443 333 m 1
 443 388 l 1
 499 388 l 1
 499 333 l 1
 443 333 l 1
111 277 m 1
 111 333 l 1
 166 333 l 1
 166 277 l 1
 111 277 l 1
443 277 m 1
 443 333 l 1
 499 333 l 1
 499 277 l 1
 443 277 l 1
111 222 m 1
 111 277 l 1
 166 277 l 1
 166 222 l 1
 111 222 l 1
443 222 m 1
 443 277 l 1
 499 277 l 1
 499 222 l 1
 443 222 l 1
111 166 m 1
 111 222 l 1
 166 222 l 1
 166 166 l 1
 111 166 l 1
443 166 m 1
 443 222 l 1
 499 222 l 1
 499 166 l 1
 443 166 l 1
111 111 m 1
 111 166 l 1
 166 166 l 1
 166 111 l 1
 111 111 l 1
443 111 m 1
 443 166 l 1
 499 166 l 1
 499 111 l 1
 443 111 l 1
111 55 m 1
 111 111 l 1
 166 111 l 1
 166 55 l 1
 111 55 l 1
388 55 m 1
 388 111 l 1
 499 111 l 1
 499 55 l 1
 388 55 l 1
166 0 m 1
 166 55 l 1
 388 55 l 1
 388 0 l 1
 166 0 l 1
443 0 m 1
 443 55 l 1
 499 55 l 1
 499 0 l 1
 443 0 l 1
EndSplineSet
EndChar

StartChar: v
Encoding: 118 118 87
Width: 554
Flags: HW
LayerCount: 2
Back
Fore
SplineSet
55 443 m 1
 55 499 l 1
 166 499 l 1
 166 443 l 1
 55 443 l 1
499 443 m 1
 499 499 l 1
 554 499 l 1
 554 443 l 1
 499 443 l 1
111 388 m 1
 111 443 l 1
 166 443 l 1
 166 388 l 1
 111 388 l 1
443 388 m 1
 443 443 l 1
 499 443 l 1
 499 388 l 1
 443 388 l 1
111 333 m 1
 111 388 l 1
 166 388 l 1
 166 333 l 1
 111 333 l 1
443 333 m 1
 443 388 l 1
 499 388 l 1
 499 333 l 1
 443 333 l 1
166 277 m 1
 166 333 l 1
 222 333 l 1
 222 277 l 1
 166 277 l 1
388 277 m 1
 388 333 l 1
 443 333 l 1
 443 277 l 1
 388 277 l 1
166 222 m 1
 166 277 l 1
 222 277 l 1
 222 222 l 1
 166 222 l 1
388 222 m 1
 388 277 l 1
 443 277 l 1
 443 222 l 1
 388 222 l 1
222 166 m 1
 222 222 l 1
 277 222 l 1
 277 166 l 1
 222 166 l 1
333 166 m 1
 333 222 l 1
 443 222 l 1
 443 166 l 1
 333 166 l 1
222 111 m 1
 222 166 l 1
 277 166 l 1
 277 111 l 1
 222 111 l 1
333 111 m 1
 333 166 l 1
 388 166 l 1
 388 111 l 1
 333 111 l 1
222 55 m 1
 222 111 l 1
 277 111 l 1
 277 55 l 1
 222 55 l 1
333 55 m 1
 333 111 l 1
 388 111 l 1
 388 55 l 1
 333 55 l 1
277 0 m 1
 277 55 l 1
 333 55 l 1
 333 0 l 1
 277 0 l 1
EndSplineSet
EndChar

StartChar: w
Encoding: 119 119 88
Width: 554
Flags: HW
LayerCount: 2
Back
Fore
SplineSet
0 443 m 1
 0 499 l 1
 55 499 l 1
 55 443 l 1
 0 443 l 1
499 443 m 1
 499 499 l 1
 554 499 l 1
 554 443 l 1
 499 443 l 1
0 388 m 1
 0 443 l 1
 55 443 l 1
 55 388 l 1
 0 388 l 1
222 388 m 1
 222 443 l 1
 333 443 l 1
 333 388 l 1
 222 388 l 1
499 388 m 1
 499 443 l 1
 554 443 l 1
 554 388 l 1
 499 388 l 1
0 333 m 1
 0 388 l 1
 55 388 l 1
 55 333 l 1
 0 333 l 1
222 333 m 1
 222 388 l 1
 333 388 l 1
 333 333 l 1
 222 333 l 1
443 333 m 1
 443 388 l 1
 499 388 l 1
 499 333 l 1
 443 333 l 1
55 277 m 1
 55 333 l 1
 111 333 l 1
 111 277 l 1
 55 277 l 1
166 277 m 1
 166 333 l 1
 222 333 l 1
 222 277 l 1
 166 277 l 1
277 277 m 1
 277 333 l 1
 333 333 l 1
 333 277 l 1
 277 277 l 1
443 277 m 1
 443 333 l 1
 499 333 l 1
 499 277 l 1
 443 277 l 1
55 222 m 1
 55 277 l 1
 111 277 l 1
 111 222 l 1
 55 222 l 1
166 222 m 1
 166 277 l 1
 222 277 l 1
 222 222 l 1
 166 222 l 1
333 222 m 1
 333 277 l 1
 388 277 l 1
 388 222 l 1
 333 222 l 1
443 222 m 1
 443 277 l 1
 499 277 l 1
 499 222 l 1
 443 222 l 1
55 166 m 1
 55 222 l 1
 111 222 l 1
 111 166 l 1
 55 166 l 1
166 166 m 1
 166 222 l 1
 222 222 l 1
 222 166 l 1
 166 166 l 1
333 166 m 1
 333 222 l 1
 388 222 l 1
 388 166 l 1
 333 166 l 1
443 166 m 1
 443 222 l 1
 499 222 l 1
 499 166 l 1
 443 166 l 1
55 111 m 1
 55 166 l 1
 111 166 l 1
 111 111 l 1
 55 111 l 1
166 111 m 1
 166 166 l 1
 222 166 l 1
 222 111 l 1
 166 111 l 1
333 111 m 1
 333 166 l 1
 388 166 l 1
 388 111 l 1
 333 111 l 1
443 111 m 1
 443 166 l 1
 499 166 l 1
 499 111 l 1
 443 111 l 1
55 55 m 1
 55 111 l 1
 166 111 l 1
 166 55 l 1
 55 55 l 1
333 55 m 1
 333 111 l 1
 443 111 l 1
 443 55 l 1
 333 55 l 1
55 0 m 1
 55 55 l 1
 166 55 l 1
 166 0 l 1
 55 0 l 1
333 0 m 1
 333 55 l 1
 443 55 l 1
 443 0 l 1
 333 0 l 1
EndSplineSet
EndChar

StartChar: x
Encoding: 120 120 89
Width: 554
Flags: HW
LayerCount: 2
Back
Fore
SplineSet
55 443 m 1
 55 499 l 1
 166 499 l 1
 166 443 l 1
 55 443 l 1
443 443 m 1
 443 499 l 1
 499 499 l 1
 499 443 l 1
 443 443 l 1
166 388 m 1
 166 443 l 1
 222 443 l 1
 222 388 l 1
 166 388 l 1
388 388 m 1
 388 443 l 1
 443 443 l 1
 443 388 l 1
 388 388 l 1
166 333 m 1
 166 388 l 1
 277 388 l 1
 277 333 l 1
 166 333 l 1
333 333 m 1
 333 388 l 1
 443 388 l 1
 443 333 l 1
 333 333 l 1
222 277 m 1
 222 333 l 1
 277 333 l 1
 277 277 l 1
 222 277 l 1
333 277 m 1
 333 333 l 1
 388 333 l 1
 388 277 l 1
 333 277 l 1
277 222 m 1
 277 277 l 1
 333 277 l 1
 333 222 l 1
 277 222 l 1
222 166 m 1
 222 222 l 1
 277 222 l 1
 277 166 l 1
 222 166 l 1
333 166 m 1
 333 222 l 1
 388 222 l 1
 388 166 l 1
 333 166 l 1
166 111 m 1
 166 166 l 1
 222 166 l 1
 222 111 l 1
 166 111 l 1
333 111 m 1
 333 166 l 1
 443 166 l 1
 443 111 l 1
 333 111 l 1
111 55 m 1
 111 111 l 1
 222 111 l 1
 222 55 l 1
 111 55 l 1
388 55 m 1
 388 111 l 1
 443 111 l 1
 443 55 l 1
 388 55 l 1
55 0 m 1
 55 55 l 1
 166 55 l 1
 166 0 l 1
 55 0 l 1
443 0 m 1
 443 55 l 1
 554 55 l 1
 554 0 l 1
 443 0 l 1
EndSplineSet
EndChar

StartChar: y
Encoding: 121 121 90
Width: 554
Flags: HW
LayerCount: 2
Back
Fore
SplineSet
55 443 m 1
 55 499 l 1
 166 499 l 1
 166 443 l 1
 55 443 l 1
499 443 m 1
 499 499 l 1
 554 499 l 1
 554 443 l 1
 499 443 l 1
111 388 m 1
 111 443 l 1
 166 443 l 1
 166 388 l 1
 111 388 l 1
443 388 m 1
 443 443 l 1
 499 443 l 1
 499 388 l 1
 443 388 l 1
111 333 m 1
 111 388 l 1
 166 388 l 1
 166 333 l 1
 111 333 l 1
443 333 m 1
 443 388 l 1
 499 388 l 1
 499 333 l 1
 443 333 l 1
166 277 m 1
 166 333 l 1
 222 333 l 1
 222 277 l 1
 166 277 l 1
388 277 m 1
 388 333 l 1
 443 333 l 1
 443 277 l 1
 388 277 l 1
166 222 m 1
 166 277 l 1
 222 277 l 1
 222 222 l 1
 166 222 l 1
388 222 m 1
 388 277 l 1
 443 277 l 1
 443 222 l 1
 388 222 l 1
222 166 m 1
 222 222 l 1
 277 222 l 1
 277 166 l 1
 222 166 l 1
333 166 m 1
 333 222 l 1
 388 222 l 1
 388 166 l 1
 333 166 l 1
222 111 m 1
 222 166 l 1
 277 166 l 1
 277 111 l 1
 222 111 l 1
333 111 m 1
 333 166 l 1
 388 166 l 1
 388 111 l 1
 333 111 l 1
277 55 m 1
 277 111 l 1
 333 111 l 1
 333 55 l 1
 277 55 l 1
277 0 m 1
 277 55 l 1
 333 55 l 1
 333 0 l 1
 277 0 l 1
222 -55 m 1
 222 0 l 1
 333 0 l 1
 333 -55 l 1
 222 -55 l 1
222 -111 m 1
 222 -55 l 1
 277 -55 l 1
 277 -111 l 1
 222 -111 l 1
55 -166 m 1
 55 -111 l 1
 222 -111 l 1
 222 -166 l 1
 55 -166 l 1
EndSplineSet
EndChar

StartChar: z
Encoding: 122 122 91
Width: 554
Flags: HW
LayerCount: 2
Back
Fore
SplineSet
55 443 m 1
 55 499 l 1
 499 499 l 1
 499 443 l 1
 55 443 l 1
388 388 m 1
 388 443 l 1
 443 443 l 1
 443 388 l 1
 388 388 l 1
333 333 m 1
 333 388 l 1
 388 388 l 1
 388 333 l 1
 333 333 l 1
277 277 m 1
 277 333 l 1
 333 333 l 1
 333 277 l 1
 277 277 l 1
222 222 m 1
 222 277 l 1
 333 277 l 1
 333 222 l 1
 222 222 l 1
166 166 m 1
 166 222 l 1
 277 222 l 1
 277 166 l 1
 166 166 l 1
111 111 m 1
 111 166 l 1
 222 166 l 1
 222 111 l 1
 111 111 l 1
111 55 m 1
 111 111 l 1
 166 111 l 1
 166 55 l 1
 111 55 l 1
55 0 m 1
 55 55 l 1
 499 55 l 1
 499 0 l 1
 55 0 l 1
EndSplineSet
EndChar

StartChar: braceleft
Encoding: 123 123 92
Width: 554
Flags: HW
LayerCount: 2
Back
Fore
SplineSet
277 610 m 1
 277 665 l 1
 443 665 l 1
 443 610 l 1
 277 610 l 1
222 554 m 1
 222 610 l 1
 277 610 l 1
 277 554 l 1
 222 554 l 1
222 499 m 1
 222 554 l 1
 277 554 l 1
 277 499 l 1
 222 499 l 1
222 443 m 1
 222 499 l 1
 277 499 l 1
 277 443 l 1
 222 443 l 1
222 388 m 1
 222 443 l 1
 277 443 l 1
 277 388 l 1
 222 388 l 1
222 333 m 1
 222 388 l 1
 277 388 l 1
 277 333 l 1
 222 333 l 1
222 277 m 1
 222 333 l 1
 277 333 l 1
 277 277 l 1
 222 277 l 1
111 222 m 1
 111 277 l 1
 277 277 l 1
 277 222 l 1
 111 222 l 1
222 166 m 1
 222 222 l 1
 277 222 l 1
 277 166 l 1
 222 166 l 1
222 111 m 1
 222 166 l 1
 277 166 l 1
 277 111 l 1
 222 111 l 1
222 55 m 1
 222 111 l 1
 277 111 l 1
 277 55 l 1
 222 55 l 1
222 0 m 1
 222 55 l 1
 277 55 l 1
 277 0 l 1
 222 0 l 1
222 -55 m 1
 222 0 l 1
 277 0 l 1
 277 -55 l 1
 222 -55 l 1
277 -111 m 1
 277 -55 l 1
 443 -55 l 1
 443 -111 l 1
 277 -111 l 1
EndSplineSet
EndChar

StartChar: bar
Encoding: 124 124 93
Width: 554
Flags: HW
LayerCount: 2
Back
Fore
SplineSet
277 610 m 1
 277 665 l 1
 333 665 l 1
 333 610 l 1
 277 610 l 1
277 554 m 1
 277 610 l 1
 333 610 l 1
 333 554 l 1
 277 554 l 1
277 499 m 1
 277 554 l 1
 333 554 l 1
 333 499 l 1
 277 499 l 1
277 443 m 1
 277 499 l 1
 333 499 l 1
 333 443 l 1
 277 443 l 1
277 388 m 1
 277 443 l 1
 333 443 l 1
 333 388 l 1
 277 388 l 1
277 333 m 1
 277 388 l 1
 333 388 l 1
 333 333 l 1
 277 333 l 1
277 277 m 1
 277 333 l 1
 333 333 l 1
 333 277 l 1
 277 277 l 1
277 222 m 1
 277 277 l 1
 333 277 l 1
 333 222 l 1
 277 222 l 1
277 166 m 1
 277 222 l 1
 333 222 l 1
 333 166 l 1
 277 166 l 1
277 111 m 1
 277 166 l 1
 333 166 l 1
 333 111 l 1
 277 111 l 1
277 55 m 1
 277 111 l 1
 333 111 l 1
 333 55 l 1
 277 55 l 1
277 0 m 1
 277 55 l 1
 333 55 l 1
 333 0 l 1
 277 0 l 1
277 -55 m 1
 277 0 l 1
 333 0 l 1
 333 -55 l 1
 277 -55 l 1
277 -111 m 1
 277 -55 l 1
 333 -55 l 1
 333 -111 l 1
 277 -111 l 1
EndSplineSet
EndChar

StartChar: braceright
Encoding: 125 125 94
Width: 554
Flags: HW
LayerCount: 2
Back
Fore
SplineSet
55 610 m 1
 55 665 l 1
 222 665 l 1
 222 610 l 1
 55 610 l 1
222 554 m 1
 222 610 l 1
 277 610 l 1
 277 554 l 1
 222 554 l 1
222 499 m 1
 222 554 l 1
 277 554 l 1
 277 499 l 1
 222 499 l 1
222 443 m 1
 222 499 l 1
 277 499 l 1
 277 443 l 1
 222 443 l 1
222 388 m 1
 222 443 l 1
 277 443 l 1
 277 388 l 1
 222 388 l 1
222 333 m 1
 222 388 l 1
 277 388 l 1
 277 333 l 1
 222 333 l 1
222 277 m 1
 222 333 l 1
 277 333 l 1
 277 277 l 1
 222 277 l 1
277 222 m 1
 277 277 l 1
 443 277 l 1
 443 222 l 1
 277 222 l 1
222 166 m 1
 222 222 l 1
 277 222 l 1
 277 166 l 1
 222 166 l 1
222 111 m 1
 222 166 l 1
 277 166 l 1
 277 111 l 1
 222 111 l 1
222 55 m 1
 222 111 l 1
 277 111 l 1
 277 55 l 1
 222 55 l 1
222 0 m 1
 222 55 l 1
 277 55 l 1
 277 0 l 1
 222 0 l 1
222 -55 m 1
 222 0 l 1
 277 0 l 1
 277 -55 l 1
 222 -55 l 1
55 -111 m 1
 55 -55 l 1
 222 -55 l 1
 222 -111 l 1
 55 -111 l 1
EndSplineSet
EndChar

StartChar: asciitilde
Encoding: 126 126 95
Width: 554
Flags: HW
LayerCount: 2
Back
Fore
SplineSet
111 277 m 1
 111 333 l 1
 277 333 l 1
 277 277 l 1
 111 277 l 1
499 277 m 1
 499 333 l 1
 554 333 l 1
 554 277 l 1
 499 277 l 1
55 222 m 1
 55 277 l 1
 111 277 l 1
 111 222 l 1
 55 222 l 1
277 222 m 1
 277 277 l 1
 333 277 l 1
 333 222 l 1
 277 222 l 1
499 222 m 1
 499 277 l 1
 554 277 l 1
 554 222 l 1
 499 222 l 1
55 166 m 1
 55 222 l 1
 111 222 l 1
 111 166 l 1
 55 166 l 1
333 166 m 1
 333 222 l 1
 499 222 l 1
 499 166 l 1
 333 166 l 1
EndSplineSet
EndChar

StartChar: exclamdown
Encoding: 161 161 97
Width: 554
Flags: HW
LayerCount: 2
Back
Fore
SplineSet
277 443 m 1
 277 499 l 1
 333 499 l 1
 333 443 l 1
 277 443 l 1
277 277 m 1
 277 333 l 1
 333 333 l 1
 333 277 l 1
 277 277 l 1
277 222 m 1
 277 277 l 1
 333 277 l 1
 333 222 l 1
 277 222 l 1
277 166 m 1
 277 222 l 1
 333 222 l 1
 333 166 l 1
 277 166 l 1
277 111 m 1
 277 166 l 1
 333 166 l 1
 333 111 l 1
 277 111 l 1
277 55 m 1
 277 111 l 1
 333 111 l 1
 333 55 l 1
 277 55 l 1
277 0 m 1
 277 55 l 1
 333 55 l 1
 333 0 l 1
 277 0 l 1
277 -55 m 1
 277 0 l 1
 333 0 l 1
 333 -55 l 1
 277 -55 l 1
277 -111 m 1
 277 -55 l 1
 333 -55 l 1
 333 -111 l 1
 277 -111 l 1
277 -166 m 1
 277 -111 l 1
 333 -111 l 1
 333 -166 l 1
 277 -166 l 1
EndSplineSet
EndChar

StartChar: cent
Encoding: 162 162 98
Width: 554
Flags: HW
LayerCount: 2
Back
Fore
SplineSet
333 610 m 1
 333 665 l 1
 388 665 l 1
 388 610 l 1
 333 610 l 1
277 554 m 1
 277 610 l 1
 499 610 l 1
 499 554 l 1
 277 554 l 1
222 499 m 1
 222 554 l 1
 388 554 l 1
 388 499 l 1
 222 499 l 1
443 499 m 1
 443 554 l 1
 499 554 l 1
 499 499 l 1
 443 499 l 1
166 443 m 1
 166 499 l 1
 222 499 l 1
 222 443 l 1
 166 443 l 1
333 443 m 1
 333 499 l 1
 388 499 l 1
 388 443 l 1
 333 443 l 1
111 388 m 1
 111 443 l 1
 166 443 l 1
 166 388 l 1
 111 388 l 1
333 388 m 1
 333 443 l 1
 388 443 l 1
 388 388 l 1
 333 388 l 1
111 333 m 1
 111 388 l 1
 166 388 l 1
 166 333 l 1
 111 333 l 1
333 333 m 1
 333 388 l 1
 388 388 l 1
 388 333 l 1
 333 333 l 1
111 277 m 1
 111 333 l 1
 166 333 l 1
 166 277 l 1
 111 277 l 1
333 277 m 1
 333 333 l 1
 388 333 l 1
 388 277 l 1
 333 277 l 1
111 222 m 1
 111 277 l 1
 166 277 l 1
 166 222 l 1
 111 222 l 1
333 222 m 1
 333 277 l 1
 388 277 l 1
 388 222 l 1
 333 222 l 1
111 166 m 1
 111 222 l 1
 166 222 l 1
 166 166 l 1
 111 166 l 1
333 166 m 1
 333 222 l 1
 388 222 l 1
 388 166 l 1
 333 166 l 1
166 111 m 1
 166 166 l 1
 277 166 l 1
 277 111 l 1
 166 111 l 1
333 111 m 1
 333 166 l 1
 499 166 l 1
 499 111 l 1
 333 111 l 1
222 55 m 1
 222 111 l 1
 388 111 l 1
 388 55 l 1
 222 55 l 1
333 0 m 1
 333 55 l 1
 388 55 l 1
 388 0 l 1
 333 0 l 1
EndSplineSet
EndChar

StartChar: sterling
Encoding: 163 163 99
Width: 554
Flags: HW
LayerCount: 2
Back
Fore
SplineSet
277 610 m 1
 277 665 l 1
 443 665 l 1
 443 610 l 1
 277 610 l 1
222 554 m 1
 222 610 l 1
 277 610 l 1
 277 554 l 1
 222 554 l 1
222 499 m 1
 222 554 l 1
 277 554 l 1
 277 499 l 1
 222 499 l 1
222 443 m 1
 222 499 l 1
 277 499 l 1
 277 443 l 1
 222 443 l 1
222 388 m 1
 222 443 l 1
 277 443 l 1
 277 388 l 1
 222 388 l 1
111 333 m 1
 111 388 l 1
 388 388 l 1
 388 333 l 1
 111 333 l 1
222 277 m 1
 222 333 l 1
 277 333 l 1
 277 277 l 1
 222 277 l 1
222 222 m 1
 222 277 l 1
 277 277 l 1
 277 222 l 1
 222 222 l 1
222 166 m 1
 222 222 l 1
 277 222 l 1
 277 166 l 1
 222 166 l 1
222 111 m 1
 222 166 l 1
 277 166 l 1
 277 111 l 1
 222 111 l 1
111 55 m 1
 111 111 l 1
 222 111 l 1
 222 55 l 1
 111 55 l 1
111 0 m 1
 111 55 l 1
 443 55 l 1
 443 0 l 1
 111 0 l 1
EndSplineSet
EndChar

StartChar: currency
Encoding: 164 164 100
Width: 554
Flags: HW
LayerCount: 2
Back
Fore
SplineSet
55 499 m 1
 55 554 l 1
 111 554 l 1
 111 499 l 1
 55 499 l 1
499 499 m 1
 499 554 l 1
 554 554 l 1
 554 499 l 1
 499 499 l 1
111 443 m 1
 111 499 l 1
 499 499 l 1
 499 443 l 1
 111 443 l 1
111 388 m 1
 111 443 l 1
 222 443 l 1
 222 388 l 1
 111 388 l 1
388 388 m 1
 388 443 l 1
 499 443 l 1
 499 388 l 1
 388 388 l 1
111 333 m 1
 111 388 l 1
 166 388 l 1
 166 333 l 1
 111 333 l 1
443 333 m 1
 443 388 l 1
 499 388 l 1
 499 333 l 1
 443 333 l 1
111 277 m 1
 111 333 l 1
 166 333 l 1
 166 277 l 1
 111 277 l 1
443 277 m 1
 443 333 l 1
 499 333 l 1
 499 277 l 1
 443 277 l 1
111 222 m 1
 111 277 l 1
 222 277 l 1
 222 222 l 1
 111 222 l 1
388 222 m 1
 388 277 l 1
 499 277 l 1
 499 222 l 1
 388 222 l 1
111 166 m 1
 111 222 l 1
 499 222 l 1
 499 166 l 1
 111 166 l 1
55 111 m 1
 55 166 l 1
 111 166 l 1
 111 111 l 1
 55 111 l 1
499 111 m 1
 499 166 l 1
 554 166 l 1
 554 111 l 1
 499 111 l 1
EndSplineSet
EndChar

StartChar: yen
Encoding: 165 165 101
Width: 554
Flags: HW
LayerCount: 2
Back
Fore
SplineSet
55 610 m 1
 55 665 l 1
 166 665 l 1
 166 610 l 1
 55 610 l 1
443 610 m 1
 443 665 l 1
 554 665 l 1
 554 610 l 1
 443 610 l 1
111 554 m 1
 111 610 l 1
 166 610 l 1
 166 554 l 1
 111 554 l 1
443 554 m 1
 443 610 l 1
 499 610 l 1
 499 554 l 1
 443 554 l 1
166 499 m 1
 166 554 l 1
 222 554 l 1
 222 499 l 1
 166 499 l 1
388 499 m 1
 388 554 l 1
 443 554 l 1
 443 499 l 1
 388 499 l 1
222 443 m 1
 222 499 l 1
 277 499 l 1
 277 443 l 1
 222 443 l 1
333 443 m 1
 333 499 l 1
 443 499 l 1
 443 443 l 1
 333 443 l 1
222 388 m 1
 222 443 l 1
 277 443 l 1
 277 388 l 1
 222 388 l 1
333 388 m 1
 333 443 l 1
 388 443 l 1
 388 388 l 1
 333 388 l 1
277 333 m 1
 277 388 l 1
 333 388 l 1
 333 333 l 1
 277 333 l 1
111 277 m 1
 111 333 l 1
 443 333 l 1
 443 277 l 1
 111 277 l 1
277 222 m 1
 277 277 l 1
 333 277 l 1
 333 222 l 1
 277 222 l 1
111 166 m 1
 111 222 l 1
 443 222 l 1
 443 166 l 1
 111 166 l 1
277 111 m 1
 277 166 l 1
 333 166 l 1
 333 111 l 1
 277 111 l 1
277 55 m 1
 277 111 l 1
 333 111 l 1
 333 55 l 1
 277 55 l 1
277 0 m 1
 277 55 l 1
 333 55 l 1
 333 0 l 1
 277 0 l 1
EndSplineSet
EndChar

StartChar: brokenbar
Encoding: 166 166 102
Width: 554
Flags: HW
LayerCount: 2
Back
Fore
SplineSet
277 610 m 1
 277 665 l 1
 333 665 l 1
 333 610 l 1
 277 610 l 1
277 554 m 1
 277 610 l 1
 333 610 l 1
 333 554 l 1
 277 554 l 1
277 499 m 1
 277 554 l 1
 333 554 l 1
 333 499 l 1
 277 499 l 1
277 443 m 1
 277 499 l 1
 333 499 l 1
 333 443 l 1
 277 443 l 1
277 388 m 1
 277 443 l 1
 333 443 l 1
 333 388 l 1
 277 388 l 1
277 333 m 1
 277 388 l 1
 333 388 l 1
 333 333 l 1
 277 333 l 1
277 166 m 1
 277 222 l 1
 333 222 l 1
 333 166 l 1
 277 166 l 1
277 111 m 1
 277 166 l 1
 333 166 l 1
 333 111 l 1
 277 111 l 1
277 55 m 1
 277 111 l 1
 333 111 l 1
 333 55 l 1
 277 55 l 1
277 0 m 1
 277 55 l 1
 333 55 l 1
 333 0 l 1
 277 0 l 1
277 -55 m 1
 277 0 l 1
 333 0 l 1
 333 -55 l 1
 277 -55 l 1
277 -111 m 1
 277 -55 l 1
 333 -55 l 1
 333 -111 l 1
 277 -111 l 1
EndSplineSet
EndChar

StartChar: section
Encoding: 167 167 103
Width: 554
Flags: HW
LayerCount: 2
Back
Fore
SplineSet
222 610 m 1
 222 665 l 1
 499 665 l 1
 499 610 l 1
 222 610 l 1
111 554 m 1
 111 610 l 1
 222 610 l 1
 222 554 l 1
 111 554 l 1
443 554 m 1
 443 610 l 1
 499 610 l 1
 499 554 l 1
 443 554 l 1
111 499 m 1
 111 554 l 1
 166 554 l 1
 166 499 l 1
 111 499 l 1
111 443 m 1
 111 499 l 1
 166 499 l 1
 166 443 l 1
 111 443 l 1
111 388 m 1
 111 443 l 1
 333 443 l 1
 333 388 l 1
 111 388 l 1
111 333 m 1
 111 388 l 1
 222 388 l 1
 222 333 l 1
 111 333 l 1
277 333 m 1
 277 388 l 1
 443 388 l 1
 443 333 l 1
 277 333 l 1
111 277 m 1
 111 333 l 1
 166 333 l 1
 166 277 l 1
 111 277 l 1
388 277 m 1
 388 333 l 1
 499 333 l 1
 499 277 l 1
 388 277 l 1
111 222 m 1
 111 277 l 1
 166 277 l 1
 166 222 l 1
 111 222 l 1
443 222 m 1
 443 277 l 1
 499 277 l 1
 499 222 l 1
 443 222 l 1
111 166 m 1
 111 222 l 1
 222 222 l 1
 222 166 l 1
 111 166 l 1
443 166 m 1
 443 222 l 1
 499 222 l 1
 499 166 l 1
 443 166 l 1
222 111 m 1
 222 166 l 1
 443 166 l 1
 443 111 l 1
 222 111 l 1
333 55 m 1
 333 111 l 1
 499 111 l 1
 499 55 l 1
 333 55 l 1
443 0 m 1
 443 55 l 1
 499 55 l 1
 499 0 l 1
 443 0 l 1
443 -55 m 1
 443 0 l 1
 499 0 l 1
 499 -55 l 1
 443 -55 l 1
111 -111 m 1
 111 -55 l 1
 166 -55 l 1
 166 -111 l 1
 111 -111 l 1
388 -111 m 1
 388 -55 l 1
 499 -55 l 1
 499 -111 l 1
 388 -111 l 1
111 -166 m 1
 111 -111 l 1
 443 -111 l 1
 443 -166 l 1
 111 -166 l 1
EndSplineSet
EndChar

StartChar: dieresis
Encoding: 168 168 104
Width: 554
Flags: HW
LayerCount: 2
Back
Fore
SplineSet
166 610 m 1
 166 665 l 1
 222 665 l 1
 222 610 l 1
 166 610 l 1
333 610 m 1
 333 665 l 1
 443 665 l 1
 443 610 l 1
 333 610 l 1
EndSplineSet
EndChar

StartChar: copyright
Encoding: 169 169 105
Width: 554
Flags: HW
LayerCount: 2
Back
Fore
SplineSet
166 610 m 1
 166 665 l 1
 443 665 l 1
 443 610 l 1
 166 610 l 1
55 554 m 1
 55 610 l 1
 166 610 l 1
 166 554 l 1
 55 554 l 1
388 554 m 1
 388 610 l 1
 499 610 l 1
 499 554 l 1
 388 554 l 1
55 499 m 1
 55 554 l 1
 111 554 l 1
 111 499 l 1
 55 499 l 1
443 499 m 1
 443 554 l 1
 554 554 l 1
 554 499 l 1
 443 499 l 1
0 443 m 1
 0 499 l 1
 55 499 l 1
 55 443 l 1
 0 443 l 1
166 443 m 1
 166 499 l 1
 443 499 l 1
 443 443 l 1
 166 443 l 1
499 443 m 1
 499 499 l 1
 554 499 l 1
 554 443 l 1
 499 443 l 1
0 388 m 1
 0 443 l 1
 55 443 l 1
 55 388 l 1
 0 388 l 1
111 388 m 1
 111 443 l 1
 222 443 l 1
 222 388 l 1
 111 388 l 1
388 388 m 1
 388 443 l 1
 443 443 l 1
 443 388 l 1
 388 388 l 1
499 388 m 1
 499 443 l 1
 554 443 l 1
 554 388 l 1
 499 388 l 1
0 333 m 1
 0 388 l 1
 55 388 l 1
 55 333 l 1
 0 333 l 1
111 333 m 1
 111 388 l 1
 166 388 l 1
 166 333 l 1
 111 333 l 1
499 333 m 1
 499 388 l 1
 554 388 l 1
 554 333 l 1
 499 333 l 1
0 277 m 1
 0 333 l 1
 55 333 l 1
 55 277 l 1
 0 277 l 1
111 277 m 1
 111 333 l 1
 166 333 l 1
 166 277 l 1
 111 277 l 1
499 277 m 1
 499 333 l 1
 554 333 l 1
 554 277 l 1
 499 277 l 1
0 222 m 1
 0 277 l 1
 55 277 l 1
 55 222 l 1
 0 222 l 1
111 222 m 1
 111 277 l 1
 222 277 l 1
 222 222 l 1
 111 222 l 1
499 222 m 1
 499 277 l 1
 554 277 l 1
 554 222 l 1
 499 222 l 1
0 166 m 1
 0 222 l 1
 55 222 l 1
 55 166 l 1
 0 166 l 1
166 166 m 1
 166 222 l 1
 443 222 l 1
 443 166 l 1
 166 166 l 1
499 166 m 1
 499 222 l 1
 554 222 l 1
 554 166 l 1
 499 166 l 1
0 111 m 1
 0 166 l 1
 111 166 l 1
 111 111 l 1
 0 111 l 1
443 111 m 1
 443 166 l 1
 499 166 l 1
 499 111 l 1
 443 111 l 1
55 55 m 1
 55 111 l 1
 166 111 l 1
 166 55 l 1
 55 55 l 1
388 55 m 1
 388 111 l 1
 499 111 l 1
 499 55 l 1
 388 55 l 1
111 0 m 1
 111 55 l 1
 388 55 l 1
 388 0 l 1
 111 0 l 1
EndSplineSet
EndChar

StartChar: ordfeminine
Encoding: 170 170 106
Width: 554
Flags: HW
LayerCount: 2
Back
Fore
SplineSet
111 610 m 1
 111 665 l 1
 388 665 l 1
 388 610 l 1
 111 610 l 1
333 554 m 1
 333 610 l 1
 388 610 l 1
 388 554 l 1
 333 554 l 1
166 499 m 1
 166 554 l 1
 388 554 l 1
 388 499 l 1
 166 499 l 1
111 443 m 1
 111 499 l 1
 166 499 l 1
 166 443 l 1
 111 443 l 1
333 443 m 1
 333 499 l 1
 388 499 l 1
 388 443 l 1
 333 443 l 1
111 388 m 1
 111 443 l 1
 166 443 l 1
 166 388 l 1
 111 388 l 1
333 388 m 1
 333 443 l 1
 388 443 l 1
 388 388 l 1
 333 388 l 1
166 333 m 1
 166 388 l 1
 443 388 l 1
 443 333 l 1
 166 333 l 1
EndSplineSet
EndChar

StartChar: guillemotleft
Encoding: 171 171 107
Width: 554
Flags: HW
LayerCount: 2
Back
Fore
SplineSet
222 388 m 1
 222 443 l 1
 277 443 l 1
 277 388 l 1
 222 388 l 1
443 388 m 1
 443 443 l 1
 499 443 l 1
 499 388 l 1
 443 388 l 1
166 333 m 1
 166 388 l 1
 277 388 l 1
 277 333 l 1
 166 333 l 1
388 333 m 1
 388 388 l 1
 443 388 l 1
 443 333 l 1
 388 333 l 1
111 277 m 1
 111 333 l 1
 222 333 l 1
 222 277 l 1
 111 277 l 1
333 277 m 1
 333 333 l 1
 388 333 l 1
 388 277 l 1
 333 277 l 1
55 222 m 1
 55 277 l 1
 166 277 l 1
 166 222 l 1
 55 222 l 1
277 222 m 1
 277 277 l 1
 333 277 l 1
 333 222 l 1
 277 222 l 1
111 166 m 1
 111 222 l 1
 222 222 l 1
 222 166 l 1
 111 166 l 1
333 166 m 1
 333 222 l 1
 388 222 l 1
 388 166 l 1
 333 166 l 1
166 111 m 1
 166 166 l 1
 222 166 l 1
 222 111 l 1
 166 111 l 1
388 111 m 1
 388 166 l 1
 443 166 l 1
 443 111 l 1
 388 111 l 1
222 55 m 1
 222 111 l 1
 277 111 l 1
 277 55 l 1
 222 55 l 1
443 55 m 1
 443 111 l 1
 499 111 l 1
 499 55 l 1
 443 55 l 1
EndSplineSet
EndChar

StartChar: logicalnot
Encoding: 172 172 108
Width: 554
Flags: HW
LayerCount: 2
Back
Fore
SplineSet
55 333 m 1
 55 388 l 1
 554 388 l 1
 554 333 l 1
 55 333 l 1
499 277 m 1
 499 333 l 1
 554 333 l 1
 554 277 l 1
 499 277 l 1
499 222 m 1
 499 277 l 1
 554 277 l 1
 554 222 l 1
 499 222 l 1
499 166 m 1
 499 222 l 1
 554 222 l 1
 554 166 l 1
 499 166 l 1
499 111 m 1
 499 166 l 1
 554 166 l 1
 554 111 l 1
 499 111 l 1
EndSplineSet
EndChar

StartChar: hyphen
Encoding: 45 45 109
Width: 554
Flags: HW
LayerCount: 2
Back
Fore
SplineSet
55 222 m 1
 55 277 l 1
 554 277 l 1
 554 222 l 1
 55 222 l 1
EndSplineSet
EndChar

StartChar: registered
Encoding: 174 174 110
Width: 554
Flags: HW
LayerCount: 2
Back
Fore
SplineSet
222 610 m 1
 222 665 l 1
 388 665 l 1
 388 610 l 1
 222 610 l 1
166 554 m 1
 166 610 l 1
 443 610 l 1
 443 554 l 1
 166 554 l 1
111 499 m 1
 111 554 l 1
 166 554 l 1
 166 499 l 1
 111 499 l 1
222 499 m 1
 222 554 l 1
 277 554 l 1
 277 499 l 1
 222 499 l 1
333 499 m 1
 333 554 l 1
 388 554 l 1
 388 499 l 1
 333 499 l 1
443 499 m 1
 443 554 l 1
 499 554 l 1
 499 499 l 1
 443 499 l 1
111 443 m 1
 111 499 l 1
 166 499 l 1
 166 443 l 1
 111 443 l 1
222 443 m 1
 222 499 l 1
 333 499 l 1
 333 443 l 1
 222 443 l 1
443 443 m 1
 443 499 l 1
 499 499 l 1
 499 443 l 1
 443 443 l 1
111 388 m 1
 111 443 l 1
 166 443 l 1
 166 388 l 1
 111 388 l 1
222 388 m 1
 222 443 l 1
 277 443 l 1
 277 388 l 1
 222 388 l 1
333 388 m 1
 333 443 l 1
 388 443 l 1
 388 388 l 1
 333 388 l 1
443 388 m 1
 443 443 l 1
 499 443 l 1
 499 388 l 1
 443 388 l 1
166 333 m 1
 166 388 l 1
 222 388 l 1
 222 333 l 1
 166 333 l 1
388 333 m 1
 388 388 l 1
 443 388 l 1
 443 333 l 1
 388 333 l 1
222 277 m 1
 222 333 l 1
 388 333 l 1
 388 277 l 1
 222 277 l 1
EndSplineSet
EndChar

StartChar: degree
Encoding: 176 176 112
Width: 554
Flags: HW
LayerCount: 2
Back
Fore
SplineSet
222 610 m 1
 222 665 l 1
 388 665 l 1
 388 610 l 1
 222 610 l 1
222 554 m 1
 222 610 l 1
 388 610 l 1
 388 554 l 1
 222 554 l 1
EndSplineSet
EndChar

StartChar: plusminus
Encoding: 177 177 113
Width: 554
Flags: HW
LayerCount: 2
Back
Fore
SplineSet
277 443 m 1
 277 499 l 1
 333 499 l 1
 333 443 l 1
 277 443 l 1
277 388 m 1
 277 443 l 1
 333 443 l 1
 333 388 l 1
 277 388 l 1
277 333 m 1
 277 388 l 1
 333 388 l 1
 333 333 l 1
 277 333 l 1
55 277 m 1
 55 333 l 1
 554 333 l 1
 554 277 l 1
 55 277 l 1
277 222 m 1
 277 277 l 1
 333 277 l 1
 333 222 l 1
 277 222 l 1
277 166 m 1
 277 222 l 1
 333 222 l 1
 333 166 l 1
 277 166 l 1
277 111 m 1
 277 166 l 1
 333 166 l 1
 333 111 l 1
 277 111 l 1
55 0 m 1
 55 55 l 1
 554 55 l 1
 554 0 l 1
 55 0 l 1
EndSplineSet
EndChar

StartChar: twosuperior
Encoding: 178 178 114
Width: 554
Flags: HW
LayerCount: 2
Back
Fore
SplineSet
-55 610 m 1
 -55 665 l 1
 111 665 l 1
 111 610 l 1
 -55 610 l 1
111 554 m 1
 111 610 l 1
 166 610 l 1
 166 554 l 1
 111 554 l 1
111 499 m 1
 111 554 l 1
 166 554 l 1
 166 499 l 1
 111 499 l 1
0 443 m 1
 0 499 l 1
 111 499 l 1
 111 443 l 1
 0 443 l 1
0 388 m 1
 0 443 l 1
 55 443 l 1
 55 388 l 1
 0 388 l 1
-55 333 m 1
 -55 388 l 1
 166 388 l 1
 166 333 l 1
 -55 333 l 1
EndSplineSet
EndChar

StartChar: threesuperior
Encoding: 179 179 115
Width: 554
Flags: HW
LayerCount: 2
Back
Fore
SplineSet
-55 610 m 1
 -55 665 l 1
 166 665 l 1
 166 610 l 1
 -55 610 l 1
111 554 m 1
 111 610 l 1
 166 610 l 1
 166 554 l 1
 111 554 l 1
0 499 m 1
 0 554 l 1
 111 554 l 1
 111 499 l 1
 0 499 l 1
111 443 m 1
 111 499 l 1
 166 499 l 1
 166 443 l 1
 111 443 l 1
111 388 m 1
 111 443 l 1
 166 443 l 1
 166 388 l 1
 111 388 l 1
-55 333 m 1
 -55 388 l 1
 111 388 l 1
 111 333 l 1
 -55 333 l 1
EndSplineSet
EndChar

StartChar: acute
Encoding: 180 180 116
Width: 554
Flags: HW
LayerCount: 2
Back
Fore
SplineSet
222 610 m 1
 222 665 l 1
 388 665 l 1
 388 610 l 1
 222 610 l 1
166 554 m 1
 166 610 l 1
 277 610 l 1
 277 554 l 1
 166 554 l 1
EndSplineSet
EndChar

StartChar: paragraph
Encoding: 182 182 118
Width: 554
Flags: HW
LayerCount: 2
Back
Fore
SplineSet
166 610 m 1
 166 665 l 1
 443 665 l 1
 443 610 l 1
 166 610 l 1
111 554 m 1
 111 610 l 1
 333 610 l 1
 333 554 l 1
 111 554 l 1
388 554 m 1
 388 610 l 1
 443 610 l 1
 443 554 l 1
 388 554 l 1
111 499 m 1
 111 554 l 1
 333 554 l 1
 333 499 l 1
 111 499 l 1
388 499 m 1
 388 554 l 1
 443 554 l 1
 443 499 l 1
 388 499 l 1
111 443 m 1
 111 499 l 1
 333 499 l 1
 333 443 l 1
 111 443 l 1
388 443 m 1
 388 499 l 1
 443 499 l 1
 443 443 l 1
 388 443 l 1
111 388 m 1
 111 443 l 1
 333 443 l 1
 333 388 l 1
 111 388 l 1
388 388 m 1
 388 443 l 1
 443 443 l 1
 443 388 l 1
 388 388 l 1
222 333 m 1
 222 388 l 1
 333 388 l 1
 333 333 l 1
 222 333 l 1
388 333 m 1
 388 388 l 1
 443 388 l 1
 443 333 l 1
 388 333 l 1
277 277 m 1
 277 333 l 1
 333 333 l 1
 333 277 l 1
 277 277 l 1
388 277 m 1
 388 333 l 1
 443 333 l 1
 443 277 l 1
 388 277 l 1
277 222 m 1
 277 277 l 1
 333 277 l 1
 333 222 l 1
 277 222 l 1
388 222 m 1
 388 277 l 1
 443 277 l 1
 443 222 l 1
 388 222 l 1
277 166 m 1
 277 222 l 1
 333 222 l 1
 333 166 l 1
 277 166 l 1
388 166 m 1
 388 222 l 1
 443 222 l 1
 443 166 l 1
 388 166 l 1
277 111 m 1
 277 166 l 1
 333 166 l 1
 333 111 l 1
 277 111 l 1
388 111 m 1
 388 166 l 1
 443 166 l 1
 443 111 l 1
 388 111 l 1
277 55 m 1
 277 111 l 1
 333 111 l 1
 333 55 l 1
 277 55 l 1
388 55 m 1
 388 111 l 1
 443 111 l 1
 443 55 l 1
 388 55 l 1
277 0 m 1
 277 55 l 1
 333 55 l 1
 333 0 l 1
 277 0 l 1
388 0 m 1
 388 55 l 1
 443 55 l 1
 443 0 l 1
 388 0 l 1
277 -55 m 1
 277 0 l 1
 333 0 l 1
 333 -55 l 1
 277 -55 l 1
388 -55 m 1
 388 0 l 1
 443 0 l 1
 443 -55 l 1
 388 -55 l 1
277 -111 m 1
 277 -55 l 1
 333 -55 l 1
 333 -111 l 1
 277 -111 l 1
388 -111 m 1
 388 -55 l 1
 443 -55 l 1
 443 -111 l 1
 388 -111 l 1
EndSplineSet
EndChar

StartChar: cedilla
Encoding: 184 184 120
Width: 554
Flags: HW
LayerCount: 2
Back
Fore
SplineSet
222 -55 m 1
 222 0 l 1
 333 0 l 1
 333 -55 l 1
 222 -55 l 1
333 -111 m 1
 333 -55 l 1
 388 -55 l 1
 388 -111 l 1
 333 -111 l 1
222 -166 m 1
 222 -111 l 1
 388 -111 l 1
 388 -166 l 1
 222 -166 l 1
EndSplineSet
EndChar

StartChar: onesuperior
Encoding: 185 185 121
Width: 554
Flags: HW
LayerCount: 2
Back
Fore
SplineSet
0 610 m 1
 0 665 l 1
 166 665 l 1
 166 610 l 1
 0 610 l 1
111 554 m 1
 111 610 l 1
 166 610 l 1
 166 554 l 1
 111 554 l 1
111 499 m 1
 111 554 l 1
 166 554 l 1
 166 499 l 1
 111 499 l 1
111 443 m 1
 111 499 l 1
 166 499 l 1
 166 443 l 1
 111 443 l 1
111 388 m 1
 111 443 l 1
 166 443 l 1
 166 388 l 1
 111 388 l 1
0 333 m 1
 0 388 l 1
 277 388 l 1
 277 333 l 1
 0 333 l 1
EndSplineSet
EndChar

StartChar: ordmasculine
Encoding: 186 186 122
Width: 554
Flags: HW
LayerCount: 2
Back
Fore
SplineSet
166 610 m 1
 166 665 l 1
 443 665 l 1
 443 610 l 1
 166 610 l 1
111 554 m 1
 111 610 l 1
 222 610 l 1
 222 554 l 1
 111 554 l 1
388 554 m 1
 388 610 l 1
 499 610 l 1
 499 554 l 1
 388 554 l 1
111 499 m 1
 111 554 l 1
 166 554 l 1
 166 499 l 1
 111 499 l 1
443 499 m 1
 443 554 l 1
 499 554 l 1
 499 499 l 1
 443 499 l 1
111 443 m 1
 111 499 l 1
 166 499 l 1
 166 443 l 1
 111 443 l 1
443 443 m 1
 443 499 l 1
 499 499 l 1
 499 443 l 1
 443 443 l 1
111 388 m 1
 111 443 l 1
 222 443 l 1
 222 388 l 1
 111 388 l 1
388 388 m 1
 388 443 l 1
 499 443 l 1
 499 388 l 1
 388 388 l 1
166 333 m 1
 166 388 l 1
 443 388 l 1
 443 333 l 1
 166 333 l 1
EndSplineSet
EndChar

StartChar: guillemotright
Encoding: 187 187 123
Width: 554
Flags: HW
LayerCount: 2
Back
Fore
SplineSet
55 388 m 1
 55 443 l 1
 111 443 l 1
 111 388 l 1
 55 388 l 1
277 388 m 1
 277 443 l 1
 333 443 l 1
 333 388 l 1
 277 388 l 1
111 333 m 1
 111 388 l 1
 166 388 l 1
 166 333 l 1
 111 333 l 1
277 333 m 1
 277 388 l 1
 388 388 l 1
 388 333 l 1
 277 333 l 1
166 277 m 1
 166 333 l 1
 222 333 l 1
 222 277 l 1
 166 277 l 1
333 277 m 1
 333 333 l 1
 443 333 l 1
 443 277 l 1
 333 277 l 1
222 222 m 1
 222 277 l 1
 277 277 l 1
 277 222 l 1
 222 222 l 1
388 222 m 1
 388 277 l 1
 499 277 l 1
 499 222 l 1
 388 222 l 1
166 166 m 1
 166 222 l 1
 222 222 l 1
 222 166 l 1
 166 166 l 1
333 166 m 1
 333 222 l 1
 443 222 l 1
 443 166 l 1
 333 166 l 1
111 111 m 1
 111 166 l 1
 166 166 l 1
 166 111 l 1
 111 111 l 1
277 111 m 1
 277 166 l 1
 388 166 l 1
 388 111 l 1
 277 111 l 1
55 55 m 1
 55 111 l 1
 111 111 l 1
 111 55 l 1
 55 55 l 1
277 55 m 1
 277 111 l 1
 333 111 l 1
 333 55 l 1
 277 55 l 1
EndSplineSet
EndChar

StartChar: onequarter
Encoding: 188 188 124
Width: 554
Flags: HW
LayerCount: 2
Back
Fore
SplineSet
111 610 m 1
 111 665 l 1
 277 665 l 1
 277 610 l 1
 111 610 l 1
554 610 m 1
 554 665 l 1
 665 665 l 1
 665 610 l 1
 554 610 l 1
222 554 m 1
 222 610 l 1
 277 610 l 1
 277 554 l 1
 222 554 l 1
554 554 m 1
 554 610 l 1
 610 610 l 1
 610 554 l 1
 554 554 l 1
222 499 m 1
 222 554 l 1
 277 554 l 1
 277 499 l 1
 222 499 l 1
499 499 m 1
 499 554 l 1
 554 554 l 1
 554 499 l 1
 499 499 l 1
222 443 m 1
 222 499 l 1
 277 499 l 1
 277 443 l 1
 222 443 l 1
443 443 m 1
 443 499 l 1
 499 499 l 1
 499 443 l 1
 443 443 l 1
222 388 m 1
 222 443 l 1
 277 443 l 1
 277 388 l 1
 222 388 l 1
388 388 m 1
 388 443 l 1
 499 443 l 1
 499 388 l 1
 388 388 l 1
111 333 m 1
 111 388 l 1
 443 388 l 1
 443 333 l 1
 111 333 l 1
333 277 m 1
 333 333 l 1
 388 333 l 1
 388 277 l 1
 333 277 l 1
499 277 m 1
 499 333 l 1
 610 333 l 1
 610 277 l 1
 499 277 l 1
277 222 m 1
 277 277 l 1
 388 277 l 1
 388 222 l 1
 277 222 l 1
499 222 m 1
 499 277 l 1
 610 277 l 1
 610 222 l 1
 499 222 l 1
277 166 m 1
 277 222 l 1
 333 222 l 1
 333 166 l 1
 277 166 l 1
443 166 m 1
 443 222 l 1
 499 222 l 1
 499 166 l 1
 443 166 l 1
554 166 m 1
 554 222 l 1
 610 222 l 1
 610 166 l 1
 554 166 l 1
222 111 m 1
 222 166 l 1
 277 166 l 1
 277 111 l 1
 222 111 l 1
388 111 m 1
 388 166 l 1
 499 166 l 1
 499 111 l 1
 388 111 l 1
554 111 m 1
 554 166 l 1
 610 166 l 1
 610 111 l 1
 554 111 l 1
166 55 m 1
 166 111 l 1
 222 111 l 1
 222 55 l 1
 166 55 l 1
388 55 m 1
 388 111 l 1
 665 111 l 1
 665 55 l 1
 388 55 l 1
111 0 m 1
 111 55 l 1
 222 55 l 1
 222 0 l 1
 111 0 l 1
554 0 m 1
 554 55 l 1
 610 55 l 1
 610 0 l 1
 554 0 l 1
EndSplineSet
EndChar

StartChar: onehalf
Encoding: 189 189 125
Width: 554
Flags: HW
LayerCount: 2
Back
Fore
SplineSet
111 610 m 1
 111 665 l 1
 277 665 l 1
 277 610 l 1
 111 610 l 1
554 610 m 1
 554 665 l 1
 665 665 l 1
 665 610 l 1
 554 610 l 1
222 554 m 1
 222 610 l 1
 277 610 l 1
 277 554 l 1
 222 554 l 1
554 554 m 1
 554 610 l 1
 610 610 l 1
 610 554 l 1
 554 554 l 1
222 499 m 1
 222 554 l 1
 277 554 l 1
 277 499 l 1
 222 499 l 1
499 499 m 1
 499 554 l 1
 554 554 l 1
 554 499 l 1
 499 499 l 1
222 443 m 1
 222 499 l 1
 277 499 l 1
 277 443 l 1
 222 443 l 1
443 443 m 1
 443 499 l 1
 499 499 l 1
 499 443 l 1
 443 443 l 1
222 388 m 1
 222 443 l 1
 277 443 l 1
 277 388 l 1
 222 388 l 1
388 388 m 1
 388 443 l 1
 499 443 l 1
 499 388 l 1
 388 388 l 1
111 333 m 1
 111 388 l 1
 443 388 l 1
 443 333 l 1
 111 333 l 1
333 277 m 1
 333 333 l 1
 388 333 l 1
 388 277 l 1
 333 277 l 1
443 277 m 1
 443 333 l 1
 610 333 l 1
 610 277 l 1
 443 277 l 1
277 222 m 1
 277 277 l 1
 388 277 l 1
 388 222 l 1
 277 222 l 1
610 222 m 1
 610 277 l 1
 665 277 l 1
 665 222 l 1
 610 222 l 1
277 166 m 1
 277 222 l 1
 333 222 l 1
 333 166 l 1
 277 166 l 1
610 166 m 1
 610 222 l 1
 665 222 l 1
 665 166 l 1
 610 166 l 1
222 111 m 1
 222 166 l 1
 277 166 l 1
 277 111 l 1
 222 111 l 1
499 111 m 1
 499 166 l 1
 610 166 l 1
 610 111 l 1
 499 111 l 1
166 55 m 1
 166 111 l 1
 222 111 l 1
 222 55 l 1
 166 55 l 1
499 55 m 1
 499 111 l 1
 554 111 l 1
 554 55 l 1
 499 55 l 1
111 0 m 1
 111 55 l 1
 222 55 l 1
 222 0 l 1
 111 0 l 1
443 0 m 1
 443 55 l 1
 665 55 l 1
 665 0 l 1
 443 0 l 1
EndSplineSet
EndChar

StartChar: threequarters
Encoding: 190 190 126
Width: 554
Flags: HW
LayerCount: 2
Back
Fore
SplineSet
111 610 m 1
 111 665 l 1
 333 665 l 1
 333 610 l 1
 111 610 l 1
554 610 m 1
 554 665 l 1
 665 665 l 1
 665 610 l 1
 554 610 l 1
277 554 m 1
 277 610 l 1
 333 610 l 1
 333 554 l 1
 277 554 l 1
554 554 m 1
 554 610 l 1
 610 610 l 1
 610 554 l 1
 554 554 l 1
166 499 m 1
 166 554 l 1
 277 554 l 1
 277 499 l 1
 166 499 l 1
499 499 m 1
 499 554 l 1
 554 554 l 1
 554 499 l 1
 499 499 l 1
277 443 m 1
 277 499 l 1
 333 499 l 1
 333 443 l 1
 277 443 l 1
443 443 m 1
 443 499 l 1
 499 499 l 1
 499 443 l 1
 443 443 l 1
277 388 m 1
 277 443 l 1
 333 443 l 1
 333 388 l 1
 277 388 l 1
388 388 m 1
 388 443 l 1
 499 443 l 1
 499 388 l 1
 388 388 l 1
111 333 m 1
 111 388 l 1
 277 388 l 1
 277 333 l 1
 111 333 l 1
388 333 m 1
 388 388 l 1
 443 388 l 1
 443 333 l 1
 388 333 l 1
333 277 m 1
 333 333 l 1
 388 333 l 1
 388 277 l 1
 333 277 l 1
499 277 m 1
 499 333 l 1
 610 333 l 1
 610 277 l 1
 499 277 l 1
277 222 m 1
 277 277 l 1
 388 277 l 1
 388 222 l 1
 277 222 l 1
499 222 m 1
 499 277 l 1
 610 277 l 1
 610 222 l 1
 499 222 l 1
277 166 m 1
 277 222 l 1
 333 222 l 1
 333 166 l 1
 277 166 l 1
443 166 m 1
 443 222 l 1
 499 222 l 1
 499 166 l 1
 443 166 l 1
554 166 m 1
 554 222 l 1
 610 222 l 1
 610 166 l 1
 554 166 l 1
222 111 m 1
 222 166 l 1
 277 166 l 1
 277 111 l 1
 222 111 l 1
388 111 m 1
 388 166 l 1
 499 166 l 1
 499 111 l 1
 388 111 l 1
554 111 m 1
 554 166 l 1
 610 166 l 1
 610 111 l 1
 554 111 l 1
166 55 m 1
 166 111 l 1
 222 111 l 1
 222 55 l 1
 166 55 l 1
388 55 m 1
 388 111 l 1
 665 111 l 1
 665 55 l 1
 388 55 l 1
111 0 m 1
 111 55 l 1
 222 55 l 1
 222 0 l 1
 111 0 l 1
554 0 m 1
 554 55 l 1
 610 55 l 1
 610 0 l 1
 554 0 l 1
EndSplineSet
EndChar

StartChar: questiondown
Encoding: 191 191 127
Width: 554
Flags: HW
LayerCount: 2
Back
Fore
SplineSet
277 443 m 1
 277 499 l 1
 333 499 l 1
 333 443 l 1
 277 443 l 1
277 277 m 1
 277 333 l 1
 333 333 l 1
 333 277 l 1
 277 277 l 1
277 222 m 1
 277 277 l 1
 333 277 l 1
 333 222 l 1
 277 222 l 1
277 166 m 1
 277 222 l 1
 333 222 l 1
 333 166 l 1
 277 166 l 1
222 111 m 1
 222 166 l 1
 277 166 l 1
 277 111 l 1
 222 111 l 1
166 55 m 1
 166 111 l 1
 222 111 l 1
 222 55 l 1
 166 55 l 1
111 0 m 1
 111 55 l 1
 166 55 l 1
 166 0 l 1
 111 0 l 1
111 -55 m 1
 111 0 l 1
 166 0 l 1
 166 -55 l 1
 111 -55 l 1
443 -55 m 1
 443 0 l 1
 499 0 l 1
 499 -55 l 1
 443 -55 l 1
111 -111 m 1
 111 -55 l 1
 222 -55 l 1
 222 -111 l 1
 111 -111 l 1
443 -111 m 1
 443 -55 l 1
 499 -55 l 1
 499 -111 l 1
 443 -111 l 1
166 -166 m 1
 166 -111 l 1
 499 -111 l 1
 499 -166 l 1
 166 -166 l 1
EndSplineSet
EndChar

StartChar: Agrave
Encoding: 192 192 128
Width: 554
Flags: HW
LayerCount: 2
Back
Fore
SplineSet
166 776 m 1
 166 831 l 1
 333 831 l 1
 333 776 l 1
 166 776 l 1
277 720 m 1
 277 776 l 1
 388 776 l 1
 388 720 l 1
 277 720 l 1
222 610 m 1
 222 665 l 1
 333 665 l 1
 333 610 l 1
 222 610 l 1
222 554 m 1
 222 610 l 1
 333 610 l 1
 333 554 l 1
 222 554 l 1
222 499 m 1
 222 554 l 1
 333 554 l 1
 333 499 l 1
 222 499 l 1
166 443 m 1
 166 499 l 1
 222 499 l 1
 222 443 l 1
 166 443 l 1
333 443 m 1
 333 499 l 1
 388 499 l 1
 388 443 l 1
 333 443 l 1
166 388 m 1
 166 443 l 1
 222 443 l 1
 222 388 l 1
 166 388 l 1
333 388 m 1
 333 443 l 1
 388 443 l 1
 388 388 l 1
 333 388 l 1
166 333 m 1
 166 388 l 1
 222 388 l 1
 222 333 l 1
 166 333 l 1
333 333 m 1
 333 388 l 1
 388 388 l 1
 388 333 l 1
 333 333 l 1
111 277 m 1
 111 333 l 1
 166 333 l 1
 166 277 l 1
 111 277 l 1
388 277 m 1
 388 333 l 1
 443 333 l 1
 443 277 l 1
 388 277 l 1
111 222 m 1
 111 277 l 1
 166 277 l 1
 166 222 l 1
 111 222 l 1
388 222 m 1
 388 277 l 1
 443 277 l 1
 443 222 l 1
 388 222 l 1
55 166 m 1
 55 222 l 1
 443 222 l 1
 443 166 l 1
 55 166 l 1
55 111 m 1
 55 166 l 1
 111 166 l 1
 111 111 l 1
 55 111 l 1
443 111 m 1
 443 166 l 1
 499 166 l 1
 499 111 l 1
 443 111 l 1
55 55 m 1
 55 111 l 1
 111 111 l 1
 111 55 l 1
 55 55 l 1
443 55 m 1
 443 111 l 1
 499 111 l 1
 499 55 l 1
 443 55 l 1
0 0 m 1
 0 55 l 1
 55 55 l 1
 55 0 l 1
 0 0 l 1
443 0 m 1
 443 55 l 1
 554 55 l 1
 554 0 l 1
 443 0 l 1
EndSplineSet
EndChar

StartChar: Aacute
Encoding: 193 193 129
Width: 554
Flags: HW
LayerCount: 2
Back
Fore
SplineSet
222 776 m 1
 222 831 l 1
 388 831 l 1
 388 776 l 1
 222 776 l 1
166 720 m 1
 166 776 l 1
 277 776 l 1
 277 720 l 1
 166 720 l 1
222 610 m 1
 222 665 l 1
 333 665 l 1
 333 610 l 1
 222 610 l 1
222 554 m 1
 222 610 l 1
 333 610 l 1
 333 554 l 1
 222 554 l 1
222 499 m 1
 222 554 l 1
 333 554 l 1
 333 499 l 1
 222 499 l 1
166 443 m 1
 166 499 l 1
 222 499 l 1
 222 443 l 1
 166 443 l 1
333 443 m 1
 333 499 l 1
 388 499 l 1
 388 443 l 1
 333 443 l 1
166 388 m 1
 166 443 l 1
 222 443 l 1
 222 388 l 1
 166 388 l 1
333 388 m 1
 333 443 l 1
 388 443 l 1
 388 388 l 1
 333 388 l 1
166 333 m 1
 166 388 l 1
 222 388 l 1
 222 333 l 1
 166 333 l 1
333 333 m 1
 333 388 l 1
 388 388 l 1
 388 333 l 1
 333 333 l 1
111 277 m 1
 111 333 l 1
 166 333 l 1
 166 277 l 1
 111 277 l 1
388 277 m 1
 388 333 l 1
 443 333 l 1
 443 277 l 1
 388 277 l 1
111 222 m 1
 111 277 l 1
 166 277 l 1
 166 222 l 1
 111 222 l 1
388 222 m 1
 388 277 l 1
 443 277 l 1
 443 222 l 1
 388 222 l 1
55 166 m 1
 55 222 l 1
 443 222 l 1
 443 166 l 1
 55 166 l 1
55 111 m 1
 55 166 l 1
 111 166 l 1
 111 111 l 1
 55 111 l 1
443 111 m 1
 443 166 l 1
 499 166 l 1
 499 111 l 1
 443 111 l 1
55 55 m 1
 55 111 l 1
 111 111 l 1
 111 55 l 1
 55 55 l 1
443 55 m 1
 443 111 l 1
 499 111 l 1
 499 55 l 1
 443 55 l 1
0 0 m 1
 0 55 l 1
 55 55 l 1
 55 0 l 1
 0 0 l 1
443 0 m 1
 443 55 l 1
 554 55 l 1
 554 0 l 1
 443 0 l 1
EndSplineSet
EndChar

StartChar: Acircumflex
Encoding: 194 194 130
Width: 554
Flags: HW
LayerCount: 2
Back
Fore
SplineSet
166 776 m 1
 166 831 l 1
 388 831 l 1
 388 776 l 1
 166 776 l 1
111 720 m 1
 111 776 l 1
 222 776 l 1
 222 720 l 1
 111 720 l 1
333 720 m 1
 333 776 l 1
 443 776 l 1
 443 720 l 1
 333 720 l 1
222 610 m 1
 222 665 l 1
 333 665 l 1
 333 610 l 1
 222 610 l 1
222 554 m 1
 222 610 l 1
 333 610 l 1
 333 554 l 1
 222 554 l 1
222 499 m 1
 222 554 l 1
 333 554 l 1
 333 499 l 1
 222 499 l 1
166 443 m 1
 166 499 l 1
 222 499 l 1
 222 443 l 1
 166 443 l 1
333 443 m 1
 333 499 l 1
 388 499 l 1
 388 443 l 1
 333 443 l 1
166 388 m 1
 166 443 l 1
 222 443 l 1
 222 388 l 1
 166 388 l 1
333 388 m 1
 333 443 l 1
 388 443 l 1
 388 388 l 1
 333 388 l 1
166 333 m 1
 166 388 l 1
 222 388 l 1
 222 333 l 1
 166 333 l 1
333 333 m 1
 333 388 l 1
 388 388 l 1
 388 333 l 1
 333 333 l 1
111 277 m 1
 111 333 l 1
 166 333 l 1
 166 277 l 1
 111 277 l 1
388 277 m 1
 388 333 l 1
 443 333 l 1
 443 277 l 1
 388 277 l 1
111 222 m 1
 111 277 l 1
 166 277 l 1
 166 222 l 1
 111 222 l 1
388 222 m 1
 388 277 l 1
 443 277 l 1
 443 222 l 1
 388 222 l 1
55 166 m 1
 55 222 l 1
 443 222 l 1
 443 166 l 1
 55 166 l 1
55 111 m 1
 55 166 l 1
 111 166 l 1
 111 111 l 1
 55 111 l 1
443 111 m 1
 443 166 l 1
 499 166 l 1
 499 111 l 1
 443 111 l 1
55 55 m 1
 55 111 l 1
 111 111 l 1
 111 55 l 1
 55 55 l 1
443 55 m 1
 443 111 l 1
 499 111 l 1
 499 55 l 1
 443 55 l 1
0 0 m 1
 0 55 l 1
 55 55 l 1
 55 0 l 1
 0 0 l 1
443 0 m 1
 443 55 l 1
 554 55 l 1
 554 0 l 1
 443 0 l 1
EndSplineSet
EndChar

StartChar: Atilde
Encoding: 195 195 131
Width: 554
Flags: HW
LayerCount: 2
Back
Fore
SplineSet
111 720 m 1
 111 776 l 1
 443 776 l 1
 443 720 l 1
 111 720 l 1
222 610 m 1
 222 665 l 1
 333 665 l 1
 333 610 l 1
 222 610 l 1
222 554 m 1
 222 610 l 1
 333 610 l 1
 333 554 l 1
 222 554 l 1
222 499 m 1
 222 554 l 1
 333 554 l 1
 333 499 l 1
 222 499 l 1
166 443 m 1
 166 499 l 1
 222 499 l 1
 222 443 l 1
 166 443 l 1
333 443 m 1
 333 499 l 1
 388 499 l 1
 388 443 l 1
 333 443 l 1
166 388 m 1
 166 443 l 1
 222 443 l 1
 222 388 l 1
 166 388 l 1
333 388 m 1
 333 443 l 1
 388 443 l 1
 388 388 l 1
 333 388 l 1
166 333 m 1
 166 388 l 1
 222 388 l 1
 222 333 l 1
 166 333 l 1
333 333 m 1
 333 388 l 1
 388 388 l 1
 388 333 l 1
 333 333 l 1
111 277 m 1
 111 333 l 1
 166 333 l 1
 166 277 l 1
 111 277 l 1
388 277 m 1
 388 333 l 1
 443 333 l 1
 443 277 l 1
 388 277 l 1
111 222 m 1
 111 277 l 1
 166 277 l 1
 166 222 l 1
 111 222 l 1
388 222 m 1
 388 277 l 1
 443 277 l 1
 443 222 l 1
 388 222 l 1
55 166 m 1
 55 222 l 1
 443 222 l 1
 443 166 l 1
 55 166 l 1
55 111 m 1
 55 166 l 1
 111 166 l 1
 111 111 l 1
 55 111 l 1
443 111 m 1
 443 166 l 1
 499 166 l 1
 499 111 l 1
 443 111 l 1
55 55 m 1
 55 111 l 1
 111 111 l 1
 111 55 l 1
 55 55 l 1
443 55 m 1
 443 111 l 1
 499 111 l 1
 499 55 l 1
 443 55 l 1
0 0 m 1
 0 55 l 1
 55 55 l 1
 55 0 l 1
 0 0 l 1
443 0 m 1
 443 55 l 1
 554 55 l 1
 554 0 l 1
 443 0 l 1
EndSplineSet
EndChar

StartChar: Adieresis
Encoding: 196 196 132
Width: 554
Flags: HW
LayerCount: 2
Back
Fore
SplineSet
166 720 m 1
 166 776 l 1
 222 776 l 1
 222 720 l 1
 166 720 l 1
333 720 m 1
 333 776 l 1
 443 776 l 1
 443 720 l 1
 333 720 l 1
222 610 m 1
 222 665 l 1
 333 665 l 1
 333 610 l 1
 222 610 l 1
222 554 m 1
 222 610 l 1
 333 610 l 1
 333 554 l 1
 222 554 l 1
222 499 m 1
 222 554 l 1
 333 554 l 1
 333 499 l 1
 222 499 l 1
166 443 m 1
 166 499 l 1
 222 499 l 1
 222 443 l 1
 166 443 l 1
333 443 m 1
 333 499 l 1
 388 499 l 1
 388 443 l 1
 333 443 l 1
166 388 m 1
 166 443 l 1
 222 443 l 1
 222 388 l 1
 166 388 l 1
333 388 m 1
 333 443 l 1
 388 443 l 1
 388 388 l 1
 333 388 l 1
166 333 m 1
 166 388 l 1
 222 388 l 1
 222 333 l 1
 166 333 l 1
333 333 m 1
 333 388 l 1
 388 388 l 1
 388 333 l 1
 333 333 l 1
111 277 m 1
 111 333 l 1
 166 333 l 1
 166 277 l 1
 111 277 l 1
388 277 m 1
 388 333 l 1
 443 333 l 1
 443 277 l 1
 388 277 l 1
111 222 m 1
 111 277 l 1
 166 277 l 1
 166 222 l 1
 111 222 l 1
388 222 m 1
 388 277 l 1
 443 277 l 1
 443 222 l 1
 388 222 l 1
55 166 m 1
 55 222 l 1
 443 222 l 1
 443 166 l 1
 55 166 l 1
55 111 m 1
 55 166 l 1
 111 166 l 1
 111 111 l 1
 55 111 l 1
443 111 m 1
 443 166 l 1
 499 166 l 1
 499 111 l 1
 443 111 l 1
55 55 m 1
 55 111 l 1
 111 111 l 1
 111 55 l 1
 55 55 l 1
443 55 m 1
 443 111 l 1
 499 111 l 1
 499 55 l 1
 443 55 l 1
0 0 m 1
 0 55 l 1
 55 55 l 1
 55 0 l 1
 0 0 l 1
443 0 m 1
 443 55 l 1
 554 55 l 1
 554 0 l 1
 443 0 l 1
EndSplineSet
EndChar

StartChar: Aring
Encoding: 197 197 133
Width: 554
Flags: HW
LayerCount: 2
Back
Fore
SplineSet
222 776 m 1
 222 831 l 1
 388 831 l 1
 388 776 l 1
 222 776 l 1
222 720 m 1
 222 776 l 1
 388 776 l 1
 388 720 l 1
 222 720 l 1
222 610 m 1
 222 665 l 1
 333 665 l 1
 333 610 l 1
 222 610 l 1
222 554 m 1
 222 610 l 1
 333 610 l 1
 333 554 l 1
 222 554 l 1
222 499 m 1
 222 554 l 1
 333 554 l 1
 333 499 l 1
 222 499 l 1
166 443 m 1
 166 499 l 1
 222 499 l 1
 222 443 l 1
 166 443 l 1
333 443 m 1
 333 499 l 1
 388 499 l 1
 388 443 l 1
 333 443 l 1
166 388 m 1
 166 443 l 1
 222 443 l 1
 222 388 l 1
 166 388 l 1
333 388 m 1
 333 443 l 1
 388 443 l 1
 388 388 l 1
 333 388 l 1
166 333 m 1
 166 388 l 1
 222 388 l 1
 222 333 l 1
 166 333 l 1
333 333 m 1
 333 388 l 1
 388 388 l 1
 388 333 l 1
 333 333 l 1
111 277 m 1
 111 333 l 1
 166 333 l 1
 166 277 l 1
 111 277 l 1
388 277 m 1
 388 333 l 1
 443 333 l 1
 443 277 l 1
 388 277 l 1
111 222 m 1
 111 277 l 1
 166 277 l 1
 166 222 l 1
 111 222 l 1
388 222 m 1
 388 277 l 1
 443 277 l 1
 443 222 l 1
 388 222 l 1
55 166 m 1
 55 222 l 1
 443 222 l 1
 443 166 l 1
 55 166 l 1
55 111 m 1
 55 166 l 1
 111 166 l 1
 111 111 l 1
 55 111 l 1
443 111 m 1
 443 166 l 1
 499 166 l 1
 499 111 l 1
 443 111 l 1
55 55 m 1
 55 111 l 1
 111 111 l 1
 111 55 l 1
 55 55 l 1
443 55 m 1
 443 111 l 1
 499 111 l 1
 499 55 l 1
 443 55 l 1
0 0 m 1
 0 55 l 1
 55 55 l 1
 55 0 l 1
 0 0 l 1
443 0 m 1
 443 55 l 1
 554 55 l 1
 554 0 l 1
 443 0 l 1
EndSplineSet
EndChar

StartChar: AE
Encoding: 198 198 134
Width: 554
Flags: HW
LayerCount: 2
Back
Fore
SplineSet
222 610 m 1
 222 665 l 1
 499 665 l 1
 499 610 l 1
 222 610 l 1
222 554 m 1
 222 610 l 1
 333 610 l 1
 333 554 l 1
 222 554 l 1
222 499 m 1
 222 554 l 1
 333 554 l 1
 333 499 l 1
 222 499 l 1
166 443 m 1
 166 499 l 1
 222 499 l 1
 222 443 l 1
 166 443 l 1
277 443 m 1
 277 499 l 1
 333 499 l 1
 333 443 l 1
 277 443 l 1
166 388 m 1
 166 443 l 1
 222 443 l 1
 222 388 l 1
 166 388 l 1
277 388 m 1
 277 443 l 1
 333 443 l 1
 333 388 l 1
 277 388 l 1
111 333 m 1
 111 388 l 1
 222 388 l 1
 222 333 l 1
 111 333 l 1
277 333 m 1
 277 388 l 1
 443 388 l 1
 443 333 l 1
 277 333 l 1
111 277 m 1
 111 333 l 1
 166 333 l 1
 166 277 l 1
 111 277 l 1
277 277 m 1
 277 333 l 1
 333 333 l 1
 333 277 l 1
 277 277 l 1
111 222 m 1
 111 277 l 1
 166 277 l 1
 166 222 l 1
 111 222 l 1
277 222 m 1
 277 277 l 1
 333 277 l 1
 333 222 l 1
 277 222 l 1
55 166 m 1
 55 222 l 1
 333 222 l 1
 333 166 l 1
 55 166 l 1
55 111 m 1
 55 166 l 1
 111 166 l 1
 111 111 l 1
 55 111 l 1
277 111 m 1
 277 166 l 1
 333 166 l 1
 333 111 l 1
 277 111 l 1
55 55 m 1
 55 111 l 1
 111 111 l 1
 111 55 l 1
 55 55 l 1
277 55 m 1
 277 111 l 1
 333 111 l 1
 333 55 l 1
 277 55 l 1
0 0 m 1
 0 55 l 1
 55 55 l 1
 55 0 l 1
 0 0 l 1
277 0 m 1
 277 55 l 1
 499 55 l 1
 499 0 l 1
 277 0 l 1
EndSplineSet
EndChar

StartChar: Ccedilla
Encoding: 199 199 135
Width: 554
Flags: HW
LayerCount: 2
Back
Fore
SplineSet
222 610 m 1
 222 665 l 1
 554 665 l 1
 554 610 l 1
 222 610 l 1
166 554 m 1
 166 610 l 1
 222 610 l 1
 222 554 l 1
 166 554 l 1
499 554 m 1
 499 610 l 1
 554 610 l 1
 554 554 l 1
 499 554 l 1
111 499 m 1
 111 554 l 1
 166 554 l 1
 166 499 l 1
 111 499 l 1
55 443 m 1
 55 499 l 1
 166 499 l 1
 166 443 l 1
 55 443 l 1
55 388 m 1
 55 443 l 1
 111 443 l 1
 111 388 l 1
 55 388 l 1
55 333 m 1
 55 388 l 1
 111 388 l 1
 111 333 l 1
 55 333 l 1
55 277 m 1
 55 333 l 1
 111 333 l 1
 111 277 l 1
 55 277 l 1
55 222 m 1
 55 277 l 1
 111 277 l 1
 111 222 l 1
 55 222 l 1
55 166 m 1
 55 222 l 1
 166 222 l 1
 166 166 l 1
 55 166 l 1
111 111 m 1
 111 166 l 1
 166 166 l 1
 166 111 l 1
 111 111 l 1
166 55 m 1
 166 111 l 1
 277 111 l 1
 277 55 l 1
 166 55 l 1
499 55 m 1
 499 111 l 1
 554 111 l 1
 554 55 l 1
 499 55 l 1
222 0 m 1
 222 55 l 1
 554 55 l 1
 554 0 l 1
 222 0 l 1
277 -55 m 1
 277 0 l 1
 333 0 l 1
 333 -55 l 1
 277 -55 l 1
333 -111 m 1
 333 -55 l 1
 388 -55 l 1
 388 -111 l 1
 333 -111 l 1
222 -166 m 1
 222 -111 l 1
 388 -111 l 1
 388 -166 l 1
 222 -166 l 1
EndSplineSet
EndChar

StartChar: Egrave
Encoding: 200 200 136
Width: 554
Flags: HW
LayerCount: 2
Back
Fore
SplineSet
166 776 m 1
 166 831 l 1
 333 831 l 1
 333 776 l 1
 166 776 l 1
277 720 m 1
 277 776 l 1
 388 776 l 1
 388 720 l 1
 277 720 l 1
111 610 m 1
 111 665 l 1
 499 665 l 1
 499 610 l 1
 111 610 l 1
111 554 m 1
 111 610 l 1
 166 610 l 1
 166 554 l 1
 111 554 l 1
111 499 m 1
 111 554 l 1
 166 554 l 1
 166 499 l 1
 111 499 l 1
111 443 m 1
 111 499 l 1
 166 499 l 1
 166 443 l 1
 111 443 l 1
111 388 m 1
 111 443 l 1
 166 443 l 1
 166 388 l 1
 111 388 l 1
111 333 m 1
 111 388 l 1
 443 388 l 1
 443 333 l 1
 111 333 l 1
111 277 m 1
 111 333 l 1
 166 333 l 1
 166 277 l 1
 111 277 l 1
111 222 m 1
 111 277 l 1
 166 277 l 1
 166 222 l 1
 111 222 l 1
111 166 m 1
 111 222 l 1
 166 222 l 1
 166 166 l 1
 111 166 l 1
111 111 m 1
 111 166 l 1
 166 166 l 1
 166 111 l 1
 111 111 l 1
111 55 m 1
 111 111 l 1
 166 111 l 1
 166 55 l 1
 111 55 l 1
111 0 m 1
 111 55 l 1
 499 55 l 1
 499 0 l 1
 111 0 l 1
EndSplineSet
EndChar

StartChar: Eacute
Encoding: 201 201 137
Width: 554
Flags: HW
LayerCount: 2
Back
Fore
SplineSet
222 776 m 1
 222 831 l 1
 388 831 l 1
 388 776 l 1
 222 776 l 1
166 720 m 1
 166 776 l 1
 277 776 l 1
 277 720 l 1
 166 720 l 1
111 610 m 1
 111 665 l 1
 499 665 l 1
 499 610 l 1
 111 610 l 1
111 554 m 1
 111 610 l 1
 166 610 l 1
 166 554 l 1
 111 554 l 1
111 499 m 1
 111 554 l 1
 166 554 l 1
 166 499 l 1
 111 499 l 1
111 443 m 1
 111 499 l 1
 166 499 l 1
 166 443 l 1
 111 443 l 1
111 388 m 1
 111 443 l 1
 166 443 l 1
 166 388 l 1
 111 388 l 1
111 333 m 1
 111 388 l 1
 443 388 l 1
 443 333 l 1
 111 333 l 1
111 277 m 1
 111 333 l 1
 166 333 l 1
 166 277 l 1
 111 277 l 1
111 222 m 1
 111 277 l 1
 166 277 l 1
 166 222 l 1
 111 222 l 1
111 166 m 1
 111 222 l 1
 166 222 l 1
 166 166 l 1
 111 166 l 1
111 111 m 1
 111 166 l 1
 166 166 l 1
 166 111 l 1
 111 111 l 1
111 55 m 1
 111 111 l 1
 166 111 l 1
 166 55 l 1
 111 55 l 1
111 0 m 1
 111 55 l 1
 499 55 l 1
 499 0 l 1
 111 0 l 1
EndSplineSet
EndChar

StartChar: Ecircumflex
Encoding: 202 202 138
Width: 554
Flags: HW
LayerCount: 2
Back
Fore
SplineSet
222 776 m 1
 222 831 l 1
 443 831 l 1
 443 776 l 1
 222 776 l 1
166 720 m 1
 166 776 l 1
 277 776 l 1
 277 720 l 1
 166 720 l 1
388 720 m 1
 388 776 l 1
 499 776 l 1
 499 720 l 1
 388 720 l 1
111 610 m 1
 111 665 l 1
 499 665 l 1
 499 610 l 1
 111 610 l 1
111 554 m 1
 111 610 l 1
 166 610 l 1
 166 554 l 1
 111 554 l 1
111 499 m 1
 111 554 l 1
 166 554 l 1
 166 499 l 1
 111 499 l 1
111 443 m 1
 111 499 l 1
 166 499 l 1
 166 443 l 1
 111 443 l 1
111 388 m 1
 111 443 l 1
 166 443 l 1
 166 388 l 1
 111 388 l 1
111 333 m 1
 111 388 l 1
 443 388 l 1
 443 333 l 1
 111 333 l 1
111 277 m 1
 111 333 l 1
 166 333 l 1
 166 277 l 1
 111 277 l 1
111 222 m 1
 111 277 l 1
 166 277 l 1
 166 222 l 1
 111 222 l 1
111 166 m 1
 111 222 l 1
 166 222 l 1
 166 166 l 1
 111 166 l 1
111 111 m 1
 111 166 l 1
 166 166 l 1
 166 111 l 1
 111 111 l 1
111 55 m 1
 111 111 l 1
 166 111 l 1
 166 55 l 1
 111 55 l 1
111 0 m 1
 111 55 l 1
 499 55 l 1
 499 0 l 1
 111 0 l 1
EndSplineSet
EndChar

StartChar: Edieresis
Encoding: 203 203 139
Width: 554
Flags: HW
LayerCount: 2
Back
Fore
SplineSet
166 720 m 1
 166 776 l 1
 222 776 l 1
 222 720 l 1
 166 720 l 1
333 720 m 1
 333 776 l 1
 443 776 l 1
 443 720 l 1
 333 720 l 1
111 610 m 1
 111 665 l 1
 499 665 l 1
 499 610 l 1
 111 610 l 1
111 554 m 1
 111 610 l 1
 166 610 l 1
 166 554 l 1
 111 554 l 1
111 499 m 1
 111 554 l 1
 166 554 l 1
 166 499 l 1
 111 499 l 1
111 443 m 1
 111 499 l 1
 166 499 l 1
 166 443 l 1
 111 443 l 1
111 388 m 1
 111 443 l 1
 166 443 l 1
 166 388 l 1
 111 388 l 1
111 333 m 1
 111 388 l 1
 443 388 l 1
 443 333 l 1
 111 333 l 1
111 277 m 1
 111 333 l 1
 166 333 l 1
 166 277 l 1
 111 277 l 1
111 222 m 1
 111 277 l 1
 166 277 l 1
 166 222 l 1
 111 222 l 1
111 166 m 1
 111 222 l 1
 166 222 l 1
 166 166 l 1
 111 166 l 1
111 111 m 1
 111 166 l 1
 166 166 l 1
 166 111 l 1
 111 111 l 1
111 55 m 1
 111 111 l 1
 166 111 l 1
 166 55 l 1
 111 55 l 1
111 0 m 1
 111 55 l 1
 499 55 l 1
 499 0 l 1
 111 0 l 1
EndSplineSet
EndChar

StartChar: Igrave
Encoding: 204 204 140
Width: 554
Flags: HW
LayerCount: 2
Back
Fore
SplineSet
222 776 m 1
 222 831 l 1
 388 831 l 1
 388 776 l 1
 222 776 l 1
333 720 m 1
 333 776 l 1
 443 776 l 1
 443 720 l 1
 333 720 l 1
111 610 m 1
 111 665 l 1
 499 665 l 1
 499 610 l 1
 111 610 l 1
277 554 m 1
 277 610 l 1
 333 610 l 1
 333 554 l 1
 277 554 l 1
277 499 m 1
 277 554 l 1
 333 554 l 1
 333 499 l 1
 277 499 l 1
277 443 m 1
 277 499 l 1
 333 499 l 1
 333 443 l 1
 277 443 l 1
277 388 m 1
 277 443 l 1
 333 443 l 1
 333 388 l 1
 277 388 l 1
277 333 m 1
 277 388 l 1
 333 388 l 1
 333 333 l 1
 277 333 l 1
277 277 m 1
 277 333 l 1
 333 333 l 1
 333 277 l 1
 277 277 l 1
277 222 m 1
 277 277 l 1
 333 277 l 1
 333 222 l 1
 277 222 l 1
277 166 m 1
 277 222 l 1
 333 222 l 1
 333 166 l 1
 277 166 l 1
277 111 m 1
 277 166 l 1
 333 166 l 1
 333 111 l 1
 277 111 l 1
277 55 m 1
 277 111 l 1
 333 111 l 1
 333 55 l 1
 277 55 l 1
111 0 m 1
 111 55 l 1
 499 55 l 1
 499 0 l 1
 111 0 l 1
EndSplineSet
EndChar

StartChar: Iacute
Encoding: 205 205 141
Width: 554
Flags: HW
LayerCount: 2
Back
Fore
SplineSet
222 776 m 1
 222 831 l 1
 388 831 l 1
 388 776 l 1
 222 776 l 1
166 720 m 1
 166 776 l 1
 277 776 l 1
 277 720 l 1
 166 720 l 1
111 610 m 1
 111 665 l 1
 499 665 l 1
 499 610 l 1
 111 610 l 1
277 554 m 1
 277 610 l 1
 333 610 l 1
 333 554 l 1
 277 554 l 1
277 499 m 1
 277 554 l 1
 333 554 l 1
 333 499 l 1
 277 499 l 1
277 443 m 1
 277 499 l 1
 333 499 l 1
 333 443 l 1
 277 443 l 1
277 388 m 1
 277 443 l 1
 333 443 l 1
 333 388 l 1
 277 388 l 1
277 333 m 1
 277 388 l 1
 333 388 l 1
 333 333 l 1
 277 333 l 1
277 277 m 1
 277 333 l 1
 333 333 l 1
 333 277 l 1
 277 277 l 1
277 222 m 1
 277 277 l 1
 333 277 l 1
 333 222 l 1
 277 222 l 1
277 166 m 1
 277 222 l 1
 333 222 l 1
 333 166 l 1
 277 166 l 1
277 111 m 1
 277 166 l 1
 333 166 l 1
 333 111 l 1
 277 111 l 1
277 55 m 1
 277 111 l 1
 333 111 l 1
 333 55 l 1
 277 55 l 1
111 0 m 1
 111 55 l 1
 499 55 l 1
 499 0 l 1
 111 0 l 1
EndSplineSet
EndChar

StartChar: Icircumflex
Encoding: 206 206 142
Width: 554
Flags: HW
LayerCount: 2
Back
Fore
SplineSet
166 776 m 1
 166 831 l 1
 388 831 l 1
 388 776 l 1
 166 776 l 1
111 720 m 1
 111 776 l 1
 222 776 l 1
 222 720 l 1
 111 720 l 1
333 720 m 1
 333 776 l 1
 443 776 l 1
 443 720 l 1
 333 720 l 1
111 610 m 1
 111 665 l 1
 499 665 l 1
 499 610 l 1
 111 610 l 1
277 554 m 1
 277 610 l 1
 333 610 l 1
 333 554 l 1
 277 554 l 1
277 499 m 1
 277 554 l 1
 333 554 l 1
 333 499 l 1
 277 499 l 1
277 443 m 1
 277 499 l 1
 333 499 l 1
 333 443 l 1
 277 443 l 1
277 388 m 1
 277 443 l 1
 333 443 l 1
 333 388 l 1
 277 388 l 1
277 333 m 1
 277 388 l 1
 333 388 l 1
 333 333 l 1
 277 333 l 1
277 277 m 1
 277 333 l 1
 333 333 l 1
 333 277 l 1
 277 277 l 1
277 222 m 1
 277 277 l 1
 333 277 l 1
 333 222 l 1
 277 222 l 1
277 166 m 1
 277 222 l 1
 333 222 l 1
 333 166 l 1
 277 166 l 1
277 111 m 1
 277 166 l 1
 333 166 l 1
 333 111 l 1
 277 111 l 1
277 55 m 1
 277 111 l 1
 333 111 l 1
 333 55 l 1
 277 55 l 1
111 0 m 1
 111 55 l 1
 499 55 l 1
 499 0 l 1
 111 0 l 1
EndSplineSet
EndChar

StartChar: Idieresis
Encoding: 207 207 143
Width: 554
Flags: HW
LayerCount: 2
Back
Fore
SplineSet
166 720 m 1
 166 776 l 1
 222 776 l 1
 222 720 l 1
 166 720 l 1
333 720 m 1
 333 776 l 1
 443 776 l 1
 443 720 l 1
 333 720 l 1
111 610 m 1
 111 665 l 1
 499 665 l 1
 499 610 l 1
 111 610 l 1
277 554 m 1
 277 610 l 1
 333 610 l 1
 333 554 l 1
 277 554 l 1
277 499 m 1
 277 554 l 1
 333 554 l 1
 333 499 l 1
 277 499 l 1
277 443 m 1
 277 499 l 1
 333 499 l 1
 333 443 l 1
 277 443 l 1
277 388 m 1
 277 443 l 1
 333 443 l 1
 333 388 l 1
 277 388 l 1
277 333 m 1
 277 388 l 1
 333 388 l 1
 333 333 l 1
 277 333 l 1
277 277 m 1
 277 333 l 1
 333 333 l 1
 333 277 l 1
 277 277 l 1
277 222 m 1
 277 277 l 1
 333 277 l 1
 333 222 l 1
 277 222 l 1
277 166 m 1
 277 222 l 1
 333 222 l 1
 333 166 l 1
 277 166 l 1
277 111 m 1
 277 166 l 1
 333 166 l 1
 333 111 l 1
 277 111 l 1
277 55 m 1
 277 111 l 1
 333 111 l 1
 333 55 l 1
 277 55 l 1
111 0 m 1
 111 55 l 1
 499 55 l 1
 499 0 l 1
 111 0 l 1
EndSplineSet
EndChar

StartChar: Eth
Encoding: 208 208 144
Width: 554
Flags: HW
LayerCount: 2
Back
Fore
SplineSet
55 610 m 1
 55 665 l 1
 443 665 l 1
 443 610 l 1
 55 610 l 1
55 554 m 1
 55 610 l 1
 111 610 l 1
 111 554 l 1
 55 554 l 1
388 554 m 1
 388 610 l 1
 499 610 l 1
 499 554 l 1
 388 554 l 1
55 499 m 1
 55 554 l 1
 111 554 l 1
 111 499 l 1
 55 499 l 1
443 499 m 1
 443 554 l 1
 554 554 l 1
 554 499 l 1
 443 499 l 1
55 443 m 1
 55 499 l 1
 111 499 l 1
 111 443 l 1
 55 443 l 1
499 443 m 1
 499 499 l 1
 554 499 l 1
 554 443 l 1
 499 443 l 1
55 388 m 1
 55 443 l 1
 111 443 l 1
 111 388 l 1
 55 388 l 1
499 388 m 1
 499 443 l 1
 554 443 l 1
 554 388 l 1
 499 388 l 1
0 333 m 1
 0 388 l 1
 222 388 l 1
 222 333 l 1
 0 333 l 1
499 333 m 1
 499 388 l 1
 554 388 l 1
 554 333 l 1
 499 333 l 1
55 277 m 1
 55 333 l 1
 111 333 l 1
 111 277 l 1
 55 277 l 1
499 277 m 1
 499 333 l 1
 554 333 l 1
 554 277 l 1
 499 277 l 1
55 222 m 1
 55 277 l 1
 111 277 l 1
 111 222 l 1
 55 222 l 1
499 222 m 1
 499 277 l 1
 554 277 l 1
 554 222 l 1
 499 222 l 1
55 166 m 1
 55 222 l 1
 111 222 l 1
 111 166 l 1
 55 166 l 1
499 166 m 1
 499 222 l 1
 554 222 l 1
 554 166 l 1
 499 166 l 1
55 111 m 1
 55 166 l 1
 111 166 l 1
 111 111 l 1
 55 111 l 1
443 111 m 1
 443 166 l 1
 499 166 l 1
 499 111 l 1
 443 111 l 1
55 55 m 1
 55 111 l 1
 111 111 l 1
 111 55 l 1
 55 55 l 1
388 55 m 1
 388 111 l 1
 499 111 l 1
 499 55 l 1
 388 55 l 1
55 0 m 1
 55 55 l 1
 388 55 l 1
 388 0 l 1
 55 0 l 1
EndSplineSet
EndChar

StartChar: Ntilde
Encoding: 209 209 145
Width: 554
Flags: HW
LayerCount: 2
Back
Fore
SplineSet
111 720 m 1
 111 776 l 1
 443 776 l 1
 443 720 l 1
 111 720 l 1
55 610 m 1
 55 665 l 1
 111 665 l 1
 111 610 l 1
 55 610 l 1
443 610 m 1
 443 665 l 1
 499 665 l 1
 499 610 l 1
 443 610 l 1
55 554 m 1
 55 610 l 1
 166 610 l 1
 166 554 l 1
 55 554 l 1
443 554 m 1
 443 610 l 1
 499 610 l 1
 499 554 l 1
 443 554 l 1
55 499 m 1
 55 554 l 1
 222 554 l 1
 222 499 l 1
 55 499 l 1
443 499 m 1
 443 554 l 1
 499 554 l 1
 499 499 l 1
 443 499 l 1
55 443 m 1
 55 499 l 1
 111 499 l 1
 111 443 l 1
 55 443 l 1
166 443 m 1
 166 499 l 1
 222 499 l 1
 222 443 l 1
 166 443 l 1
443 443 m 1
 443 499 l 1
 499 499 l 1
 499 443 l 1
 443 443 l 1
55 388 m 1
 55 443 l 1
 111 443 l 1
 111 388 l 1
 55 388 l 1
222 388 m 1
 222 443 l 1
 277 443 l 1
 277 388 l 1
 222 388 l 1
443 388 m 1
 443 443 l 1
 499 443 l 1
 499 388 l 1
 443 388 l 1
55 333 m 1
 55 388 l 1
 111 388 l 1
 111 333 l 1
 55 333 l 1
222 333 m 1
 222 388 l 1
 277 388 l 1
 277 333 l 1
 222 333 l 1
443 333 m 1
 443 388 l 1
 499 388 l 1
 499 333 l 1
 443 333 l 1
55 277 m 1
 55 333 l 1
 111 333 l 1
 111 277 l 1
 55 277 l 1
277 277 m 1
 277 333 l 1
 333 333 l 1
 333 277 l 1
 277 277 l 1
443 277 m 1
 443 333 l 1
 499 333 l 1
 499 277 l 1
 443 277 l 1
55 222 m 1
 55 277 l 1
 111 277 l 1
 111 222 l 1
 55 222 l 1
277 222 m 1
 277 277 l 1
 333 277 l 1
 333 222 l 1
 277 222 l 1
443 222 m 1
 443 277 l 1
 499 277 l 1
 499 222 l 1
 443 222 l 1
55 166 m 1
 55 222 l 1
 111 222 l 1
 111 166 l 1
 55 166 l 1
333 166 m 1
 333 222 l 1
 388 222 l 1
 388 166 l 1
 333 166 l 1
443 166 m 1
 443 222 l 1
 499 222 l 1
 499 166 l 1
 443 166 l 1
55 111 m 1
 55 166 l 1
 111 166 l 1
 111 111 l 1
 55 111 l 1
388 111 m 1
 388 166 l 1
 499 166 l 1
 499 111 l 1
 388 111 l 1
55 55 m 1
 55 111 l 1
 111 111 l 1
 111 55 l 1
 55 55 l 1
388 55 m 1
 388 111 l 1
 499 111 l 1
 499 55 l 1
 388 55 l 1
55 0 m 1
 55 55 l 1
 111 55 l 1
 111 0 l 1
 55 0 l 1
443 0 m 1
 443 55 l 1
 499 55 l 1
 499 0 l 1
 443 0 l 1
EndSplineSet
EndChar

StartChar: Ograve
Encoding: 210 210 146
Width: 554
Flags: HW
LayerCount: 2
Back
Fore
SplineSet
222 776 m 1
 222 831 l 1
 388 831 l 1
 388 776 l 1
 222 776 l 1
333 720 m 1
 333 776 l 1
 443 776 l 1
 443 720 l 1
 333 720 l 1
166 610 m 1
 166 665 l 1
 443 665 l 1
 443 610 l 1
 166 610 l 1
111 554 m 1
 111 610 l 1
 222 610 l 1
 222 554 l 1
 111 554 l 1
388 554 m 1
 388 610 l 1
 499 610 l 1
 499 554 l 1
 388 554 l 1
111 499 m 1
 111 554 l 1
 166 554 l 1
 166 499 l 1
 111 499 l 1
443 499 m 1
 443 554 l 1
 499 554 l 1
 499 499 l 1
 443 499 l 1
55 443 m 1
 55 499 l 1
 111 499 l 1
 111 443 l 1
 55 443 l 1
499 443 m 1
 499 499 l 1
 554 499 l 1
 554 443 l 1
 499 443 l 1
55 388 m 1
 55 443 l 1
 111 443 l 1
 111 388 l 1
 55 388 l 1
499 388 m 1
 499 443 l 1
 554 443 l 1
 554 388 l 1
 499 388 l 1
55 333 m 1
 55 388 l 1
 111 388 l 1
 111 333 l 1
 55 333 l 1
499 333 m 1
 499 388 l 1
 554 388 l 1
 554 333 l 1
 499 333 l 1
55 277 m 1
 55 333 l 1
 111 333 l 1
 111 277 l 1
 55 277 l 1
499 277 m 1
 499 333 l 1
 554 333 l 1
 554 277 l 1
 499 277 l 1
55 222 m 1
 55 277 l 1
 111 277 l 1
 111 222 l 1
 55 222 l 1
499 222 m 1
 499 277 l 1
 554 277 l 1
 554 222 l 1
 499 222 l 1
55 166 m 1
 55 222 l 1
 111 222 l 1
 111 166 l 1
 55 166 l 1
499 166 m 1
 499 222 l 1
 554 222 l 1
 554 166 l 1
 499 166 l 1
111 111 m 1
 111 166 l 1
 166 166 l 1
 166 111 l 1
 111 111 l 1
443 111 m 1
 443 166 l 1
 499 166 l 1
 499 111 l 1
 443 111 l 1
111 55 m 1
 111 111 l 1
 222 111 l 1
 222 55 l 1
 111 55 l 1
388 55 m 1
 388 111 l 1
 499 111 l 1
 499 55 l 1
 388 55 l 1
166 0 m 1
 166 55 l 1
 443 55 l 1
 443 0 l 1
 166 0 l 1
EndSplineSet
EndChar

StartChar: Oacute
Encoding: 211 211 147
Width: 554
Flags: HW
LayerCount: 2
Back
Fore
SplineSet
222 776 m 1
 222 831 l 1
 388 831 l 1
 388 776 l 1
 222 776 l 1
166 720 m 1
 166 776 l 1
 277 776 l 1
 277 720 l 1
 166 720 l 1
166 610 m 1
 166 665 l 1
 443 665 l 1
 443 610 l 1
 166 610 l 1
111 554 m 1
 111 610 l 1
 222 610 l 1
 222 554 l 1
 111 554 l 1
388 554 m 1
 388 610 l 1
 499 610 l 1
 499 554 l 1
 388 554 l 1
111 499 m 1
 111 554 l 1
 166 554 l 1
 166 499 l 1
 111 499 l 1
443 499 m 1
 443 554 l 1
 499 554 l 1
 499 499 l 1
 443 499 l 1
55 443 m 1
 55 499 l 1
 111 499 l 1
 111 443 l 1
 55 443 l 1
499 443 m 1
 499 499 l 1
 554 499 l 1
 554 443 l 1
 499 443 l 1
55 388 m 1
 55 443 l 1
 111 443 l 1
 111 388 l 1
 55 388 l 1
499 388 m 1
 499 443 l 1
 554 443 l 1
 554 388 l 1
 499 388 l 1
55 333 m 1
 55 388 l 1
 111 388 l 1
 111 333 l 1
 55 333 l 1
499 333 m 1
 499 388 l 1
 554 388 l 1
 554 333 l 1
 499 333 l 1
55 277 m 1
 55 333 l 1
 111 333 l 1
 111 277 l 1
 55 277 l 1
499 277 m 1
 499 333 l 1
 554 333 l 1
 554 277 l 1
 499 277 l 1
55 222 m 1
 55 277 l 1
 111 277 l 1
 111 222 l 1
 55 222 l 1
499 222 m 1
 499 277 l 1
 554 277 l 1
 554 222 l 1
 499 222 l 1
55 166 m 1
 55 222 l 1
 111 222 l 1
 111 166 l 1
 55 166 l 1
499 166 m 1
 499 222 l 1
 554 222 l 1
 554 166 l 1
 499 166 l 1
111 111 m 1
 111 166 l 1
 166 166 l 1
 166 111 l 1
 111 111 l 1
443 111 m 1
 443 166 l 1
 499 166 l 1
 499 111 l 1
 443 111 l 1
111 55 m 1
 111 111 l 1
 222 111 l 1
 222 55 l 1
 111 55 l 1
388 55 m 1
 388 111 l 1
 499 111 l 1
 499 55 l 1
 388 55 l 1
166 0 m 1
 166 55 l 1
 443 55 l 1
 443 0 l 1
 166 0 l 1
EndSplineSet
EndChar

StartChar: Ocircumflex
Encoding: 212 212 148
Width: 554
Flags: HW
LayerCount: 2
Back
Fore
SplineSet
166 776 m 1
 166 831 l 1
 388 831 l 1
 388 776 l 1
 166 776 l 1
111 720 m 1
 111 776 l 1
 222 776 l 1
 222 720 l 1
 111 720 l 1
333 720 m 1
 333 776 l 1
 443 776 l 1
 443 720 l 1
 333 720 l 1
166 610 m 1
 166 665 l 1
 443 665 l 1
 443 610 l 1
 166 610 l 1
111 554 m 1
 111 610 l 1
 222 610 l 1
 222 554 l 1
 111 554 l 1
388 554 m 1
 388 610 l 1
 499 610 l 1
 499 554 l 1
 388 554 l 1
111 499 m 1
 111 554 l 1
 166 554 l 1
 166 499 l 1
 111 499 l 1
443 499 m 1
 443 554 l 1
 499 554 l 1
 499 499 l 1
 443 499 l 1
55 443 m 1
 55 499 l 1
 111 499 l 1
 111 443 l 1
 55 443 l 1
499 443 m 1
 499 499 l 1
 554 499 l 1
 554 443 l 1
 499 443 l 1
55 388 m 1
 55 443 l 1
 111 443 l 1
 111 388 l 1
 55 388 l 1
499 388 m 1
 499 443 l 1
 554 443 l 1
 554 388 l 1
 499 388 l 1
55 333 m 1
 55 388 l 1
 111 388 l 1
 111 333 l 1
 55 333 l 1
499 333 m 1
 499 388 l 1
 554 388 l 1
 554 333 l 1
 499 333 l 1
55 277 m 1
 55 333 l 1
 111 333 l 1
 111 277 l 1
 55 277 l 1
499 277 m 1
 499 333 l 1
 554 333 l 1
 554 277 l 1
 499 277 l 1
55 222 m 1
 55 277 l 1
 111 277 l 1
 111 222 l 1
 55 222 l 1
499 222 m 1
 499 277 l 1
 554 277 l 1
 554 222 l 1
 499 222 l 1
55 166 m 1
 55 222 l 1
 111 222 l 1
 111 166 l 1
 55 166 l 1
499 166 m 1
 499 222 l 1
 554 222 l 1
 554 166 l 1
 499 166 l 1
111 111 m 1
 111 166 l 1
 166 166 l 1
 166 111 l 1
 111 111 l 1
443 111 m 1
 443 166 l 1
 499 166 l 1
 499 111 l 1
 443 111 l 1
111 55 m 1
 111 111 l 1
 222 111 l 1
 222 55 l 1
 111 55 l 1
388 55 m 1
 388 111 l 1
 499 111 l 1
 499 55 l 1
 388 55 l 1
166 0 m 1
 166 55 l 1
 443 55 l 1
 443 0 l 1
 166 0 l 1
EndSplineSet
EndChar

StartChar: Otilde
Encoding: 213 213 149
Width: 554
Flags: HW
LayerCount: 2
Back
Fore
SplineSet
111 720 m 1
 111 776 l 1
 443 776 l 1
 443 720 l 1
 111 720 l 1
166 610 m 1
 166 665 l 1
 443 665 l 1
 443 610 l 1
 166 610 l 1
111 554 m 1
 111 610 l 1
 222 610 l 1
 222 554 l 1
 111 554 l 1
388 554 m 1
 388 610 l 1
 499 610 l 1
 499 554 l 1
 388 554 l 1
111 499 m 1
 111 554 l 1
 166 554 l 1
 166 499 l 1
 111 499 l 1
443 499 m 1
 443 554 l 1
 499 554 l 1
 499 499 l 1
 443 499 l 1
55 443 m 1
 55 499 l 1
 111 499 l 1
 111 443 l 1
 55 443 l 1
499 443 m 1
 499 499 l 1
 554 499 l 1
 554 443 l 1
 499 443 l 1
55 388 m 1
 55 443 l 1
 111 443 l 1
 111 388 l 1
 55 388 l 1
499 388 m 1
 499 443 l 1
 554 443 l 1
 554 388 l 1
 499 388 l 1
55 333 m 1
 55 388 l 1
 111 388 l 1
 111 333 l 1
 55 333 l 1
499 333 m 1
 499 388 l 1
 554 388 l 1
 554 333 l 1
 499 333 l 1
55 277 m 1
 55 333 l 1
 111 333 l 1
 111 277 l 1
 55 277 l 1
499 277 m 1
 499 333 l 1
 554 333 l 1
 554 277 l 1
 499 277 l 1
55 222 m 1
 55 277 l 1
 111 277 l 1
 111 222 l 1
 55 222 l 1
499 222 m 1
 499 277 l 1
 554 277 l 1
 554 222 l 1
 499 222 l 1
55 166 m 1
 55 222 l 1
 111 222 l 1
 111 166 l 1
 55 166 l 1
499 166 m 1
 499 222 l 1
 554 222 l 1
 554 166 l 1
 499 166 l 1
111 111 m 1
 111 166 l 1
 166 166 l 1
 166 111 l 1
 111 111 l 1
443 111 m 1
 443 166 l 1
 499 166 l 1
 499 111 l 1
 443 111 l 1
111 55 m 1
 111 111 l 1
 222 111 l 1
 222 55 l 1
 111 55 l 1
388 55 m 1
 388 111 l 1
 499 111 l 1
 499 55 l 1
 388 55 l 1
166 0 m 1
 166 55 l 1
 443 55 l 1
 443 0 l 1
 166 0 l 1
EndSplineSet
EndChar

StartChar: Odieresis
Encoding: 214 214 150
Width: 554
Flags: HW
LayerCount: 2
Back
Fore
SplineSet
166 720 m 1
 166 776 l 1
 222 776 l 1
 222 720 l 1
 166 720 l 1
333 720 m 1
 333 776 l 1
 443 776 l 1
 443 720 l 1
 333 720 l 1
166 610 m 1
 166 665 l 1
 443 665 l 1
 443 610 l 1
 166 610 l 1
111 554 m 1
 111 610 l 1
 222 610 l 1
 222 554 l 1
 111 554 l 1
388 554 m 1
 388 610 l 1
 499 610 l 1
 499 554 l 1
 388 554 l 1
111 499 m 1
 111 554 l 1
 166 554 l 1
 166 499 l 1
 111 499 l 1
443 499 m 1
 443 554 l 1
 499 554 l 1
 499 499 l 1
 443 499 l 1
55 443 m 1
 55 499 l 1
 111 499 l 1
 111 443 l 1
 55 443 l 1
499 443 m 1
 499 499 l 1
 554 499 l 1
 554 443 l 1
 499 443 l 1
55 388 m 1
 55 443 l 1
 111 443 l 1
 111 388 l 1
 55 388 l 1
499 388 m 1
 499 443 l 1
 554 443 l 1
 554 388 l 1
 499 388 l 1
55 333 m 1
 55 388 l 1
 111 388 l 1
 111 333 l 1
 55 333 l 1
499 333 m 1
 499 388 l 1
 554 388 l 1
 554 333 l 1
 499 333 l 1
55 277 m 1
 55 333 l 1
 111 333 l 1
 111 277 l 1
 55 277 l 1
499 277 m 1
 499 333 l 1
 554 333 l 1
 554 277 l 1
 499 277 l 1
55 222 m 1
 55 277 l 1
 111 277 l 1
 111 222 l 1
 55 222 l 1
499 222 m 1
 499 277 l 1
 554 277 l 1
 554 222 l 1
 499 222 l 1
55 166 m 1
 55 222 l 1
 111 222 l 1
 111 166 l 1
 55 166 l 1
499 166 m 1
 499 222 l 1
 554 222 l 1
 554 166 l 1
 499 166 l 1
111 111 m 1
 111 166 l 1
 166 166 l 1
 166 111 l 1
 111 111 l 1
443 111 m 1
 443 166 l 1
 499 166 l 1
 499 111 l 1
 443 111 l 1
111 55 m 1
 111 111 l 1
 222 111 l 1
 222 55 l 1
 111 55 l 1
388 55 m 1
 388 111 l 1
 499 111 l 1
 499 55 l 1
 388 55 l 1
166 0 m 1
 166 55 l 1
 443 55 l 1
 443 0 l 1
 166 0 l 1
EndSplineSet
EndChar

StartChar: multiply
Encoding: 215 215 151
Width: 554
Flags: HW
LayerCount: 2
Back
Fore
SplineSet
55 443 m 1
 55 499 l 1
 111 499 l 1
 111 443 l 1
 55 443 l 1
499 443 m 1
 499 499 l 1
 554 499 l 1
 554 443 l 1
 499 443 l 1
111 388 m 1
 111 443 l 1
 166 443 l 1
 166 388 l 1
 111 388 l 1
443 388 m 1
 443 443 l 1
 499 443 l 1
 499 388 l 1
 443 388 l 1
166 333 m 1
 166 388 l 1
 222 388 l 1
 222 333 l 1
 166 333 l 1
388 333 m 1
 388 388 l 1
 443 388 l 1
 443 333 l 1
 388 333 l 1
222 277 m 1
 222 333 l 1
 277 333 l 1
 277 277 l 1
 222 277 l 1
333 277 m 1
 333 333 l 1
 388 333 l 1
 388 277 l 1
 333 277 l 1
277 222 m 1
 277 277 l 1
 333 277 l 1
 333 222 l 1
 277 222 l 1
222 166 m 1
 222 222 l 1
 277 222 l 1
 277 166 l 1
 222 166 l 1
333 166 m 1
 333 222 l 1
 388 222 l 1
 388 166 l 1
 333 166 l 1
166 111 m 1
 166 166 l 1
 222 166 l 1
 222 111 l 1
 166 111 l 1
388 111 m 1
 388 166 l 1
 443 166 l 1
 443 111 l 1
 388 111 l 1
111 55 m 1
 111 111 l 1
 166 111 l 1
 166 55 l 1
 111 55 l 1
443 55 m 1
 443 111 l 1
 499 111 l 1
 499 55 l 1
 443 55 l 1
55 0 m 1
 55 55 l 1
 111 55 l 1
 111 0 l 1
 55 0 l 1
499 0 m 1
 499 55 l 1
 554 55 l 1
 554 0 l 1
 499 0 l 1
EndSplineSet
EndChar

StartChar: Oslash
Encoding: 216 216 152
Width: 554
Flags: HW
LayerCount: 2
Back
Fore
SplineSet
166 610 m 1
 166 665 l 1
 554 665 l 1
 554 610 l 1
 166 610 l 1
111 554 m 1
 111 610 l 1
 222 610 l 1
 222 554 l 1
 111 554 l 1
388 554 m 1
 388 610 l 1
 554 610 l 1
 554 554 l 1
 388 554 l 1
111 499 m 1
 111 554 l 1
 166 554 l 1
 166 499 l 1
 111 499 l 1
443 499 m 1
 443 554 l 1
 554 554 l 1
 554 499 l 1
 443 499 l 1
55 443 m 1
 55 499 l 1
 111 499 l 1
 111 443 l 1
 55 443 l 1
388 443 m 1
 388 499 l 1
 443 499 l 1
 443 443 l 1
 388 443 l 1
499 443 m 1
 499 499 l 1
 554 499 l 1
 554 443 l 1
 499 443 l 1
55 388 m 1
 55 443 l 1
 111 443 l 1
 111 388 l 1
 55 388 l 1
333 388 m 1
 333 443 l 1
 388 443 l 1
 388 388 l 1
 333 388 l 1
499 388 m 1
 499 443 l 1
 554 443 l 1
 554 388 l 1
 499 388 l 1
55 333 m 1
 55 388 l 1
 111 388 l 1
 111 333 l 1
 55 333 l 1
277 333 m 1
 277 388 l 1
 388 388 l 1
 388 333 l 1
 277 333 l 1
499 333 m 1
 499 388 l 1
 554 388 l 1
 554 333 l 1
 499 333 l 1
55 277 m 1
 55 333 l 1
 111 333 l 1
 111 277 l 1
 55 277 l 1
222 277 m 1
 222 333 l 1
 333 333 l 1
 333 277 l 1
 222 277 l 1
499 277 m 1
 499 333 l 1
 554 333 l 1
 554 277 l 1
 499 277 l 1
55 222 m 1
 55 277 l 1
 111 277 l 1
 111 222 l 1
 55 222 l 1
222 222 m 1
 222 277 l 1
 277 277 l 1
 277 222 l 1
 222 222 l 1
499 222 m 1
 499 277 l 1
 554 277 l 1
 554 222 l 1
 499 222 l 1
55 166 m 1
 55 222 l 1
 111 222 l 1
 111 166 l 1
 55 166 l 1
166 166 m 1
 166 222 l 1
 222 222 l 1
 222 166 l 1
 166 166 l 1
499 166 m 1
 499 222 l 1
 554 222 l 1
 554 166 l 1
 499 166 l 1
55 111 m 1
 55 166 l 1
 166 166 l 1
 166 111 l 1
 55 111 l 1
443 111 m 1
 443 166 l 1
 499 166 l 1
 499 111 l 1
 443 111 l 1
55 55 m 1
 55 111 l 1
 222 111 l 1
 222 55 l 1
 55 55 l 1
388 55 m 1
 388 111 l 1
 499 111 l 1
 499 55 l 1
 388 55 l 1
55 0 m 1
 55 55 l 1
 443 55 l 1
 443 0 l 1
 55 0 l 1
EndSplineSet
EndChar

StartChar: Ugrave
Encoding: 217 217 153
Width: 554
Flags: HW
LayerCount: 2
Back
Fore
SplineSet
166 776 m 1
 166 831 l 1
 333 831 l 1
 333 776 l 1
 166 776 l 1
277 720 m 1
 277 776 l 1
 388 776 l 1
 388 720 l 1
 277 720 l 1
55 610 m 1
 55 665 l 1
 111 665 l 1
 111 610 l 1
 55 610 l 1
443 610 m 1
 443 665 l 1
 499 665 l 1
 499 610 l 1
 443 610 l 1
55 554 m 1
 55 610 l 1
 111 610 l 1
 111 554 l 1
 55 554 l 1
443 554 m 1
 443 610 l 1
 499 610 l 1
 499 554 l 1
 443 554 l 1
55 499 m 1
 55 554 l 1
 111 554 l 1
 111 499 l 1
 55 499 l 1
443 499 m 1
 443 554 l 1
 499 554 l 1
 499 499 l 1
 443 499 l 1
55 443 m 1
 55 499 l 1
 111 499 l 1
 111 443 l 1
 55 443 l 1
443 443 m 1
 443 499 l 1
 499 499 l 1
 499 443 l 1
 443 443 l 1
55 388 m 1
 55 443 l 1
 111 443 l 1
 111 388 l 1
 55 388 l 1
443 388 m 1
 443 443 l 1
 499 443 l 1
 499 388 l 1
 443 388 l 1
55 333 m 1
 55 388 l 1
 111 388 l 1
 111 333 l 1
 55 333 l 1
443 333 m 1
 443 388 l 1
 499 388 l 1
 499 333 l 1
 443 333 l 1
55 277 m 1
 55 333 l 1
 111 333 l 1
 111 277 l 1
 55 277 l 1
443 277 m 1
 443 333 l 1
 499 333 l 1
 499 277 l 1
 443 277 l 1
55 222 m 1
 55 277 l 1
 111 277 l 1
 111 222 l 1
 55 222 l 1
443 222 m 1
 443 277 l 1
 499 277 l 1
 499 222 l 1
 443 222 l 1
55 166 m 1
 55 222 l 1
 111 222 l 1
 111 166 l 1
 55 166 l 1
443 166 m 1
 443 222 l 1
 499 222 l 1
 499 166 l 1
 443 166 l 1
55 111 m 1
 55 166 l 1
 111 166 l 1
 111 111 l 1
 55 111 l 1
443 111 m 1
 443 166 l 1
 499 166 l 1
 499 111 l 1
 443 111 l 1
55 55 m 1
 55 111 l 1
 166 111 l 1
 166 55 l 1
 55 55 l 1
388 55 m 1
 388 111 l 1
 443 111 l 1
 443 55 l 1
 388 55 l 1
111 0 m 1
 111 55 l 1
 388 55 l 1
 388 0 l 1
 111 0 l 1
EndSplineSet
EndChar

StartChar: Uacute
Encoding: 218 218 154
Width: 554
Flags: HW
LayerCount: 2
Back
Fore
SplineSet
222 776 m 1
 222 831 l 1
 388 831 l 1
 388 776 l 1
 222 776 l 1
166 720 m 1
 166 776 l 1
 277 776 l 1
 277 720 l 1
 166 720 l 1
55 610 m 1
 55 665 l 1
 111 665 l 1
 111 610 l 1
 55 610 l 1
443 610 m 1
 443 665 l 1
 499 665 l 1
 499 610 l 1
 443 610 l 1
55 554 m 1
 55 610 l 1
 111 610 l 1
 111 554 l 1
 55 554 l 1
443 554 m 1
 443 610 l 1
 499 610 l 1
 499 554 l 1
 443 554 l 1
55 499 m 1
 55 554 l 1
 111 554 l 1
 111 499 l 1
 55 499 l 1
443 499 m 1
 443 554 l 1
 499 554 l 1
 499 499 l 1
 443 499 l 1
55 443 m 1
 55 499 l 1
 111 499 l 1
 111 443 l 1
 55 443 l 1
443 443 m 1
 443 499 l 1
 499 499 l 1
 499 443 l 1
 443 443 l 1
55 388 m 1
 55 443 l 1
 111 443 l 1
 111 388 l 1
 55 388 l 1
443 388 m 1
 443 443 l 1
 499 443 l 1
 499 388 l 1
 443 388 l 1
55 333 m 1
 55 388 l 1
 111 388 l 1
 111 333 l 1
 55 333 l 1
443 333 m 1
 443 388 l 1
 499 388 l 1
 499 333 l 1
 443 333 l 1
55 277 m 1
 55 333 l 1
 111 333 l 1
 111 277 l 1
 55 277 l 1
443 277 m 1
 443 333 l 1
 499 333 l 1
 499 277 l 1
 443 277 l 1
55 222 m 1
 55 277 l 1
 111 277 l 1
 111 222 l 1
 55 222 l 1
443 222 m 1
 443 277 l 1
 499 277 l 1
 499 222 l 1
 443 222 l 1
55 166 m 1
 55 222 l 1
 111 222 l 1
 111 166 l 1
 55 166 l 1
443 166 m 1
 443 222 l 1
 499 222 l 1
 499 166 l 1
 443 166 l 1
55 111 m 1
 55 166 l 1
 111 166 l 1
 111 111 l 1
 55 111 l 1
443 111 m 1
 443 166 l 1
 499 166 l 1
 499 111 l 1
 443 111 l 1
55 55 m 1
 55 111 l 1
 166 111 l 1
 166 55 l 1
 55 55 l 1
388 55 m 1
 388 111 l 1
 443 111 l 1
 443 55 l 1
 388 55 l 1
111 0 m 1
 111 55 l 1
 388 55 l 1
 388 0 l 1
 111 0 l 1
EndSplineSet
EndChar

StartChar: Ucircumflex
Encoding: 219 219 155
Width: 554
Flags: HW
LayerCount: 2
Back
Fore
SplineSet
166 776 m 1
 166 831 l 1
 388 831 l 1
 388 776 l 1
 166 776 l 1
111 720 m 1
 111 776 l 1
 222 776 l 1
 222 720 l 1
 111 720 l 1
333 720 m 1
 333 776 l 1
 443 776 l 1
 443 720 l 1
 333 720 l 1
55 610 m 1
 55 665 l 1
 111 665 l 1
 111 610 l 1
 55 610 l 1
443 610 m 1
 443 665 l 1
 499 665 l 1
 499 610 l 1
 443 610 l 1
55 554 m 1
 55 610 l 1
 111 610 l 1
 111 554 l 1
 55 554 l 1
443 554 m 1
 443 610 l 1
 499 610 l 1
 499 554 l 1
 443 554 l 1
55 499 m 1
 55 554 l 1
 111 554 l 1
 111 499 l 1
 55 499 l 1
443 499 m 1
 443 554 l 1
 499 554 l 1
 499 499 l 1
 443 499 l 1
55 443 m 1
 55 499 l 1
 111 499 l 1
 111 443 l 1
 55 443 l 1
443 443 m 1
 443 499 l 1
 499 499 l 1
 499 443 l 1
 443 443 l 1
55 388 m 1
 55 443 l 1
 111 443 l 1
 111 388 l 1
 55 388 l 1
443 388 m 1
 443 443 l 1
 499 443 l 1
 499 388 l 1
 443 388 l 1
55 333 m 1
 55 388 l 1
 111 388 l 1
 111 333 l 1
 55 333 l 1
443 333 m 1
 443 388 l 1
 499 388 l 1
 499 333 l 1
 443 333 l 1
55 277 m 1
 55 333 l 1
 111 333 l 1
 111 277 l 1
 55 277 l 1
443 277 m 1
 443 333 l 1
 499 333 l 1
 499 277 l 1
 443 277 l 1
55 222 m 1
 55 277 l 1
 111 277 l 1
 111 222 l 1
 55 222 l 1
443 222 m 1
 443 277 l 1
 499 277 l 1
 499 222 l 1
 443 222 l 1
55 166 m 1
 55 222 l 1
 111 222 l 1
 111 166 l 1
 55 166 l 1
443 166 m 1
 443 222 l 1
 499 222 l 1
 499 166 l 1
 443 166 l 1
55 111 m 1
 55 166 l 1
 111 166 l 1
 111 111 l 1
 55 111 l 1
443 111 m 1
 443 166 l 1
 499 166 l 1
 499 111 l 1
 443 111 l 1
55 55 m 1
 55 111 l 1
 166 111 l 1
 166 55 l 1
 55 55 l 1
388 55 m 1
 388 111 l 1
 443 111 l 1
 443 55 l 1
 388 55 l 1
111 0 m 1
 111 55 l 1
 388 55 l 1
 388 0 l 1
 111 0 l 1
EndSplineSet
EndChar

StartChar: Udieresis
Encoding: 220 220 156
Width: 554
Flags: HW
LayerCount: 2
Back
Fore
SplineSet
111 720 m 1
 111 776 l 1
 166 776 l 1
 166 720 l 1
 111 720 l 1
277 720 m 1
 277 776 l 1
 388 776 l 1
 388 720 l 1
 277 720 l 1
55 610 m 1
 55 665 l 1
 111 665 l 1
 111 610 l 1
 55 610 l 1
443 610 m 1
 443 665 l 1
 499 665 l 1
 499 610 l 1
 443 610 l 1
55 554 m 1
 55 610 l 1
 111 610 l 1
 111 554 l 1
 55 554 l 1
443 554 m 1
 443 610 l 1
 499 610 l 1
 499 554 l 1
 443 554 l 1
55 499 m 1
 55 554 l 1
 111 554 l 1
 111 499 l 1
 55 499 l 1
443 499 m 1
 443 554 l 1
 499 554 l 1
 499 499 l 1
 443 499 l 1
55 443 m 1
 55 499 l 1
 111 499 l 1
 111 443 l 1
 55 443 l 1
443 443 m 1
 443 499 l 1
 499 499 l 1
 499 443 l 1
 443 443 l 1
55 388 m 1
 55 443 l 1
 111 443 l 1
 111 388 l 1
 55 388 l 1
443 388 m 1
 443 443 l 1
 499 443 l 1
 499 388 l 1
 443 388 l 1
55 333 m 1
 55 388 l 1
 111 388 l 1
 111 333 l 1
 55 333 l 1
443 333 m 1
 443 388 l 1
 499 388 l 1
 499 333 l 1
 443 333 l 1
55 277 m 1
 55 333 l 1
 111 333 l 1
 111 277 l 1
 55 277 l 1
443 277 m 1
 443 333 l 1
 499 333 l 1
 499 277 l 1
 443 277 l 1
55 222 m 1
 55 277 l 1
 111 277 l 1
 111 222 l 1
 55 222 l 1
443 222 m 1
 443 277 l 1
 499 277 l 1
 499 222 l 1
 443 222 l 1
55 166 m 1
 55 222 l 1
 111 222 l 1
 111 166 l 1
 55 166 l 1
443 166 m 1
 443 222 l 1
 499 222 l 1
 499 166 l 1
 443 166 l 1
55 111 m 1
 55 166 l 1
 111 166 l 1
 111 111 l 1
 55 111 l 1
443 111 m 1
 443 166 l 1
 499 166 l 1
 499 111 l 1
 443 111 l 1
55 55 m 1
 55 111 l 1
 166 111 l 1
 166 55 l 1
 55 55 l 1
388 55 m 1
 388 111 l 1
 443 111 l 1
 443 55 l 1
 388 55 l 1
111 0 m 1
 111 55 l 1
 388 55 l 1
 388 0 l 1
 111 0 l 1
EndSplineSet
EndChar

StartChar: Yacute
Encoding: 221 221 157
Width: 554
Flags: HW
LayerCount: 2
Back
Fore
SplineSet
222 776 m 1
 222 831 l 1
 388 831 l 1
 388 776 l 1
 222 776 l 1
166 720 m 1
 166 776 l 1
 277 776 l 1
 277 720 l 1
 166 720 l 1
55 610 m 1
 55 665 l 1
 166 665 l 1
 166 610 l 1
 55 610 l 1
443 610 m 1
 443 665 l 1
 554 665 l 1
 554 610 l 1
 443 610 l 1
111 554 m 1
 111 610 l 1
 166 610 l 1
 166 554 l 1
 111 554 l 1
443 554 m 1
 443 610 l 1
 499 610 l 1
 499 554 l 1
 443 554 l 1
166 499 m 1
 166 554 l 1
 222 554 l 1
 222 499 l 1
 166 499 l 1
388 499 m 1
 388 554 l 1
 443 554 l 1
 443 499 l 1
 388 499 l 1
166 443 m 1
 166 499 l 1
 222 499 l 1
 222 443 l 1
 166 443 l 1
388 443 m 1
 388 499 l 1
 443 499 l 1
 443 443 l 1
 388 443 l 1
222 388 m 1
 222 443 l 1
 277 443 l 1
 277 388 l 1
 222 388 l 1
333 388 m 1
 333 443 l 1
 388 443 l 1
 388 388 l 1
 333 388 l 1
222 333 m 1
 222 388 l 1
 277 388 l 1
 277 333 l 1
 222 333 l 1
333 333 m 1
 333 388 l 1
 388 388 l 1
 388 333 l 1
 333 333 l 1
277 277 m 1
 277 333 l 1
 333 333 l 1
 333 277 l 1
 277 277 l 1
277 222 m 1
 277 277 l 1
 333 277 l 1
 333 222 l 1
 277 222 l 1
277 166 m 1
 277 222 l 1
 333 222 l 1
 333 166 l 1
 277 166 l 1
277 111 m 1
 277 166 l 1
 333 166 l 1
 333 111 l 1
 277 111 l 1
277 55 m 1
 277 111 l 1
 333 111 l 1
 333 55 l 1
 277 55 l 1
277 0 m 1
 277 55 l 1
 333 55 l 1
 333 0 l 1
 277 0 l 1
EndSplineSet
EndChar

StartChar: Thorn
Encoding: 222 222 158
Width: 554
Flags: HW
LayerCount: 2
Back
Fore
SplineSet
111 610 m 1
 111 665 l 1
 166 665 l 1
 166 610 l 1
 111 610 l 1
111 554 m 1
 111 610 l 1
 166 610 l 1
 166 554 l 1
 111 554 l 1
111 499 m 1
 111 554 l 1
 499 554 l 1
 499 499 l 1
 111 499 l 1
111 443 m 1
 111 499 l 1
 166 499 l 1
 166 443 l 1
 111 443 l 1
443 443 m 1
 443 499 l 1
 554 499 l 1
 554 443 l 1
 443 443 l 1
111 388 m 1
 111 443 l 1
 166 443 l 1
 166 388 l 1
 111 388 l 1
499 388 m 1
 499 443 l 1
 554 443 l 1
 554 388 l 1
 499 388 l 1
111 333 m 1
 111 388 l 1
 166 388 l 1
 166 333 l 1
 111 333 l 1
499 333 m 1
 499 388 l 1
 554 388 l 1
 554 333 l 1
 499 333 l 1
111 277 m 1
 111 333 l 1
 166 333 l 1
 166 277 l 1
 111 277 l 1
499 277 m 1
 499 333 l 1
 554 333 l 1
 554 277 l 1
 499 277 l 1
111 222 m 1
 111 277 l 1
 166 277 l 1
 166 222 l 1
 111 222 l 1
443 222 m 1
 443 277 l 1
 499 277 l 1
 499 222 l 1
 443 222 l 1
111 166 m 1
 111 222 l 1
 443 222 l 1
 443 166 l 1
 111 166 l 1
111 111 m 1
 111 166 l 1
 166 166 l 1
 166 111 l 1
 111 111 l 1
111 55 m 1
 111 111 l 1
 166 111 l 1
 166 55 l 1
 111 55 l 1
111 0 m 1
 111 55 l 1
 166 55 l 1
 166 0 l 1
 111 0 l 1
EndSplineSet
EndChar

StartChar: germandbls
Encoding: 223 223 159
Width: 554
Flags: HW
LayerCount: 2
Back
Fore
SplineSet
166 665 m 1
 166 720 l 1
 388 720 l 1
 388 665 l 1
 166 665 l 1
111 610 m 1
 111 665 l 1
 166 665 l 1
 166 610 l 1
 111 610 l 1
388 610 m 1
 388 665 l 1
 443 665 l 1
 443 610 l 1
 388 610 l 1
111 554 m 1
 111 610 l 1
 166 610 l 1
 166 554 l 1
 111 554 l 1
388 554 m 1
 388 610 l 1
 443 610 l 1
 443 554 l 1
 388 554 l 1
111 499 m 1
 111 554 l 1
 166 554 l 1
 166 499 l 1
 111 499 l 1
333 499 m 1
 333 554 l 1
 443 554 l 1
 443 499 l 1
 333 499 l 1
111 443 m 1
 111 499 l 1
 166 499 l 1
 166 443 l 1
 111 443 l 1
333 443 m 1
 333 499 l 1
 388 499 l 1
 388 443 l 1
 333 443 l 1
111 388 m 1
 111 443 l 1
 166 443 l 1
 166 388 l 1
 111 388 l 1
277 388 m 1
 277 443 l 1
 333 443 l 1
 333 388 l 1
 277 388 l 1
111 333 m 1
 111 388 l 1
 166 388 l 1
 166 333 l 1
 111 333 l 1
277 333 m 1
 277 388 l 1
 333 388 l 1
 333 333 l 1
 277 333 l 1
111 277 m 1
 111 333 l 1
 166 333 l 1
 166 277 l 1
 111 277 l 1
333 277 m 1
 333 333 l 1
 443 333 l 1
 443 277 l 1
 333 277 l 1
111 222 m 1
 111 277 l 1
 166 277 l 1
 166 222 l 1
 111 222 l 1
388 222 m 1
 388 277 l 1
 499 277 l 1
 499 222 l 1
 388 222 l 1
111 166 m 1
 111 222 l 1
 166 222 l 1
 166 166 l 1
 111 166 l 1
499 166 m 1
 499 222 l 1
 554 222 l 1
 554 166 l 1
 499 166 l 1
111 111 m 1
 111 166 l 1
 166 166 l 1
 166 111 l 1
 111 111 l 1
499 111 m 1
 499 166 l 1
 554 166 l 1
 554 111 l 1
 499 111 l 1
111 55 m 1
 111 111 l 1
 166 111 l 1
 166 55 l 1
 111 55 l 1
222 55 m 1
 222 111 l 1
 277 111 l 1
 277 55 l 1
 222 55 l 1
499 55 m 1
 499 111 l 1
 554 111 l 1
 554 55 l 1
 499 55 l 1
111 0 m 1
 111 55 l 1
 166 55 l 1
 166 0 l 1
 111 0 l 1
222 0 m 1
 222 55 l 1
 499 55 l 1
 499 0 l 1
 222 0 l 1
EndSplineSet
EndChar

StartChar: agrave
Encoding: 224 224 160
Width: 554
Flags: HW
LayerCount: 2
Back
Fore
SplineSet
166 610 m 1
 166 665 l 1
 333 665 l 1
 333 610 l 1
 166 610 l 1
277 554 m 1
 277 610 l 1
 388 610 l 1
 388 554 l 1
 277 554 l 1
111 443 m 1
 111 499 l 1
 388 499 l 1
 388 443 l 1
 111 443 l 1
111 388 m 1
 111 443 l 1
 166 443 l 1
 166 388 l 1
 111 388 l 1
388 388 m 1
 388 443 l 1
 443 443 l 1
 443 388 l 1
 388 388 l 1
388 333 m 1
 388 388 l 1
 443 388 l 1
 443 333 l 1
 388 333 l 1
388 277 m 1
 388 333 l 1
 443 333 l 1
 443 277 l 1
 388 277 l 1
166 222 m 1
 166 277 l 1
 443 277 l 1
 443 222 l 1
 166 222 l 1
55 166 m 1
 55 222 l 1
 166 222 l 1
 166 166 l 1
 55 166 l 1
388 166 m 1
 388 222 l 1
 443 222 l 1
 443 166 l 1
 388 166 l 1
55 111 m 1
 55 166 l 1
 111 166 l 1
 111 111 l 1
 55 111 l 1
388 111 m 1
 388 166 l 1
 443 166 l 1
 443 111 l 1
 388 111 l 1
55 55 m 1
 55 111 l 1
 111 111 l 1
 111 55 l 1
 55 55 l 1
333 55 m 1
 333 111 l 1
 443 111 l 1
 443 55 l 1
 333 55 l 1
111 0 m 1
 111 55 l 1
 333 55 l 1
 333 0 l 1
 111 0 l 1
388 0 m 1
 388 55 l 1
 499 55 l 1
 499 0 l 1
 388 0 l 1
EndSplineSet
EndChar

StartChar: aacute
Encoding: 225 225 161
Width: 554
Flags: HW
LayerCount: 2
Back
Fore
SplineSet
166 610 m 1
 166 665 l 1
 333 665 l 1
 333 610 l 1
 166 610 l 1
111 554 m 1
 111 610 l 1
 222 610 l 1
 222 554 l 1
 111 554 l 1
111 443 m 1
 111 499 l 1
 388 499 l 1
 388 443 l 1
 111 443 l 1
111 388 m 1
 111 443 l 1
 166 443 l 1
 166 388 l 1
 111 388 l 1
388 388 m 1
 388 443 l 1
 443 443 l 1
 443 388 l 1
 388 388 l 1
388 333 m 1
 388 388 l 1
 443 388 l 1
 443 333 l 1
 388 333 l 1
388 277 m 1
 388 333 l 1
 443 333 l 1
 443 277 l 1
 388 277 l 1
166 222 m 1
 166 277 l 1
 443 277 l 1
 443 222 l 1
 166 222 l 1
55 166 m 1
 55 222 l 1
 166 222 l 1
 166 166 l 1
 55 166 l 1
388 166 m 1
 388 222 l 1
 443 222 l 1
 443 166 l 1
 388 166 l 1
55 111 m 1
 55 166 l 1
 111 166 l 1
 111 111 l 1
 55 111 l 1
388 111 m 1
 388 166 l 1
 443 166 l 1
 443 111 l 1
 388 111 l 1
55 55 m 1
 55 111 l 1
 111 111 l 1
 111 55 l 1
 55 55 l 1
333 55 m 1
 333 111 l 1
 443 111 l 1
 443 55 l 1
 333 55 l 1
111 0 m 1
 111 55 l 1
 333 55 l 1
 333 0 l 1
 111 0 l 1
388 0 m 1
 388 55 l 1
 499 55 l 1
 499 0 l 1
 388 0 l 1
EndSplineSet
EndChar

StartChar: acircumflex
Encoding: 226 226 162
Width: 554
Flags: HW
LayerCount: 2
Back
Fore
SplineSet
166 610 m 1
 166 665 l 1
 388 665 l 1
 388 610 l 1
 166 610 l 1
111 554 m 1
 111 610 l 1
 222 610 l 1
 222 554 l 1
 111 554 l 1
333 554 m 1
 333 610 l 1
 443 610 l 1
 443 554 l 1
 333 554 l 1
111 443 m 1
 111 499 l 1
 388 499 l 1
 388 443 l 1
 111 443 l 1
111 388 m 1
 111 443 l 1
 166 443 l 1
 166 388 l 1
 111 388 l 1
388 388 m 1
 388 443 l 1
 443 443 l 1
 443 388 l 1
 388 388 l 1
388 333 m 1
 388 388 l 1
 443 388 l 1
 443 333 l 1
 388 333 l 1
388 277 m 1
 388 333 l 1
 443 333 l 1
 443 277 l 1
 388 277 l 1
166 222 m 1
 166 277 l 1
 443 277 l 1
 443 222 l 1
 166 222 l 1
55 166 m 1
 55 222 l 1
 166 222 l 1
 166 166 l 1
 55 166 l 1
388 166 m 1
 388 222 l 1
 443 222 l 1
 443 166 l 1
 388 166 l 1
55 111 m 1
 55 166 l 1
 111 166 l 1
 111 111 l 1
 55 111 l 1
388 111 m 1
 388 166 l 1
 443 166 l 1
 443 111 l 1
 388 111 l 1
55 55 m 1
 55 111 l 1
 111 111 l 1
 111 55 l 1
 55 55 l 1
333 55 m 1
 333 111 l 1
 443 111 l 1
 443 55 l 1
 333 55 l 1
111 0 m 1
 111 55 l 1
 333 55 l 1
 333 0 l 1
 111 0 l 1
388 0 m 1
 388 55 l 1
 499 55 l 1
 499 0 l 1
 388 0 l 1
EndSplineSet
EndChar

StartChar: atilde
Encoding: 227 227 163
Width: 554
Flags: HW
LayerCount: 2
Back
Fore
SplineSet
111 554 m 1
 111 610 l 1
 443 610 l 1
 443 554 l 1
 111 554 l 1
111 443 m 1
 111 499 l 1
 388 499 l 1
 388 443 l 1
 111 443 l 1
111 388 m 1
 111 443 l 1
 166 443 l 1
 166 388 l 1
 111 388 l 1
388 388 m 1
 388 443 l 1
 443 443 l 1
 443 388 l 1
 388 388 l 1
388 333 m 1
 388 388 l 1
 443 388 l 1
 443 333 l 1
 388 333 l 1
388 277 m 1
 388 333 l 1
 443 333 l 1
 443 277 l 1
 388 277 l 1
166 222 m 1
 166 277 l 1
 443 277 l 1
 443 222 l 1
 166 222 l 1
55 166 m 1
 55 222 l 1
 166 222 l 1
 166 166 l 1
 55 166 l 1
388 166 m 1
 388 222 l 1
 443 222 l 1
 443 166 l 1
 388 166 l 1
55 111 m 1
 55 166 l 1
 111 166 l 1
 111 111 l 1
 55 111 l 1
388 111 m 1
 388 166 l 1
 443 166 l 1
 443 111 l 1
 388 111 l 1
55 55 m 1
 55 111 l 1
 111 111 l 1
 111 55 l 1
 55 55 l 1
333 55 m 1
 333 111 l 1
 443 111 l 1
 443 55 l 1
 333 55 l 1
111 0 m 1
 111 55 l 1
 333 55 l 1
 333 0 l 1
 111 0 l 1
388 0 m 1
 388 55 l 1
 499 55 l 1
 499 0 l 1
 388 0 l 1
EndSplineSet
EndChar

StartChar: adieresis
Encoding: 228 228 164
Width: 554
Flags: HW
LayerCount: 2
Back
Fore
SplineSet
111 554 m 1
 111 610 l 1
 166 610 l 1
 166 554 l 1
 111 554 l 1
277 554 m 1
 277 610 l 1
 388 610 l 1
 388 554 l 1
 277 554 l 1
111 443 m 1
 111 499 l 1
 388 499 l 1
 388 443 l 1
 111 443 l 1
111 388 m 1
 111 443 l 1
 166 443 l 1
 166 388 l 1
 111 388 l 1
388 388 m 1
 388 443 l 1
 443 443 l 1
 443 388 l 1
 388 388 l 1
388 333 m 1
 388 388 l 1
 443 388 l 1
 443 333 l 1
 388 333 l 1
388 277 m 1
 388 333 l 1
 443 333 l 1
 443 277 l 1
 388 277 l 1
166 222 m 1
 166 277 l 1
 443 277 l 1
 443 222 l 1
 166 222 l 1
55 166 m 1
 55 222 l 1
 166 222 l 1
 166 166 l 1
 55 166 l 1
388 166 m 1
 388 222 l 1
 443 222 l 1
 443 166 l 1
 388 166 l 1
55 111 m 1
 55 166 l 1
 111 166 l 1
 111 111 l 1
 55 111 l 1
388 111 m 1
 388 166 l 1
 443 166 l 1
 443 111 l 1
 388 111 l 1
55 55 m 1
 55 111 l 1
 111 111 l 1
 111 55 l 1
 55 55 l 1
333 55 m 1
 333 111 l 1
 443 111 l 1
 443 55 l 1
 333 55 l 1
111 0 m 1
 111 55 l 1
 333 55 l 1
 333 0 l 1
 111 0 l 1
388 0 m 1
 388 55 l 1
 499 55 l 1
 499 0 l 1
 388 0 l 1
EndSplineSet
EndChar

StartChar: aring
Encoding: 229 229 165
Width: 554
Flags: HW
LayerCount: 2
Back
Fore
SplineSet
166 610 m 1
 166 665 l 1
 333 665 l 1
 333 610 l 1
 166 610 l 1
166 554 m 1
 166 610 l 1
 333 610 l 1
 333 554 l 1
 166 554 l 1
111 443 m 1
 111 499 l 1
 388 499 l 1
 388 443 l 1
 111 443 l 1
111 388 m 1
 111 443 l 1
 166 443 l 1
 166 388 l 1
 111 388 l 1
388 388 m 1
 388 443 l 1
 443 443 l 1
 443 388 l 1
 388 388 l 1
388 333 m 1
 388 388 l 1
 443 388 l 1
 443 333 l 1
 388 333 l 1
388 277 m 1
 388 333 l 1
 443 333 l 1
 443 277 l 1
 388 277 l 1
166 222 m 1
 166 277 l 1
 443 277 l 1
 443 222 l 1
 166 222 l 1
55 166 m 1
 55 222 l 1
 166 222 l 1
 166 166 l 1
 55 166 l 1
388 166 m 1
 388 222 l 1
 443 222 l 1
 443 166 l 1
 388 166 l 1
55 111 m 1
 55 166 l 1
 111 166 l 1
 111 111 l 1
 55 111 l 1
388 111 m 1
 388 166 l 1
 443 166 l 1
 443 111 l 1
 388 111 l 1
55 55 m 1
 55 111 l 1
 111 111 l 1
 111 55 l 1
 55 55 l 1
333 55 m 1
 333 111 l 1
 443 111 l 1
 443 55 l 1
 333 55 l 1
111 0 m 1
 111 55 l 1
 333 55 l 1
 333 0 l 1
 111 0 l 1
388 0 m 1
 388 55 l 1
 499 55 l 1
 499 0 l 1
 388 0 l 1
EndSplineSet
EndChar

StartChar: ae
Encoding: 230 230 166
Width: 554
Flags: HW
LayerCount: 2
Back
Fore
SplineSet
55 443 m 1
 55 499 l 1
 277 499 l 1
 277 443 l 1
 55 443 l 1
333 443 m 1
 333 499 l 1
 499 499 l 1
 499 443 l 1
 333 443 l 1
277 388 m 1
 277 443 l 1
 388 443 l 1
 388 388 l 1
 277 388 l 1
499 388 m 1
 499 443 l 1
 554 443 l 1
 554 388 l 1
 499 388 l 1
277 333 m 1
 277 388 l 1
 333 388 l 1
 333 333 l 1
 277 333 l 1
499 333 m 1
 499 388 l 1
 554 388 l 1
 554 333 l 1
 499 333 l 1
277 277 m 1
 277 333 l 1
 333 333 l 1
 333 277 l 1
 277 277 l 1
499 277 m 1
 499 333 l 1
 554 333 l 1
 554 277 l 1
 499 277 l 1
111 222 m 1
 111 277 l 1
 554 277 l 1
 554 222 l 1
 111 222 l 1
0 166 m 1
 0 222 l 1
 111 222 l 1
 111 166 l 1
 0 166 l 1
277 166 m 1
 277 222 l 1
 333 222 l 1
 333 166 l 1
 277 166 l 1
0 111 m 1
 0 166 l 1
 55 166 l 1
 55 111 l 1
 0 111 l 1
277 111 m 1
 277 166 l 1
 333 166 l 1
 333 111 l 1
 277 111 l 1
0 55 m 1
 0 111 l 1
 55 111 l 1
 55 55 l 1
 0 55 l 1
277 55 m 1
 277 111 l 1
 388 111 l 1
 388 55 l 1
 277 55 l 1
499 55 m 1
 499 111 l 1
 554 111 l 1
 554 55 l 1
 499 55 l 1
55 0 m 1
 55 55 l 1
 554 55 l 1
 554 0 l 1
 55 0 l 1
EndSplineSet
EndChar

StartChar: ccedilla
Encoding: 231 231 167
Width: 554
Flags: HW
LayerCount: 2
Back
Fore
SplineSet
222 443 m 1
 222 499 l 1
 499 499 l 1
 499 443 l 1
 222 443 l 1
166 388 m 1
 166 443 l 1
 222 443 l 1
 222 388 l 1
 166 388 l 1
443 388 m 1
 443 443 l 1
 499 443 l 1
 499 388 l 1
 443 388 l 1
111 333 m 1
 111 388 l 1
 166 388 l 1
 166 333 l 1
 111 333 l 1
111 277 m 1
 111 333 l 1
 166 333 l 1
 166 277 l 1
 111 277 l 1
111 222 m 1
 111 277 l 1
 166 277 l 1
 166 222 l 1
 111 222 l 1
111 166 m 1
 111 222 l 1
 166 222 l 1
 166 166 l 1
 111 166 l 1
111 111 m 1
 111 166 l 1
 222 166 l 1
 222 111 l 1
 111 111 l 1
166 55 m 1
 166 111 l 1
 222 111 l 1
 222 55 l 1
 166 55 l 1
443 55 m 1
 443 111 l 1
 499 111 l 1
 499 55 l 1
 443 55 l 1
222 0 m 1
 222 55 l 1
 499 55 l 1
 499 0 l 1
 222 0 l 1
277 -55 m 1
 277 0 l 1
 333 0 l 1
 333 -55 l 1
 277 -55 l 1
333 -111 m 1
 333 -55 l 1
 388 -55 l 1
 388 -111 l 1
 333 -111 l 1
222 -166 m 1
 222 -111 l 1
 388 -111 l 1
 388 -166 l 1
 222 -166 l 1
EndSplineSet
EndChar

StartChar: egrave
Encoding: 232 232 168
Width: 554
Flags: HW
LayerCount: 2
Back
Fore
SplineSet
166 610 m 1
 166 665 l 1
 333 665 l 1
 333 610 l 1
 166 610 l 1
277 554 m 1
 277 610 l 1
 388 610 l 1
 388 554 l 1
 277 554 l 1
166 443 m 1
 166 499 l 1
 443 499 l 1
 443 443 l 1
 166 443 l 1
111 388 m 1
 111 443 l 1
 166 443 l 1
 166 388 l 1
 111 388 l 1
388 388 m 1
 388 443 l 1
 443 443 l 1
 443 388 l 1
 388 388 l 1
55 333 m 1
 55 388 l 1
 111 388 l 1
 111 333 l 1
 55 333 l 1
443 333 m 1
 443 388 l 1
 499 388 l 1
 499 333 l 1
 443 333 l 1
55 277 m 1
 55 333 l 1
 111 333 l 1
 111 277 l 1
 55 277 l 1
443 277 m 1
 443 333 l 1
 499 333 l 1
 499 277 l 1
 443 277 l 1
55 222 m 1
 55 277 l 1
 499 277 l 1
 499 222 l 1
 55 222 l 1
55 166 m 1
 55 222 l 1
 111 222 l 1
 111 166 l 1
 55 166 l 1
55 111 m 1
 55 166 l 1
 111 166 l 1
 111 111 l 1
 55 111 l 1
111 55 m 1
 111 111 l 1
 166 111 l 1
 166 55 l 1
 111 55 l 1
443 55 m 1
 443 111 l 1
 499 111 l 1
 499 55 l 1
 443 55 l 1
166 0 m 1
 166 55 l 1
 499 55 l 1
 499 0 l 1
 166 0 l 1
EndSplineSet
EndChar

StartChar: eacute
Encoding: 233 233 169
Width: 554
Flags: HW
LayerCount: 2
Back
Fore
SplineSet
222 610 m 1
 222 665 l 1
 388 665 l 1
 388 610 l 1
 222 610 l 1
166 554 m 1
 166 610 l 1
 277 610 l 1
 277 554 l 1
 166 554 l 1
166 443 m 1
 166 499 l 1
 443 499 l 1
 443 443 l 1
 166 443 l 1
111 388 m 1
 111 443 l 1
 166 443 l 1
 166 388 l 1
 111 388 l 1
388 388 m 1
 388 443 l 1
 443 443 l 1
 443 388 l 1
 388 388 l 1
55 333 m 1
 55 388 l 1
 111 388 l 1
 111 333 l 1
 55 333 l 1
443 333 m 1
 443 388 l 1
 499 388 l 1
 499 333 l 1
 443 333 l 1
55 277 m 1
 55 333 l 1
 111 333 l 1
 111 277 l 1
 55 277 l 1
443 277 m 1
 443 333 l 1
 499 333 l 1
 499 277 l 1
 443 277 l 1
55 222 m 1
 55 277 l 1
 499 277 l 1
 499 222 l 1
 55 222 l 1
55 166 m 1
 55 222 l 1
 111 222 l 1
 111 166 l 1
 55 166 l 1
55 111 m 1
 55 166 l 1
 111 166 l 1
 111 111 l 1
 55 111 l 1
111 55 m 1
 111 111 l 1
 166 111 l 1
 166 55 l 1
 111 55 l 1
443 55 m 1
 443 111 l 1
 499 111 l 1
 499 55 l 1
 443 55 l 1
166 0 m 1
 166 55 l 1
 499 55 l 1
 499 0 l 1
 166 0 l 1
EndSplineSet
EndChar

StartChar: ecircumflex
Encoding: 234 234 170
Width: 554
Flags: HW
LayerCount: 2
Back
Fore
SplineSet
166 610 m 1
 166 665 l 1
 388 665 l 1
 388 610 l 1
 166 610 l 1
111 554 m 1
 111 610 l 1
 222 610 l 1
 222 554 l 1
 111 554 l 1
333 554 m 1
 333 610 l 1
 443 610 l 1
 443 554 l 1
 333 554 l 1
166 443 m 1
 166 499 l 1
 443 499 l 1
 443 443 l 1
 166 443 l 1
111 388 m 1
 111 443 l 1
 166 443 l 1
 166 388 l 1
 111 388 l 1
388 388 m 1
 388 443 l 1
 443 443 l 1
 443 388 l 1
 388 388 l 1
55 333 m 1
 55 388 l 1
 111 388 l 1
 111 333 l 1
 55 333 l 1
443 333 m 1
 443 388 l 1
 499 388 l 1
 499 333 l 1
 443 333 l 1
55 277 m 1
 55 333 l 1
 111 333 l 1
 111 277 l 1
 55 277 l 1
443 277 m 1
 443 333 l 1
 499 333 l 1
 499 277 l 1
 443 277 l 1
55 222 m 1
 55 277 l 1
 499 277 l 1
 499 222 l 1
 55 222 l 1
55 166 m 1
 55 222 l 1
 111 222 l 1
 111 166 l 1
 55 166 l 1
55 111 m 1
 55 166 l 1
 111 166 l 1
 111 111 l 1
 55 111 l 1
111 55 m 1
 111 111 l 1
 166 111 l 1
 166 55 l 1
 111 55 l 1
443 55 m 1
 443 111 l 1
 499 111 l 1
 499 55 l 1
 443 55 l 1
166 0 m 1
 166 55 l 1
 499 55 l 1
 499 0 l 1
 166 0 l 1
EndSplineSet
EndChar

StartChar: edieresis
Encoding: 235 235 171
Width: 554
Flags: HW
LayerCount: 2
Back
Fore
SplineSet
111 554 m 1
 111 610 l 1
 166 610 l 1
 166 554 l 1
 111 554 l 1
277 554 m 1
 277 610 l 1
 388 610 l 1
 388 554 l 1
 277 554 l 1
166 443 m 1
 166 499 l 1
 443 499 l 1
 443 443 l 1
 166 443 l 1
111 388 m 1
 111 443 l 1
 166 443 l 1
 166 388 l 1
 111 388 l 1
388 388 m 1
 388 443 l 1
 443 443 l 1
 443 388 l 1
 388 388 l 1
55 333 m 1
 55 388 l 1
 111 388 l 1
 111 333 l 1
 55 333 l 1
443 333 m 1
 443 388 l 1
 499 388 l 1
 499 333 l 1
 443 333 l 1
55 277 m 1
 55 333 l 1
 111 333 l 1
 111 277 l 1
 55 277 l 1
443 277 m 1
 443 333 l 1
 499 333 l 1
 499 277 l 1
 443 277 l 1
55 222 m 1
 55 277 l 1
 499 277 l 1
 499 222 l 1
 55 222 l 1
55 166 m 1
 55 222 l 1
 111 222 l 1
 111 166 l 1
 55 166 l 1
55 111 m 1
 55 166 l 1
 111 166 l 1
 111 111 l 1
 55 111 l 1
111 55 m 1
 111 111 l 1
 166 111 l 1
 166 55 l 1
 111 55 l 1
443 55 m 1
 443 111 l 1
 499 111 l 1
 499 55 l 1
 443 55 l 1
166 0 m 1
 166 55 l 1
 499 55 l 1
 499 0 l 1
 166 0 l 1
EndSplineSet
EndChar

StartChar: igrave
Encoding: 236 236 172
Width: 554
Flags: HW
LayerCount: 2
Back
Fore
SplineSet
166 610 m 1
 166 665 l 1
 333 665 l 1
 333 610 l 1
 166 610 l 1
277 554 m 1
 277 610 l 1
 388 610 l 1
 388 554 l 1
 277 554 l 1
111 443 m 1
 111 499 l 1
 333 499 l 1
 333 443 l 1
 111 443 l 1
277 388 m 1
 277 443 l 1
 333 443 l 1
 333 388 l 1
 277 388 l 1
277 333 m 1
 277 388 l 1
 333 388 l 1
 333 333 l 1
 277 333 l 1
277 277 m 1
 277 333 l 1
 333 333 l 1
 333 277 l 1
 277 277 l 1
277 222 m 1
 277 277 l 1
 333 277 l 1
 333 222 l 1
 277 222 l 1
277 166 m 1
 277 222 l 1
 333 222 l 1
 333 166 l 1
 277 166 l 1
277 111 m 1
 277 166 l 1
 333 166 l 1
 333 111 l 1
 277 111 l 1
277 55 m 1
 277 111 l 1
 333 111 l 1
 333 55 l 1
 277 55 l 1
277 0 m 1
 277 55 l 1
 333 55 l 1
 333 0 l 1
 277 0 l 1
EndSplineSet
EndChar

StartChar: iacute
Encoding: 237 237 173
Width: 554
Flags: HW
LayerCount: 2
Back
Fore
SplineSet
222 610 m 1
 222 665 l 1
 388 665 l 1
 388 610 l 1
 222 610 l 1
166 554 m 1
 166 610 l 1
 277 610 l 1
 277 554 l 1
 166 554 l 1
111 443 m 1
 111 499 l 1
 333 499 l 1
 333 443 l 1
 111 443 l 1
277 388 m 1
 277 443 l 1
 333 443 l 1
 333 388 l 1
 277 388 l 1
277 333 m 1
 277 388 l 1
 333 388 l 1
 333 333 l 1
 277 333 l 1
277 277 m 1
 277 333 l 1
 333 333 l 1
 333 277 l 1
 277 277 l 1
277 222 m 1
 277 277 l 1
 333 277 l 1
 333 222 l 1
 277 222 l 1
277 166 m 1
 277 222 l 1
 333 222 l 1
 333 166 l 1
 277 166 l 1
277 111 m 1
 277 166 l 1
 333 166 l 1
 333 111 l 1
 277 111 l 1
277 55 m 1
 277 111 l 1
 333 111 l 1
 333 55 l 1
 277 55 l 1
277 0 m 1
 277 55 l 1
 333 55 l 1
 333 0 l 1
 277 0 l 1
EndSplineSet
EndChar

StartChar: icircumflex
Encoding: 238 238 174
Width: 554
Flags: HW
LayerCount: 2
Back
Fore
SplineSet
166 610 m 1
 166 665 l 1
 388 665 l 1
 388 610 l 1
 166 610 l 1
111 554 m 1
 111 610 l 1
 222 610 l 1
 222 554 l 1
 111 554 l 1
333 554 m 1
 333 610 l 1
 443 610 l 1
 443 554 l 1
 333 554 l 1
111 443 m 1
 111 499 l 1
 333 499 l 1
 333 443 l 1
 111 443 l 1
277 388 m 1
 277 443 l 1
 333 443 l 1
 333 388 l 1
 277 388 l 1
277 333 m 1
 277 388 l 1
 333 388 l 1
 333 333 l 1
 277 333 l 1
277 277 m 1
 277 333 l 1
 333 333 l 1
 333 277 l 1
 277 277 l 1
277 222 m 1
 277 277 l 1
 333 277 l 1
 333 222 l 1
 277 222 l 1
277 166 m 1
 277 222 l 1
 333 222 l 1
 333 166 l 1
 277 166 l 1
277 111 m 1
 277 166 l 1
 333 166 l 1
 333 111 l 1
 277 111 l 1
277 55 m 1
 277 111 l 1
 333 111 l 1
 333 55 l 1
 277 55 l 1
277 0 m 1
 277 55 l 1
 333 55 l 1
 333 0 l 1
 277 0 l 1
EndSplineSet
EndChar

StartChar: idieresis
Encoding: 239 239 175
Width: 554
Flags: HW
LayerCount: 2
Back
Fore
SplineSet
166 554 m 1
 166 610 l 1
 222 610 l 1
 222 554 l 1
 166 554 l 1
333 554 m 1
 333 610 l 1
 443 610 l 1
 443 554 l 1
 333 554 l 1
111 443 m 1
 111 499 l 1
 333 499 l 1
 333 443 l 1
 111 443 l 1
277 388 m 1
 277 443 l 1
 333 443 l 1
 333 388 l 1
 277 388 l 1
277 333 m 1
 277 388 l 1
 333 388 l 1
 333 333 l 1
 277 333 l 1
277 277 m 1
 277 333 l 1
 333 333 l 1
 333 277 l 1
 277 277 l 1
277 222 m 1
 277 277 l 1
 333 277 l 1
 333 222 l 1
 277 222 l 1
277 166 m 1
 277 222 l 1
 333 222 l 1
 333 166 l 1
 277 166 l 1
277 111 m 1
 277 166 l 1
 333 166 l 1
 333 111 l 1
 277 111 l 1
277 55 m 1
 277 111 l 1
 333 111 l 1
 333 55 l 1
 277 55 l 1
277 0 m 1
 277 55 l 1
 333 55 l 1
 333 0 l 1
 277 0 l 1
EndSplineSet
EndChar

StartChar: eth
Encoding: 240 240 176
Width: 554
Flags: HW
LayerCount: 2
Back
Fore
SplineSet
55 610 m 1
 55 665 l 1
 388 665 l 1
 388 610 l 1
 55 610 l 1
111 554 m 1
 111 610 l 1
 222 610 l 1
 222 554 l 1
 111 554 l 1
277 554 m 1
 277 610 l 1
 333 610 l 1
 333 554 l 1
 277 554 l 1
55 499 m 1
 55 554 l 1
 111 554 l 1
 111 499 l 1
 55 499 l 1
333 499 m 1
 333 554 l 1
 388 554 l 1
 388 499 l 1
 333 499 l 1
166 443 m 1
 166 499 l 1
 443 499 l 1
 443 443 l 1
 166 443 l 1
111 388 m 1
 111 443 l 1
 166 443 l 1
 166 388 l 1
 111 388 l 1
388 388 m 1
 388 443 l 1
 443 443 l 1
 443 388 l 1
 388 388 l 1
55 333 m 1
 55 388 l 1
 111 388 l 1
 111 333 l 1
 55 333 l 1
443 333 m 1
 443 388 l 1
 499 388 l 1
 499 333 l 1
 443 333 l 1
55 277 m 1
 55 333 l 1
 111 333 l 1
 111 277 l 1
 55 277 l 1
443 277 m 1
 443 333 l 1
 499 333 l 1
 499 277 l 1
 443 277 l 1
55 222 m 1
 55 277 l 1
 111 277 l 1
 111 222 l 1
 55 222 l 1
443 222 m 1
 443 277 l 1
 499 277 l 1
 499 222 l 1
 443 222 l 1
55 166 m 1
 55 222 l 1
 111 222 l 1
 111 166 l 1
 55 166 l 1
443 166 m 1
 443 222 l 1
 499 222 l 1
 499 166 l 1
 443 166 l 1
55 111 m 1
 55 166 l 1
 111 166 l 1
 111 111 l 1
 55 111 l 1
443 111 m 1
 443 166 l 1
 499 166 l 1
 499 111 l 1
 443 111 l 1
111 55 m 1
 111 111 l 1
 166 111 l 1
 166 55 l 1
 111 55 l 1
388 55 m 1
 388 111 l 1
 443 111 l 1
 443 55 l 1
 388 55 l 1
166 0 m 1
 166 55 l 1
 388 55 l 1
 388 0 l 1
 166 0 l 1
EndSplineSet
EndChar

StartChar: ntilde
Encoding: 241 241 177
Width: 554
Flags: HW
LayerCount: 2
Back
Fore
SplineSet
111 554 m 1
 111 610 l 1
 443 610 l 1
 443 554 l 1
 111 554 l 1
111 443 m 1
 111 499 l 1
 166 499 l 1
 166 443 l 1
 111 443 l 1
222 443 m 1
 222 499 l 1
 443 499 l 1
 443 443 l 1
 222 443 l 1
111 388 m 1
 111 443 l 1
 222 443 l 1
 222 388 l 1
 111 388 l 1
443 388 m 1
 443 443 l 1
 499 443 l 1
 499 388 l 1
 443 388 l 1
111 333 m 1
 111 388 l 1
 166 388 l 1
 166 333 l 1
 111 333 l 1
443 333 m 1
 443 388 l 1
 499 388 l 1
 499 333 l 1
 443 333 l 1
111 277 m 1
 111 333 l 1
 166 333 l 1
 166 277 l 1
 111 277 l 1
443 277 m 1
 443 333 l 1
 499 333 l 1
 499 277 l 1
 443 277 l 1
111 222 m 1
 111 277 l 1
 166 277 l 1
 166 222 l 1
 111 222 l 1
443 222 m 1
 443 277 l 1
 499 277 l 1
 499 222 l 1
 443 222 l 1
111 166 m 1
 111 222 l 1
 166 222 l 1
 166 166 l 1
 111 166 l 1
443 166 m 1
 443 222 l 1
 499 222 l 1
 499 166 l 1
 443 166 l 1
111 111 m 1
 111 166 l 1
 166 166 l 1
 166 111 l 1
 111 111 l 1
443 111 m 1
 443 166 l 1
 499 166 l 1
 499 111 l 1
 443 111 l 1
111 55 m 1
 111 111 l 1
 166 111 l 1
 166 55 l 1
 111 55 l 1
443 55 m 1
 443 111 l 1
 499 111 l 1
 499 55 l 1
 443 55 l 1
111 0 m 1
 111 55 l 1
 166 55 l 1
 166 0 l 1
 111 0 l 1
443 0 m 1
 443 55 l 1
 499 55 l 1
 499 0 l 1
 443 0 l 1
EndSplineSet
EndChar

StartChar: ograve
Encoding: 242 242 178
Width: 554
Flags: HW
LayerCount: 2
Back
Fore
SplineSet
222 610 m 1
 222 665 l 1
 388 665 l 1
 388 610 l 1
 222 610 l 1
333 554 m 1
 333 610 l 1
 443 610 l 1
 443 554 l 1
 333 554 l 1
166 443 m 1
 166 499 l 1
 443 499 l 1
 443 443 l 1
 166 443 l 1
111 388 m 1
 111 443 l 1
 222 443 l 1
 222 388 l 1
 111 388 l 1
388 388 m 1
 388 443 l 1
 499 443 l 1
 499 388 l 1
 388 388 l 1
55 333 m 1
 55 388 l 1
 166 388 l 1
 166 333 l 1
 55 333 l 1
443 333 m 1
 443 388 l 1
 554 388 l 1
 554 333 l 1
 443 333 l 1
55 277 m 1
 55 333 l 1
 111 333 l 1
 111 277 l 1
 55 277 l 1
499 277 m 1
 499 333 l 1
 554 333 l 1
 554 277 l 1
 499 277 l 1
55 222 m 1
 55 277 l 1
 111 277 l 1
 111 222 l 1
 55 222 l 1
499 222 m 1
 499 277 l 1
 554 277 l 1
 554 222 l 1
 499 222 l 1
55 166 m 1
 55 222 l 1
 111 222 l 1
 111 166 l 1
 55 166 l 1
499 166 m 1
 499 222 l 1
 554 222 l 1
 554 166 l 1
 499 166 l 1
55 111 m 1
 55 166 l 1
 166 166 l 1
 166 111 l 1
 55 111 l 1
443 111 m 1
 443 166 l 1
 554 166 l 1
 554 111 l 1
 443 111 l 1
111 55 m 1
 111 111 l 1
 222 111 l 1
 222 55 l 1
 111 55 l 1
388 55 m 1
 388 111 l 1
 499 111 l 1
 499 55 l 1
 388 55 l 1
166 0 m 1
 166 55 l 1
 443 55 l 1
 443 0 l 1
 166 0 l 1
EndSplineSet
EndChar

StartChar: oacute
Encoding: 243 243 179
Width: 554
Flags: HW
LayerCount: 2
Back
Fore
SplineSet
222 610 m 1
 222 665 l 1
 388 665 l 1
 388 610 l 1
 222 610 l 1
166 554 m 1
 166 610 l 1
 277 610 l 1
 277 554 l 1
 166 554 l 1
166 443 m 1
 166 499 l 1
 443 499 l 1
 443 443 l 1
 166 443 l 1
111 388 m 1
 111 443 l 1
 222 443 l 1
 222 388 l 1
 111 388 l 1
388 388 m 1
 388 443 l 1
 499 443 l 1
 499 388 l 1
 388 388 l 1
55 333 m 1
 55 388 l 1
 166 388 l 1
 166 333 l 1
 55 333 l 1
443 333 m 1
 443 388 l 1
 554 388 l 1
 554 333 l 1
 443 333 l 1
55 277 m 1
 55 333 l 1
 111 333 l 1
 111 277 l 1
 55 277 l 1
499 277 m 1
 499 333 l 1
 554 333 l 1
 554 277 l 1
 499 277 l 1
55 222 m 1
 55 277 l 1
 111 277 l 1
 111 222 l 1
 55 222 l 1
499 222 m 1
 499 277 l 1
 554 277 l 1
 554 222 l 1
 499 222 l 1
55 166 m 1
 55 222 l 1
 111 222 l 1
 111 166 l 1
 55 166 l 1
499 166 m 1
 499 222 l 1
 554 222 l 1
 554 166 l 1
 499 166 l 1
55 111 m 1
 55 166 l 1
 166 166 l 1
 166 111 l 1
 55 111 l 1
443 111 m 1
 443 166 l 1
 554 166 l 1
 554 111 l 1
 443 111 l 1
111 55 m 1
 111 111 l 1
 222 111 l 1
 222 55 l 1
 111 55 l 1
388 55 m 1
 388 111 l 1
 499 111 l 1
 499 55 l 1
 388 55 l 1
166 0 m 1
 166 55 l 1
 443 55 l 1
 443 0 l 1
 166 0 l 1
EndSplineSet
EndChar

StartChar: ocircumflex
Encoding: 244 244 180
Width: 554
Flags: HW
LayerCount: 2
Back
Fore
SplineSet
166 610 m 1
 166 665 l 1
 388 665 l 1
 388 610 l 1
 166 610 l 1
111 554 m 1
 111 610 l 1
 222 610 l 1
 222 554 l 1
 111 554 l 1
333 554 m 1
 333 610 l 1
 443 610 l 1
 443 554 l 1
 333 554 l 1
166 443 m 1
 166 499 l 1
 443 499 l 1
 443 443 l 1
 166 443 l 1
111 388 m 1
 111 443 l 1
 222 443 l 1
 222 388 l 1
 111 388 l 1
388 388 m 1
 388 443 l 1
 499 443 l 1
 499 388 l 1
 388 388 l 1
55 333 m 1
 55 388 l 1
 166 388 l 1
 166 333 l 1
 55 333 l 1
443 333 m 1
 443 388 l 1
 554 388 l 1
 554 333 l 1
 443 333 l 1
55 277 m 1
 55 333 l 1
 111 333 l 1
 111 277 l 1
 55 277 l 1
499 277 m 1
 499 333 l 1
 554 333 l 1
 554 277 l 1
 499 277 l 1
55 222 m 1
 55 277 l 1
 111 277 l 1
 111 222 l 1
 55 222 l 1
499 222 m 1
 499 277 l 1
 554 277 l 1
 554 222 l 1
 499 222 l 1
55 166 m 1
 55 222 l 1
 111 222 l 1
 111 166 l 1
 55 166 l 1
499 166 m 1
 499 222 l 1
 554 222 l 1
 554 166 l 1
 499 166 l 1
55 111 m 1
 55 166 l 1
 166 166 l 1
 166 111 l 1
 55 111 l 1
443 111 m 1
 443 166 l 1
 554 166 l 1
 554 111 l 1
 443 111 l 1
111 55 m 1
 111 111 l 1
 222 111 l 1
 222 55 l 1
 111 55 l 1
388 55 m 1
 388 111 l 1
 499 111 l 1
 499 55 l 1
 388 55 l 1
166 0 m 1
 166 55 l 1
 443 55 l 1
 443 0 l 1
 166 0 l 1
EndSplineSet
EndChar

